<svg id="Hukum_Pidana" data-name="Hukum Pidana" xmlns="http://www.w3.org/2000/svg" viewBox="0 0 192 192"><defs><style>.cls-1{fill:#fff;}.cls-2{fill:#32d320;}</style></defs><path class="cls-1" d="M146.66,70,105.23,36.7a14.71,14.71,0,0,0-18.46,0L45.34,70a14.75,14.75,0,0,0-5.51,11.49v62.3a14.74,14.74,0,0,0,14.74,14.74h82.86a14.74,14.74,0,0,0,14.74-14.74V81.49A14.75,14.75,0,0,0,146.66,70Z"/><path d="M137.43,159.55H54.57a15.78,15.78,0,0,1-15.76-15.76V81.49A15.7,15.7,0,0,1,44.69,69.2L86.13,35.9a15.86,15.86,0,0,1,19.75,0l41.43,33.3a15.7,15.7,0,0,1,5.88,12.29v62.3A15.78,15.78,0,0,1,137.43,159.55ZM96,34.5a13.7,13.7,0,0,0-8.59,3L46,70.8a13.67,13.67,0,0,0-5.12,10.69v62.3A13.73,13.73,0,0,0,54.57,157.5h82.86a13.73,13.73,0,0,0,13.71-13.71V81.49A13.64,13.64,0,0,0,146,70.8L104.59,37.5A13.7,13.7,0,0,0,96,34.5Z"/><circle class="cls-1" cx="80.86" cy="81.73" r="9.39"/><path d="M80.86,91.64a9.91,9.91,0,1,1,9.91-9.91A9.92,9.92,0,0,1,80.86,91.64Zm0-18.79a8.88,8.88,0,1,0,8.88,8.88A8.89,8.89,0,0,0,80.86,72.85Z"/><path class="cls-1" d="M76.89,104A4.16,4.16,0,0,1,81,98.79,4.26,4.26,0,0,1,85,102a12.3,12.3,0,0,0,6.06,7.52v-3.79a10.21,10.21,0,1,0-20.41,0v23.08H91.07V118.49A20.63,20.63,0,0,1,76.89,104Z"/><path d="M91.58,129.35H70.15v-23.6a10.72,10.72,0,1,1,21.43,0v4.65l-.76-.41a12.82,12.82,0,0,1-6.3-7.84A3.75,3.75,0,0,0,81,99.3,3.7,3.7,0,0,0,78,100.74a3.56,3.56,0,0,0-.63,3.08h0A20.16,20.16,0,0,0,91.21,118l.37.11Zm-20.4-1H90.55v-9.45a21.19,21.19,0,0,1-14.16-14.8,4.54,4.54,0,0,1,.82-3.95,4.69,4.69,0,0,1,8.29,1.76,11.82,11.82,0,0,0,5,6.77v-2.9a9.69,9.69,0,1,0-19.37,0Z"/><rect class="cls-2" x="70.68" y="128.97" width="10.19" height="18.06"/><path d="M81.38,147.54H70.16V128.46H81.38Zm-10.19-1h9.17v-17H71.19Z"/><rect class="cls-2" x="80.87" y="128.97" width="10.19" height="18.06"/><path d="M91.57,147.54H80.36V128.46H91.57Zm-10.19-1h9.17v-17H81.38Z"/><circle class="cls-1" cx="112.77" cy="81.73" r="9.39"/><path d="M112.77,91.64a9.91,9.91,0,1,1,9.91-9.91A9.92,9.92,0,0,1,112.77,91.64Zm0-18.79a8.88,8.88,0,1,0,8.88,8.88A8.89,8.89,0,0,0,112.77,72.85Z"/><path d="M71.47,82.76a1,1,0,0,1-1-1A10.44,10.44,0,0,1,80.86,71.31a1,1,0,1,1,0,2,8.38,8.38,0,0,0-8.36,8.37A1,1,0,0,1,71.47,82.76Z"/><rect class="cls-1" x="102.59" y="128.97" width="10.19" height="18.06"/><path d="M113.29,147.54H102.07V128.46h11.22Zm-10.19-1h9.16v-17H103.1Z"/><rect class="cls-1" x="112.78" y="128.97" width="10.19" height="18.06"/><path d="M123.48,147.54H112.26V128.46h11.22Zm-10.19-1h9.17v-17h-9.17Z"/><path class="cls-2" d="M112.77,95.54a10.21,10.21,0,0,0-10.2,10.21v3.79a12.3,12.3,0,0,0,6.06-7.52,4.26,4.26,0,0,1,4.06-3.23,4.16,4.16,0,0,1,4.06,5.16,20.64,20.64,0,0,1-14.18,14.54v10.34H123V105.75A10.2,10.2,0,0,0,112.77,95.54Z"/><path d="M123.49,129.35H102.06V118.11l.37-.11a20.16,20.16,0,0,0,13.82-14.18,3.53,3.53,0,0,0-.64-3.08,3.67,3.67,0,0,0-2.92-1.44,3.75,3.75,0,0,0-3.57,2.85,12.8,12.8,0,0,1-6.31,7.84l-.75.41v-4.65a10.72,10.72,0,1,1,21.43,0Zm-20.41-1h19.38V105.75a9.69,9.69,0,0,0-19.38,0v2.9a11.78,11.78,0,0,0,5-6.77,4.7,4.7,0,0,1,8.3-1.76,4.57,4.57,0,0,1,.81,3.95,21.19,21.19,0,0,1-14.16,14.8Z"/><path class="cls-1" d="M112.69,98.79a4.26,4.26,0,0,0-4.06,3.23A12.26,12.26,0,0,1,85,102,4.26,4.26,0,0,0,81,98.79h0A4.16,4.16,0,0,0,76.89,104a20.61,20.61,0,0,0,39.86,0,4.16,4.16,0,0,0-4.06-5.16Z"/><path d="M96.82,119.83a21.12,21.12,0,0,1-20.43-15.76,4.54,4.54,0,0,1,.82-3.95,4.69,4.69,0,0,1,8.29,1.76,11.75,11.75,0,0,0,22.63,0,4.7,4.7,0,0,1,8.3-1.76,4.57,4.57,0,0,1,.81,3.95A21.1,21.1,0,0,1,96.82,119.83ZM81,99.3A3.7,3.7,0,0,0,78,100.74a3.56,3.56,0,0,0-.63,3.08,20.09,20.09,0,0,0,38.86,0,3.53,3.53,0,0,0-.64-3.08,3.67,3.67,0,0,0-2.92-1.44,3.75,3.75,0,0,0-3.57,2.85,12.77,12.77,0,0,1-24.6,0A3.75,3.75,0,0,0,81,99.3Z"/><path class="cls-1" d="M96.82,119.19A1.68,1.68,0,0,1,95,117.75v-5.2a1.91,1.91,0,0,1,3.7,0v5.2A1.68,1.68,0,0,1,96.82,119.19Z"/><path d="M96.82,119.71a2.2,2.2,0,0,1-2.37-2v-5.2a2.41,2.41,0,0,1,4.73,0v5.2A2.19,2.19,0,0,1,96.82,119.71Zm0-8.09c-.73,0-1.34.43-1.34.93v5.2c0,.51.61.93,1.34.93s1.33-.42,1.33-.93v-5.2C98.15,112.05,97.54,111.62,96.82,111.62Z"/><rect x="105.76" y="64.52" width="14.32" height="10.97"/></svg>