<svg id="Hukum_Pidana" data-name="Hukum Pidana" xmlns="http://www.w3.org/2000/svg" viewBox="0 0 192 192"><defs><style>.cls-1{fill:#069DD8;}.cls-2{fill:#fff;}</style></defs><rect class="cls-1" x="56.19" y="54.33" width="80.68" height="78.87" rx="4.36"/><path d="M127.4,134.29H65.67a10.57,10.57,0,0,1-10.56-10.56V63.81A10.56,10.56,0,0,1,65.67,53.25H127.4A10.57,10.57,0,0,1,138,63.81v59.92A10.58,10.58,0,0,1,127.4,134.29Zm-62-78.87a8.08,8.08,0,0,0-8.08,8.08v60.23a8.39,8.39,0,0,0,8.39,8.39H127.4a8.39,8.39,0,0,0,8.39-8.39V63.81a8.39,8.39,0,0,0-8.39-8.39Z"/><path class="cls-2" d="M56.19,72.42v51.31a9.49,9.49,0,0,0,9.48,9.48H127.4a9.49,9.49,0,0,0,9.48-9.48V72.42Z"/><path d="M127.4,134.29H65.67a10.57,10.57,0,0,1-10.56-10.56V71.34H138v52.39A10.58,10.58,0,0,1,127.4,134.29ZM57.28,73.51v50.22a8.39,8.39,0,0,0,8.39,8.39H127.4a8.39,8.39,0,0,0,8.39-8.39V73.51Z"/><path class="cls-1" d="M123.49,94.49H70.67a3.26,3.26,0,1,1,0-6.51h52.82a3.26,3.26,0,0,1,0,6.51Z"/><path class="cls-1" d="M123.49,111.14H70.67a3.26,3.26,0,1,1,0-6.52h52.82a3.26,3.26,0,0,1,0,6.52Z"/><polygon class="cls-2" points="140.34 143.07 121.53 133.13 121.53 114.3 140.34 124.3 140.34 143.07"/><path d="M140.34,144.16a1,1,0,0,1-.5-.13L121,134.1a1.09,1.09,0,0,1-.58-1V114.3a1.1,1.1,0,0,1,.52-.93,1.08,1.08,0,0,1,1.07,0l18.81,10a1.07,1.07,0,0,1,.58,1v18.78a1.09,1.09,0,0,1-.52.93A1.07,1.07,0,0,1,140.34,144.16Zm-17.72-11.68,16.64,8.79V125l-16.64-8.84Z"/><polygon class="cls-1" points="137.54 137.7 129.64 133.75 129.64 124.61 137.54 128.56 137.54 137.7"/><polygon class="cls-2" points="140.34 124.58 121.53 114.3 139.79 103.9 158.74 114.18 140.34 124.58"/><path d="M140.34,125.67a1.13,1.13,0,0,1-.52-.14L121,115.25a1.09,1.09,0,0,1-.56-.94,1.05,1.05,0,0,1,.55-1L139.25,103a1.11,1.11,0,0,1,1.06,0l18.95,10.29a1.1,1.1,0,0,1,.57,1,1.08,1.08,0,0,1-.56.95l-18.39,10.4A1.14,1.14,0,0,1,140.34,125.67Zm-16.58-11.39,16.58,9.06,16.16-9.14-16.7-9.06Z"/><polygon class="cls-2" points="140.34 143.07 158.91 132.79 158.91 114.3 140.34 124.53 140.34 143.07"/><path d="M140.34,144.16a1.08,1.08,0,0,1-1.08-1.09V124.53a1.07,1.07,0,0,1,.56-1l18.57-10.23a1.08,1.08,0,0,1,1.61,1v18.49a1.08,1.08,0,0,1-.56,1L140.87,144A1.08,1.08,0,0,1,140.34,144.16Zm1.09-19v16.06l16.4-9.08v-16Z"/><polygon class="cls-2" points="49.48 146.35 33.09 138.04 56.98 124.43 73.38 132.74 49.48 146.35"/><path d="M49.48,147.44a1,1,0,0,1-.49-.12L32.6,139a1.08,1.08,0,0,1-.05-1.91l23.9-13.61a1.1,1.1,0,0,1,1,0l16.39,8.31a1.07,1.07,0,0,1,.59.94,1.09,1.09,0,0,1-.54,1L50,147.29A1,1,0,0,1,49.48,147.44ZM35.38,138l14.07,7.13,21.64-12.33L57,125.66Z"/><polygon class="cls-2" points="49.48 142.01 33.09 133.7 56.98 120.09 73.38 128.4 49.48 142.01"/><path d="M49.48,143.09A1,1,0,0,1,49,143L32.6,134.67a1.08,1.08,0,0,1-.05-1.91l23.9-13.61a1.1,1.1,0,0,1,1,0l16.39,8.31a1.07,1.07,0,0,1,.59.94,1.09,1.09,0,0,1-.54,1L50,143A1,1,0,0,1,49.48,143.09Zm-14.1-9.44,14.07,7.13,21.64-12.33L57,121.32Z"/><polygon class="cls-2" points="49.48 137.67 33.09 129.36 56.98 115.75 73.38 124.06 49.48 137.67"/><path d="M49.48,138.75a1.17,1.17,0,0,1-.49-.11L32.6,130.33a1.08,1.08,0,0,1-.05-1.91l23.9-13.61a1.1,1.1,0,0,1,1,0l16.39,8.31a1.07,1.07,0,0,1,.59.94,1.09,1.09,0,0,1-.54,1L50,138.61A1,1,0,0,1,49.48,138.75Zm-14.1-9.44,14.07,7.13,21.64-12.33L57,117Z"/><polygon class="cls-2" points="49.48 133.33 33.09 125.02 56.98 111.41 73.38 119.71 49.48 133.33"/><path d="M49.48,134.41a1,1,0,0,1-.49-.12L32.6,126a1.08,1.08,0,0,1-.05-1.91l23.9-13.62a1.08,1.08,0,0,1,1,0l16.39,8.3a1.1,1.1,0,0,1,0,1.92L50,134.27A1.14,1.14,0,0,1,49.48,134.41ZM35.38,125l14.07,7.13,21.64-12.32L57,112.64Z"/><ellipse class="cls-1" cx="53.39" cy="122.22" rx="6.34" ry="3.63"/><path d="M119.33,62.74a2.17,2.17,0,0,1-2.17-2.17V46.73a2.17,2.17,0,0,1,4.34,0V60.57A2.17,2.17,0,0,1,119.33,62.74Z"/><path d="M73.74,62.74a2.17,2.17,0,0,1-2.17-2.17V46.73a2.17,2.17,0,0,1,4.34,0V60.57A2.17,2.17,0,0,1,73.74,62.74Z"/></svg>