<svg id="Hukum_Pidana" data-name="Hukum Pidana" xmlns="http://www.w3.org/2000/svg" viewBox="0 0 192 192"><defs><style>.cls-1{fill:#fff;}.cls-2{fill:#069DD8;}.cls-3{fill:#069DD8;}</style></defs><path class="cls-1" d="M69.63,76.77l17-3.89a6.26,6.26,0,0,0,4.71-7.5L87.82,50.15l44.11-10.09a5.46,5.46,0,0,1,6.55,4.1l19.92,87.08a5.45,5.45,0,0,1-4.1,6.54L92.44,151.94a5.46,5.46,0,0,1-6.54-4.11Z"/><path d="M91.21,153.54a6.93,6.93,0,0,1-6.73-5.38L68.22,77.09a1.45,1.45,0,0,1,1.09-1.74l17-3.88a4.83,4.83,0,0,0,3.62-5.77L86.41,50.48a1.46,1.46,0,0,1,.18-1.1,1.45,1.45,0,0,1,.91-.65l44.11-10.09a6.94,6.94,0,0,1,8.29,5.2l19.92,87.08a6.91,6.91,0,0,1-5.2,8.28L92.77,153.36A6.92,6.92,0,0,1,91.21,153.54ZM71.38,77.86l15.94,69.65a4,4,0,0,0,4.8,3L154,136.36a4,4,0,0,0,3-4.8L137.06,44.49a4,4,0,0,0-4.8-3L89.57,51.25l3.16,13.8a7.73,7.73,0,0,1-5.81,9.25Z"/><path class="cls-1" d="M86.6,72.88l-17,3.89L87.82,50.15l3.49,15.23A6.26,6.26,0,0,1,86.6,72.88Z"/><path d="M69.63,78.22a1.47,1.47,0,0,1-1.2-.63,1.45,1.45,0,0,1,0-1.64L86.62,49.33a1.47,1.47,0,0,1,1.47-.61,1.44,1.44,0,0,1,1.15,1.11l3.49,15.22a7.73,7.73,0,0,1-5.81,9.25L70,78.19A1.84,1.84,0,0,1,69.63,78.22Zm17.52-24.5L72.94,74.52l13.33-3h0a4.83,4.83,0,0,0,3.62-5.77Z"/><path class="cls-1" d="M36.46,128.58l19.69-9.89s-4.07-15.32,7.49-21.12L90,84.32s10.7-.31,4.06,8.09L75.8,101.6l7.86,36.82S81.94,144.11,68,139.5L47.2,150a5.45,5.45,0,0,1-7.33-2.43L34,135.9A5.46,5.46,0,0,1,36.46,128.58Z"/><path class="cls-2" d="M44.76,152a6.93,6.93,0,0,1-6.19-3.81l-5.84-11.63a6.93,6.93,0,0,1,3.08-9.29h0L54.5,117.9c-.7-3.89-2-16.36,8.49-21.64l27-13.4c.61,0,5.73-.07,7.3,3.07,1,1.94.29,4.42-2,7.38l-.49.4-17.3,8.68,7.71,36.09-.11.36a5.27,5.27,0,0,1-2.71,2.86c-3.1,1.6-7.86,1.39-14.19-.63l-20.31,10.2A7,7,0,0,1,44.76,152Zm-7.64-22.12a4,4,0,0,0-1.78,5.37l5.83,11.63a4,4,0,0,0,5.38,1.78l21.38-10.73.57.19c10.18,3.37,13,.93,13.63.08l-8-37.4,19-9.54c1.36-1.8,1.93-3.25,1.54-4-.5-1-2.75-1.44-4.31-1.46L64.3,98.87c-10.36,5.19-6.89,18.87-6.74,19.45l.3,1.14L37.12,129.88Z"/><path class="cls-3" d="M122.34,109.32a.73.73,0,0,1-.54-1.21c6.84-7.51,17-4.83,17.44-4.71a.72.72,0,0,1,.51.89.71.71,0,0,1-.89.51c-.1,0-9.75-2.55-16,4.29A.74.74,0,0,1,122.34,109.32Z"/><path class="cls-3" d="M120.66,117.71a.92.92,0,0,1-.28,0,.74.74,0,0,1-.39-1c.14-.32,3.4-7.88,11.26-10a16,16,0,0,1,14,3.11.73.73,0,0,1-1,1.1s-5.54-4.73-12.63-2.8-10.26,9.08-10.29,9.15A.73.73,0,0,1,120.66,117.71Z"/><path class="cls-3" d="M133.22,132.25a.75.75,0,0,1-.61-.32.73.73,0,0,1,.2-1c5.89-3.95,5.23-8.38,4.88-9.64-.49-1.81-1.66-2.94-2.51-3a2.71,2.71,0,0,0-2.22.76,4.24,4.24,0,0,0-1.11,3.1h0a4.53,4.53,0,0,1-.79,3.49,5,5,0,0,1-4.1,1.62h0a3.63,3.63,0,0,1-3.39-1.85c-1.56-2.76-.09-7.8,1.17-9.84,2-3.27,8.59-8.59,16.13-4.26,4.44,2.56,6.32,6.83,5.6,12.69a3,3,0,0,0,0,.4.67.67,0,0,1-.53.82.77.77,0,0,1-.89-.58,1.89,1.89,0,0,1,0-.82c.24-1.95,1-7.88-4.88-11.25-7.26-4.19-13,1.9-14.17,3.76s-2.28,6.32-1.13,8.37a2.22,2.22,0,0,0,2.12,1.11h0a3.7,3.7,0,0,0,3-1.08,3.16,3.16,0,0,0,.49-2.39,5.68,5.68,0,0,1,1.53-4.33,4.33,4.33,0,0,1,3.33-1.17c1.63.09,3.2,1.76,3.83,4,.41,1.5,1.22,6.75-5.47,11.24A.78.78,0,0,1,133.22,132.25Z"/><path class="cls-3" d="M140.4,130.46a.73.73,0,0,1-.64-1.09s2.61-4.68,1.85-8c-.29-1.23-1.22-4.26-3.71-5.71a6.87,6.87,0,0,0-5.58-.36c-5.73,1.73-4.31,7.39-4.24,7.63a.73.73,0,0,1-1.41.38c0-.07-1.86-7.26,5.23-9.4a8.3,8.3,0,0,1,6.73.49c3,1.73,4.07,5.22,4.39,6.64.9,3.87-1.87,8.84-2,9A.71.71,0,0,1,140.4,130.46Z"/><path class="cls-3" d="M127.79,130.62a.72.72,0,0,1-.72-.72.73.73,0,0,1,.71-.74,5.91,5.91,0,0,0,4.62-1.84c2-2.3,1.59-6,1.59-6.09a.74.74,0,0,1,.63-.81.71.71,0,0,1,.81.64c0,.18.51,4.41-1.93,7.21a7.31,7.31,0,0,1-5.7,2.35Z"/></svg>