<svg id="Hukum_Pidana" data-name="Hukum Pidana" xmlns="http://www.w3.org/2000/svg" viewBox="0 0 192 192"><defs><style>.cls-1{fill:#32d320;}.cls-2{fill:#fff;}</style></defs><rect class="cls-1" x="117.49" y="32.82" width="39.93" height="36.36"/><rect x="116.17" y="32.82" width="2.66" height="125.53"/><circle class="cls-2" cx="83.76" cy="64.53" r="13.5"/><path d="M83.76,79.36A14.83,14.83,0,1,1,98.59,64.53,14.84,14.84,0,0,1,83.76,79.36Zm0-27A12.17,12.17,0,1,0,95.93,64.53,12.18,12.18,0,0,0,83.76,52.36Z"/><rect class="cls-1" x="69.13" y="132.41" width="14.64" height="25.94"/><path d="M85.1,159.68H67.8v-28.6H85.1ZM70.46,157h12V133.74h-12Z"/><rect class="cls-1" x="83.77" y="132.41" width="14.64" height="25.94"/><path d="M99.74,159.68H82.44v-28.6h17.3ZM85.1,157h12V133.74h-12Z"/><path d="M70.27,67.19a2.66,2.66,0,0,1-2.66-2.66A16.17,16.17,0,0,1,83.76,48.38a2.66,2.66,0,1,1,0,5.31A10.85,10.85,0,0,0,72.93,64.53,2.66,2.66,0,0,1,70.27,67.19Z"/><circle class="cls-2" cx="50.16" cy="64.53" r="13.5"/><path d="M50.16,79.36A14.83,14.83,0,1,1,65,64.53,14.84,14.84,0,0,1,50.16,79.36Zm0-27A12.17,12.17,0,1,0,62.33,64.53,12.18,12.18,0,0,0,50.16,52.36Z"/><rect class="cls-1" x="35.52" y="132.41" width="14.64" height="25.94"/><path d="M51.5,159.68H34.19v-28.6H51.5ZM36.85,157h12V133.74h-12Z"/><rect class="cls-1" x="50.17" y="132.41" width="14.64" height="25.94"/><path d="M66.14,159.68H48.84v-28.6h17.3ZM51.5,157h12V133.74h-12Z"/><path d="M36.67,67.19A2.66,2.66,0,0,1,34,64.53,16.16,16.16,0,0,1,50.16,48.38a2.66,2.66,0,1,1,0,5.31A10.86,10.86,0,0,0,39.32,64.53,2.66,2.66,0,0,1,36.67,67.19Z"/><path class="cls-2" d="M46.17,84.38h8A10.67,10.67,0,0,1,64.82,95V126.3a5.39,5.39,0,0,1-5.39,5.39H40.89a5.39,5.39,0,0,1-5.39-5.39V95A10.67,10.67,0,0,1,46.17,84.38Z"/><path d="M66.15,133h-32V98.42A15.39,15.39,0,0,1,49.54,83.05h1.24A15.39,15.39,0,0,1,66.15,98.42Zm-29.32-2.66H63.49V98.42A12.72,12.72,0,0,0,50.78,85.71H49.54A12.72,12.72,0,0,0,36.83,98.42Z"/><path class="cls-2" d="M84.38,84.38H83.15a14,14,0,0,0-14,14v33.26H98.42V98.42h16.92a7,7,0,0,0,7-7h0a7,7,0,0,0-7-7Z"/><path d="M99.75,133h-32V98.42A15.38,15.38,0,0,1,83.15,83.05h32.19a8.35,8.35,0,0,1,0,16.7H99.75Zm-29.31-2.66H97.09V97.09h18.25a5.69,5.69,0,0,0,0-11.38H83.15A12.72,12.72,0,0,0,70.44,98.42Z"/><path class="cls-2" d="M145.53,38.5c-7.82,0-7.82,10.08-7.82,10.08s0-10.08-7.82-10.08-7.52,4.2-7.52,9.66,6.81,9.65,15.34,16.37c8.53-6.72,15.34-10.91,15.34-16.37S153.35,38.5,145.53,38.5Z"/></svg>