<svg id="Hukum_Pidana" data-name="Hukum Pidana" xmlns="http://www.w3.org/2000/svg" viewBox="0 0 192 192"><defs><style>.cls-1{fill:#fff;}.cls-2{fill:#32d320;}</style></defs><rect class="cls-1" x="48.86" y="75.2" width="94.27" height="84.84"/><path d="M140,78.31v78.63H52V78.31H140m3.11-3.11H48.86V160h94.28V75.2Z"/><rect class="cls-1" x="102.17" y="31.96" width="40.97" height="34.95"/><path d="M140,35.06V63.8H105.28V35.06H140m3.11-3.1h-41V66.91h41V32Z"/><path class="cls-2" d="M86.72,106.54H68.07a6.22,6.22,0,0,1,0-12.43H86.72a6.22,6.22,0,0,1,0,12.43Z"/><path class="cls-2" d="M126,106.54H107.35a6.22,6.22,0,0,1,0-12.43H126a6.22,6.22,0,1,1,0,12.43Z"/><path class="cls-2" d="M86.72,131.09H68.07a6.22,6.22,0,0,1,0-12.43H86.72a6.22,6.22,0,0,1,0,12.43Z"/><path class="cls-2" d="M126,131.09H107.35a6.22,6.22,0,0,1,0-12.43H126a6.22,6.22,0,1,1,0,12.43Z"/><path d="M118.55,59.91a6.32,6.32,0,0,1-3.24.74,6.18,6.18,0,0,1-3-.74A7,7,0,0,1,110,57.84a10.19,10.19,0,0,1-1.51-3.18,14.45,14.45,0,0,1-.54-4.06,14.61,14.61,0,0,1,.54-4.09A10.14,10.14,0,0,1,110,43.32a7.06,7.06,0,0,1,2.33-2,6.28,6.28,0,0,1,3-.73,6.7,6.7,0,0,1,3.2.69A6.35,6.35,0,0,1,120.57,43l-2.32,3.12a4,4,0,0,0-1.09-1,2.86,2.86,0,0,0-1.52-.38,2.52,2.52,0,0,0-1.5.46,4,4,0,0,0-1.08,1.25,6.88,6.88,0,0,0-.66,1.89,12.39,12.39,0,0,0-.21,2.33,12.13,12.13,0,0,0,.21,2.32,7,7,0,0,0,.66,1.89,3.59,3.59,0,0,0,1.1,1.26,2.49,2.49,0,0,0,1.5.46,2.63,2.63,0,0,0,1.51-.43,3.54,3.54,0,0,0,1-1l2.41,3A6.63,6.63,0,0,1,118.55,59.91Z"/><path d="M130.84,60.14h-5.48l-4.6-19.08h4.87l2.59,14h.05l2.57-14h4.68Z"/><rect x="130.23" y="66.91" width="3.11" height="8.29"/><rect x="115.69" y="66.91" width="3.11" height="8.29"/></svg>