<svg id="Hukum_Pidana" data-name="Hukum Pidana" xmlns="http://www.w3.org/2000/svg" viewBox="0 0 192 192"><defs><style>.cls-1{fill:#E62968;}.cls-2{fill:#fff;}</style></defs><polygon class="cls-1" points="117.66 54.06 150.61 54.06 117.66 20.04 117.66 54.06"/><path class="cls-2" d="M49.69,171.57a7.81,7.81,0,0,1-7.8-7.8V28.34a7.81,7.81,0,0,1,7.8-7.8h67.47V54.06a.5.5,0,0,0,.5.5h32.45V163.77a7.81,7.81,0,0,1-7.8,7.8Z"/><path class="cls-1" d="M116.66,21v33a1,1,0,0,0,1,1h32V163.77a7.31,7.31,0,0,1-7.3,7.3H49.69a7.31,7.31,0,0,1-7.3-7.3V28.34a7.31,7.31,0,0,1,7.3-7.3h67m1-1h-68a8.3,8.3,0,0,0-8.3,8.3V163.77a8.3,8.3,0,0,0,8.3,8.3h92.62a8.3,8.3,0,0,0,8.3-8.3V54.06h-33V20Z"/><path d="M137.15,140.67a17.69,17.69,0,0,1-1.48,7.21,18.76,18.76,0,0,1-34.45,0,18.42,18.42,0,0,1,0-14.47,18.71,18.71,0,0,1,17.27-11.3,18.22,18.22,0,0,1,7.24,1.45,18.88,18.88,0,0,1,5.93,4,18.66,18.66,0,0,1,4,5.88A17.82,17.82,0,0,1,137.15,140.67Zm-3,0a15.44,15.44,0,0,0-1.24-6.13,15.78,15.78,0,0,0-3.37-5,16.18,16.18,0,0,0-5-3.4,15.58,15.58,0,0,0-12.23,0,16,16,0,0,0-8.42,8.42,15.64,15.64,0,0,0,0,12.23,16.2,16.2,0,0,0,3.35,5,15.63,15.63,0,0,0,5,3.37,15.87,15.87,0,0,0,12.25,0,15.83,15.83,0,0,0,5-3.37,16.34,16.34,0,0,0,3.4-5A14.94,14.94,0,0,0,134.2,140.67Zm-10.44-4.29a4.73,4.73,0,0,0-1.89-1.4,6.48,6.48,0,0,0-2.54-.52,5.38,5.38,0,0,0-2.41.52,5.31,5.31,0,0,0-1.75,1.4,6.45,6.45,0,0,0-1.08,2,7.09,7.09,0,0,0-.37,2.29,7.3,7.3,0,0,0,.37,2.31,5.78,5.78,0,0,0,1.11,2,5.46,5.46,0,0,0,1.84,1.43,5.85,5.85,0,0,0,2.59.54,6.45,6.45,0,0,0,2.43-.47,5.1,5.1,0,0,0,1.9-1.3l3.54,3.74a9.66,9.66,0,0,1-3.54,2.28,12.5,12.5,0,0,1-4.58.82,13.22,13.22,0,0,1-4.53-.77,11,11,0,0,1-3.72-2.19,10,10,0,0,1-2.51-3.54,12.22,12.22,0,0,1-.91-4.82,11.43,11.43,0,0,1,.94-4.7,10.62,10.62,0,0,1,2.51-3.55,11.07,11.07,0,0,1,3.72-2.24,13,13,0,0,1,4.5-.79,11.94,11.94,0,0,1,4.65.92,8.53,8.53,0,0,1,3.52,2.58Z"/></svg>