<svg id="Hukum_Pidana" data-name="Hukum Pidana" xmlns="http://www.w3.org/2000/svg" viewBox="0 0 192 192"><defs><style>.cls-1{fill:#fff;}.cls-2{fill:#069DD8;}</style></defs><polygon class="cls-1" points="138.29 116.75 117.51 105.77 117.51 84.96 138.29 96 138.29 116.75"/><path d="M138.29,118a1.25,1.25,0,0,1-.56-.14l-20.78-11a1.21,1.21,0,0,1-.64-1.06V85a1.18,1.18,0,0,1,.58-1,1.16,1.16,0,0,1,1.18,0l20.78,11a1.2,1.2,0,0,1,.64,1.06v20.74a1.18,1.18,0,0,1-.58,1A1.15,1.15,0,0,1,138.29,118ZM118.71,105l18.38,9.72v-18L118.71,87Z"/><polygon class="cls-2" points="135.19 110.81 126.46 106.45 126.46 96.36 135.19 100.72 135.19 110.81"/><polygon class="cls-1" points="138.29 96.32 117.51 84.96 137.68 73.48 158.61 84.84 138.29 96.32"/><path d="M138.29,97.52a1.3,1.3,0,0,1-.58-.14L116.93,86a1.2,1.2,0,0,1,0-2.1l20.16-11.49a1.22,1.22,0,0,1,1.17,0l20.93,11.36a1.19,1.19,0,0,1,.63,1,1.21,1.21,0,0,1-.61,1L138.88,97.37A1.23,1.23,0,0,1,138.29,97.52ZM120,84.94l18.31,10,17.86-10.09-18.45-10Z"/><polygon class="cls-1" points="51.31 117.97 33.2 108.8 59.6 93.76 77.71 102.93 51.31 117.97"/><path d="M51.31,119.17a1.13,1.13,0,0,1-.54-.13l-18.11-9.17a1.2,1.2,0,0,1,0-2.12L59,92.72a1.21,1.21,0,0,1,1.14,0l18.11,9.17a1.2,1.2,0,0,1,0,2.11L51.9,119A1.14,1.14,0,0,1,51.31,119.17ZM35.73,108.74l15.54,7.87L75.17,103,59.63,95.12Z"/><polygon class="cls-1" points="51.31 113.17 33.2 104 59.6 88.96 77.71 98.14 51.31 113.17"/><path d="M51.31,114.37a1.25,1.25,0,0,1-.54-.12l-18.11-9.18a1.19,1.19,0,0,1,0-2.11L59,87.92a1.21,1.21,0,0,1,1.14,0l18.11,9.18a1.2,1.2,0,0,1,0,2.11l-26.4,15A1.23,1.23,0,0,1,51.31,114.37ZM35.73,103.94l15.54,7.87L75.17,98.2,59.63,90.32Z"/><polygon class="cls-1" points="51.31 108.38 33.2 99.2 59.6 84.17 77.71 93.34 51.31 108.38"/><path d="M51.31,109.58a1.13,1.13,0,0,1-.54-.13l-18.11-9.18a1.16,1.16,0,0,1-.66-1,1.2,1.2,0,0,1,.61-1.08L59,83.12a1.21,1.21,0,0,1,1.14,0l18.11,9.17a1.2,1.2,0,0,1,0,2.11l-26.4,15A1.14,1.14,0,0,1,51.31,109.58ZM35.73,99.14,51.27,107,75.17,93.4,59.63,85.53Z"/><polygon class="cls-1" points="51.31 103.58 33.2 94.41 59.6 79.37 77.71 88.55 51.31 103.58"/><path d="M51.31,104.78a1.13,1.13,0,0,1-.54-.13L32.66,95.48a1.19,1.19,0,0,1,0-2.11L59,78.33a1.21,1.21,0,0,1,1.14,0l18.11,9.18a1.19,1.19,0,0,1,.65,1,1.2,1.2,0,0,1-.6,1.07l-26.4,15A1.23,1.23,0,0,1,51.31,104.78ZM35.73,94.35l15.54,7.87,23.9-13.61L59.63,80.73Z"/><polygon class="cls-1" points="138.29 116.75 158.8 105.39 158.8 84.96 138.29 96.26 138.29 116.75"/><path d="M138.29,118a1.21,1.21,0,0,1-1.2-1.2V96.26a1.2,1.2,0,0,1,.62-1.05l20.51-11.3a1.23,1.23,0,0,1,1.19,0,1.2,1.2,0,0,1,.59,1v20.43a1.21,1.21,0,0,1-.62,1L138.87,117.8A1.19,1.19,0,0,1,138.29,118Zm1.2-21v17.74l18.11-10V87Z"/><path class="cls-2" d="M61.57,75.06a2.39,2.39,0,0,1-2-3.69,40.25,40.25,0,0,1,66-2.65,2.4,2.4,0,0,1-3.82,2.9A35.44,35.44,0,0,0,63.59,74,2.39,2.39,0,0,1,61.57,75.06Z"/><path class="cls-2" d="M124,73.89h-.23l-16.88-1.63a2.39,2.39,0,0,1-2.15-2.62,2.36,2.36,0,0,1,2.62-2.15l14.28,1.38.23-14a2.41,2.41,0,0,1,2.4-2.36h0a2.41,2.41,0,0,1,2.36,2.44l-.27,16.61a2.38,2.38,0,0,1-2.4,2.35Z"/><path class="cls-2" d="M92.33,139.23a39.93,39.93,0,0,1-32.08-15.95,2.4,2.4,0,1,1,3.82-2.89,35.45,35.45,0,0,0,58.15-2.34,2.4,2.4,0,1,1,4,2.58A40.06,40.06,0,0,1,92.33,139.23Z"/><path class="cls-2" d="M61.57,139.51h0a2.4,2.4,0,0,1-2.36-2.44l.27-16.61a2.38,2.38,0,0,1,.8-1.74,2.35,2.35,0,0,1,1.83-.6L79,119.75a2.4,2.4,0,1,1-.46,4.77L64.2,123.14l-.23,14A2.4,2.4,0,0,1,61.57,139.51Z"/><ellipse class="cls-2" cx="55.63" cy="91.31" rx="7.01" ry="4"/></svg>