<svg id="Hukum_Pidana" data-name="Hukum Pidana" xmlns="http://www.w3.org/2000/svg" viewBox="0 0 192 192"><defs><style>.cls-1{fill:#fff;}.cls-2{fill:#069DD8;}</style></defs><circle class="cls-1" cx="69.64" cy="50.58" r="15.52"/><path d="M69.64,67.63a17,17,0,1,1,17-17A17.07,17.07,0,0,1,69.64,67.63Zm0-31a14,14,0,1,0,14,14A14,14,0,0,0,69.64,36.59Z"/><path class="cls-1" d="M63.07,87.28a6.87,6.87,0,0,1,6.71-8.51,7,7,0,0,1,6.71,5.32,20.29,20.29,0,0,0,10,12.44V90.26a16.86,16.86,0,0,0-33.72,0v38.15H86.5V111.32A34.09,34.09,0,0,1,63.07,87.28Z"/><path d="M88,129.93H51.25V90.26a18.39,18.39,0,1,1,36.77,0v8.82l-2.25-1.2A21.87,21.87,0,0,1,75,84.5a5.51,5.51,0,0,0-5.24-4.21,5.39,5.39,0,0,0-4.29,2.12,5.19,5.19,0,0,0-.94,4.49h0a32.63,32.63,0,0,0,22.37,22.95l1.1.32Zm-33.71-3.05H85V112.45A35.75,35.75,0,0,1,61.59,87.67h0a8.21,8.21,0,0,1,1.48-7.13,8.42,8.42,0,0,1,6.71-3.3A8.53,8.53,0,0,1,78,83.68a18.8,18.8,0,0,0,7,10.09V90.26a15.33,15.33,0,0,0-30.66,0Z"/><rect class="cls-2" x="52.81" y="128.64" width="16.84" height="29.83"/><path d="M71.17,160H51.28V127.11H71.17Zm-16.84-3.06H68.12V130.16H54.33Z"/><rect class="cls-2" x="69.65" y="128.64" width="16.84" height="29.83"/><path d="M88,160H68.12V127.11H88Zm-16.84-3.06H85V130.16H71.17Z"/><circle class="cls-1" cx="122.36" cy="50.58" r="15.52"/><path d="M122.36,67.63a17,17,0,1,1,17-17A17.07,17.07,0,0,1,122.36,67.63Zm0-31a14,14,0,1,0,14,14A14,14,0,0,0,122.36,36.59Z"/><path d="M54.12,53.63a3.05,3.05,0,0,1-3.06-3.05A18.59,18.59,0,0,1,69.64,32a3.06,3.06,0,0,1,0,6.11A12.48,12.48,0,0,0,57.18,50.58,3.05,3.05,0,0,1,54.12,53.63Z"/><path d="M137.88,53.63a3.05,3.05,0,0,1-3.06-3.05,12.48,12.48,0,0,0-12.46-12.47,3.06,3.06,0,0,1,0-6.11,18.6,18.6,0,0,1,18.58,18.58A3.05,3.05,0,0,1,137.88,53.63Z"/><rect class="cls-1" x="105.53" y="128.64" width="16.84" height="29.83"/><path d="M123.9,160H104V127.11h19.9Zm-16.84-3.06h13.78V130.16H107.06Z"/><rect class="cls-1" x="122.37" y="128.64" width="16.84" height="29.83"/><path d="M140.74,160h-19.9V127.11h19.9Zm-16.84-3.06h13.78V130.16H123.9Z"/><path class="cls-2" d="M122.36,73.4a16.85,16.85,0,0,0-16.85,16.86v6.27a20.31,20.31,0,0,0,10-12.44,7,7,0,0,1,6.71-5.32,6.87,6.87,0,0,1,6.71,8.51,34.1,34.1,0,0,1-23.42,24v17.09h33.71V90.26A16.86,16.86,0,0,0,122.36,73.4Z"/><path d="M140.75,129.93H104V110.17l1.1-.32A32.63,32.63,0,0,0,127.45,86.9a5.16,5.16,0,0,0-.93-4.49,5.42,5.42,0,0,0-4.3-2.12A5.52,5.52,0,0,0,117,84.5a21.87,21.87,0,0,1-10.75,13.38L104,99.08V90.26a18.39,18.39,0,1,1,36.77,0ZM107,126.88h30.66V90.26a15.33,15.33,0,0,0-30.66,0v3.51a18.8,18.8,0,0,0,7-10.09,8.53,8.53,0,0,1,8.18-6.44,8.44,8.44,0,0,1,6.72,3.3,8.24,8.24,0,0,1,1.47,7.13A35.75,35.75,0,0,1,107,112.45Z"/><path class="cls-1" d="M122.22,78.77a7,7,0,0,0-6.71,5.32,20.25,20.25,0,0,1-39,0,7,7,0,0,0-6.71-5.32h0a6.87,6.87,0,0,0-6.71,8.51,34,34,0,0,0,65.86,0,6.87,6.87,0,0,0-6.71-8.51Z"/><path d="M96,114.22A35.58,35.58,0,0,1,61.59,87.67a8.21,8.21,0,0,1,1.48-7.13,8.42,8.42,0,0,1,6.71-3.3A8.53,8.53,0,0,1,78,83.68a18.73,18.73,0,0,0,36.08,0,8.53,8.53,0,0,1,8.18-6.44,8.44,8.44,0,0,1,6.72,3.3,8.24,8.24,0,0,1,1.47,7.13A35.58,35.58,0,0,1,96,114.22ZM69.78,80.29a5.39,5.39,0,0,0-4.29,2.12,5.19,5.19,0,0,0-.94,4.49,32.52,32.52,0,0,0,62.9,0,5.16,5.16,0,0,0-.93-4.49,5.42,5.42,0,0,0-4.3-2.12A5.52,5.52,0,0,0,117,84.5a21.78,21.78,0,0,1-42,0A5.51,5.51,0,0,0,69.78,80.29Z"/><path class="cls-1" d="M96,112.48c-1.69,0-3.06-1.07-3.06-2.38v-8.6c0-1.32,1.37-2.38,3.06-2.38s3.06,1.06,3.06,2.38v8.6C99.06,111.41,97.69,112.48,96,112.48Z"/><path d="M96,114c-2.53,0-4.58-1.75-4.58-3.9v-8.6c0-2.16,2-3.91,4.58-3.91s4.59,1.75,4.59,3.91v8.6C100.59,112.25,98.53,114,96,114Zm0-13.35c-.92,0-1.53.51-1.53.85v8.6c0,.35.6.85,1.53.85s1.53-.51,1.53-.85v-8.6C97.53,101.16,96.92,100.65,96,100.65Z"/></svg>