<svg id="Hukum_Pidana" data-name="Hukum Pidana" xmlns="http://www.w3.org/2000/svg" viewBox="0 0 192 192"><defs><style>.cls-1{fill:#fff;}.cls-2{fill:#32d320;}</style></defs><rect class="cls-1" x="49.87" y="32.04" width="92.27" height="127.92"/><path d="M139.09,35.08V156.92H52.91V35.08h86.18m3-3H49.87V160h92.26V32Z"/><path class="cls-2" d="M86.92,59.54H68.67a6.08,6.08,0,1,1,0-12.16H86.92a6.08,6.08,0,0,1,0,12.16Z"/><path class="cls-2" d="M86.92,83.57H68.67a6.09,6.09,0,1,1,0-12.17H86.92a6.09,6.09,0,0,1,0,12.17Z"/><path class="cls-2" d="M125.36,83.57H107.11a6.09,6.09,0,0,1,0-12.17h18.25a6.09,6.09,0,0,1,0,12.17Z"/><path class="cls-2" d="M86.92,107.59H68.67a6.08,6.08,0,1,1,0-12.16H86.92a6.08,6.08,0,0,1,0,12.16Z"/><path class="cls-2" d="M125.36,107.59H107.11a6.08,6.08,0,0,1,0-12.16h18.25a6.08,6.08,0,0,1,0,12.16Z"/><path class="cls-2" d="M86.92,131.62H68.67a6.08,6.08,0,1,1,0-12.16H86.92a6.08,6.08,0,0,1,0,12.16Z"/><path class="cls-2" d="M125.36,131.62H107.11a6.08,6.08,0,0,1,0-12.16h18.25a6.08,6.08,0,0,1,0,12.16Z"/><path d="M116.82,49.37a6.83,6.83,0,0,1-.48,2.68,5.45,5.45,0,0,1-1.26,1.88,5.21,5.21,0,0,1-1.8,1.09,6,6,0,0,1-2,.36h-1.82v6.8h-4.14V43.51h5.8a7.47,7.47,0,0,1,2,.29,5.28,5.28,0,0,1,1.85,1,4.84,4.84,0,0,1,1.34,1.81A6.83,6.83,0,0,1,116.82,49.37Zm-4,.07a2.31,2.31,0,0,0-.61-1.81,2.05,2.05,0,0,0-1.48-.56h-1.34V52h1.34a1.91,1.91,0,0,0,1.48-.65A2.59,2.59,0,0,0,112.86,49.44Z"/><path d="M124.78,47.1V62.18h-4.14V47.1h-3.43V43.51h11V47.1Z"/></svg>