<svg id="Hukum_Pidana" data-name="Hukum Pidana" xmlns="http://www.w3.org/2000/svg" viewBox="0 0 192 192"><defs><style>.cls-1{fill:#E62968;}.cls-2{fill:#fff;}</style></defs><polygon class="cls-1" points="117.65 54.02 150.59 54.02 117.65 20 117.65 54.02"/><path class="cls-2" d="M49.7,171.5a7.81,7.81,0,0,1-7.8-7.8V28.3a7.81,7.81,0,0,1,7.8-7.8h67.45V54a.5.5,0,0,0,.5.5H150.1V163.7a7.81,7.81,0,0,1-7.8,7.8Z"/><path class="cls-1" d="M116.65,21V54a1,1,0,0,0,1,1H149.6V163.7a7.31,7.31,0,0,1-7.3,7.3H49.7a7.31,7.31,0,0,1-7.3-7.3V28.3A7.31,7.31,0,0,1,49.7,21h67m1-1H49.7a8.31,8.31,0,0,0-8.3,8.3V163.7a8.31,8.31,0,0,0,8.3,8.3h92.6a8.31,8.31,0,0,0,8.3-8.3V54H117.65V20Z"/><path d="M134.9,140.45a17.7,17.7,0,0,1-1.46,7.16,18.09,18.09,0,0,1-9.82,9.65,18.32,18.32,0,0,1-7.2,1.43,18.68,18.68,0,0,1-7.25-1.43,19,19,0,0,1-5.94-3.86,18.15,18.15,0,0,1-4-5.79,17.54,17.54,0,0,1-1.47-7.16,17.83,17.83,0,0,1,1.47-7.2,18.5,18.5,0,0,1,4-5.87,19.22,19.22,0,0,1,5.94-3.95,18.34,18.34,0,0,1,7.25-1.46,18,18,0,0,1,7.2,1.46,18.44,18.44,0,0,1,9.82,9.82A18,18,0,0,1,134.9,140.45Zm-2.93,0a15.43,15.43,0,0,0-1.22-6.11,16.16,16.16,0,0,0-3.34-5,15.44,15.44,0,0,0-4.93-3.37,14.92,14.92,0,0,0-6.06-1.23,15.26,15.26,0,0,0-6.11,1.23,15.81,15.81,0,0,0-8.38,8.38,15.26,15.26,0,0,0-1.22,6.11,15.35,15.35,0,0,0,4.6,11,16,16,0,0,0,5,3.34,15.43,15.43,0,0,0,6.11,1.22,15.08,15.08,0,0,0,6.06-1.22,15.69,15.69,0,0,0,8.27-8.3A15.26,15.26,0,0,0,132,140.45Zm-11.64,10.18-4.07-7.82H113.9v7.82h-5.79V129.46h9.12a15.54,15.54,0,0,1,3.1.32,9.1,9.1,0,0,1,2.81,1.1,6,6,0,0,1,2,2.08,6.08,6.08,0,0,1,.77,3.17,5.69,5.69,0,0,1-1.18,3.63,6.53,6.53,0,0,1-3.05,2.16l5.37,8.71Zm-.49-14.42a1.64,1.64,0,0,0-.94-1.54,4,4,0,0,0-1.91-.49H113.9v4.4H117a3.21,3.21,0,0,0,2-.65A2.07,2.07,0,0,0,119.84,136.21Z"/></svg>