<svg width="54" height="44" viewBox="0 0 54 44" fill="none" xmlns="http://www.w3.org/2000/svg">
<g clip-path="url(#clip0)">
<path d="M48.465 0.798889H37.754C34.8482 0.956615 32.0833 2.10179 29.917 4.04489L11.924 22.0369C11.0654 22.899 10.5834 24.0661 10.5834 25.2829C10.5834 26.4996 11.0654 27.6668 11.924 28.5289L25.324 41.9289C26.1869 42.7863 27.354 43.2675 28.5705 43.2675C29.787 43.2675 30.9541 42.7863 31.817 41.9289L49.81 23.9369C51.753 21.7708 52.8985 19.0064 53.057 16.1009V5.38889C53.0543 4.17201 52.5696 3.00575 51.709 2.14548C50.8483 1.2852 49.6819 0.801003 48.465 0.798889ZM42.344 16.0989C41.436 16.0989 40.5484 15.8296 39.7935 15.3252C39.0385 14.8208 38.4501 14.1039 38.1026 13.265C37.7551 12.4262 37.6641 11.5031 37.8411 10.6126C38.0182 9.72204 38.4554 8.904 39.0973 8.2619C39.7393 7.6198 40.5572 7.18248 41.4477 7.00522C42.3382 6.82796 43.2613 6.91872 44.1002 7.26605C44.9391 7.61338 45.6562 8.20169 46.1608 8.95654C46.6654 9.7114 46.9348 10.5989 46.935 11.5069C46.9357 12.1102 46.8174 12.7077 46.5869 13.2653C46.3565 13.8229 46.0185 14.3296 45.5921 14.7564C45.1657 15.1833 44.6594 15.5219 44.1021 15.7529C43.5447 15.984 42.9473 16.1029 42.344 16.1029V16.0989ZM5.16898 26.3619L21.542 42.7339C20.6733 43.1921 19.681 43.361 18.7097 43.2158C17.7383 43.0707 16.8387 42.6191 16.142 41.9269L2.742 28.5269C1.88342 27.6648 1.40137 26.4976 1.40137 25.2809C1.40137 24.0642 1.88342 22.897 2.742 22.0349L20.735 4.04288C22.9012 2.09957 25.6661 0.954363 28.572 0.796875L24.32 5.04889L19.433 9.93588L5.16898 24.1989C4.88227 24.4866 4.72131 24.8762 4.72131 25.2824C4.72131 25.6886 4.88227 26.0782 5.16898 26.3659V26.3619Z" fill="white" stroke="black"/>
<path d="M33.9745 17.6295L29.6655 19.524L25.6609 17.0491C25.4988 16.9493 25.3121 16.8967 25.1218 16.8974C24.9315 16.8981 24.7451 16.952 24.5838 17.0529C24.4224 17.1539 24.2925 17.298 24.2087 17.4688C24.1249 17.6397 24.0905 17.8306 24.1094 18.02L24.5792 22.7025L20.9836 25.7415C20.8385 25.8645 20.7308 26.0256 20.6725 26.2066C20.6141 26.3877 20.6076 26.5814 20.6535 26.7659C20.6994 26.9504 20.796 27.1184 20.9324 27.251C21.0688 27.3835 21.2395 27.4753 21.4252 27.516L26.0253 28.5178L27.8091 32.8747C27.8813 33.0505 28.0012 33.2026 28.1553 33.3139C28.3094 33.4252 28.4914 33.4913 28.681 33.5046C28.8706 33.5179 29.0602 33.4781 29.2283 33.3894C29.3964 33.3008 29.5364 33.167 29.6326 33.0031L32.0027 28.9352L36.6957 28.5866C36.8855 28.5724 37.0675 28.5054 37.2213 28.3933C37.3751 28.2811 37.4945 28.1282 37.5659 27.9518C37.6374 27.7754 37.6582 27.5826 37.6259 27.395C37.5936 27.2074 37.5095 27.0326 37.3831 26.8903L34.2517 23.3751L35.3762 18.8062C35.4212 18.6212 35.4136 18.4274 35.3543 18.2466C35.295 18.0658 35.1863 17.9051 35.0406 17.7827C34.8948 17.6604 34.7177 17.5812 34.5294 17.5541C34.341 17.527 34.1488 17.5531 33.9745 17.6295Z" fill="#E62968"/>
</g>
<defs>
<clipPath id="clip0">
<rect width="52.654" height="43.583" fill="white" transform="translate(0.904297 0.298828)"/>
</clipPath>
</defs>
</svg>
