<svg width="50" height="50" viewBox="0 0 50 50" fill="none" xmlns="http://www.w3.org/2000/svg">
<path d="M25 49.0909C38.8071 49.0909 50 38.1015 50 24.5455C50 10.9894 38.8071 0 25 0C11.1929 0 0 10.9894 0 24.5455C0 38.1015 11.1929 49.0909 25 49.0909Z" fill="#A9EF9A"/>
<path d="M24.9705 46.4974L9.18433 37.5771V17.3594L24.9705 26.2797V46.4974Z" fill="#A9EF9A"/>
<path d="M24.9707 46.8296C24.9131 46.83 24.8564 46.8155 24.8063 46.7876L9.01677 37.8641C8.96705 37.8359 8.92572 37.7954 8.89686 37.7467C8.86801 37.698 8.85264 37.6427 8.8523 37.5863V17.3589C8.85207 17.302 8.86716 17.2461 8.89604 17.1967C8.92492 17.1474 8.96657 17.1064 9.01677 17.0779C9.06678 17.0496 9.1235 17.0347 9.18124 17.0347C9.23899 17.0347 9.29571 17.0496 9.34572 17.0779L25.1352 26.0015C25.1849 26.0297 25.2263 26.0701 25.2551 26.1189C25.284 26.1676 25.2993 26.2229 25.2997 26.2793V46.5066C25.2999 46.5636 25.2848 46.6195 25.2559 46.6689C25.227 46.7182 25.1854 46.7592 25.1352 46.7876C25.0851 46.8155 25.0283 46.83 24.9707 46.8296ZM9.51019 37.399L24.6418 45.9479V26.4827L9.51019 17.9338V37.399Z" fill="#16284C"/>
<path d="M40.8159 17.4143L25.0297 8.49072L9.18433 17.3594L24.9705 26.2797L40.8159 17.4143Z" fill="white"/>
<path d="M24.9707 26.6022C24.9131 26.6026 24.8564 26.5881 24.8062 26.5602L9.01677 17.6399C8.96657 17.6115 8.92492 17.5705 8.89604 17.5211C8.86716 17.4718 8.85207 17.4158 8.8523 17.3589C8.85207 17.302 8.86716 17.2461 8.89604 17.1967C8.92492 17.1474 8.96657 17.1064 9.01677 17.0779L24.8687 8.20928C24.9187 8.18094 24.9755 8.16602 25.0332 8.16602C25.091 8.16602 25.1477 8.18094 25.1977 8.20928L40.9872 17.1329C41.0374 17.1613 41.079 17.2023 41.1079 17.2516C41.1368 17.301 41.1519 17.3569 41.1516 17.4138C41.1513 17.4702 41.1359 17.5255 41.1071 17.5742C41.0782 17.6229 41.0369 17.6634 40.9872 17.6916L25.1319 26.5602C25.0827 26.5876 25.0272 26.6021 24.9707 26.6022ZM9.83914 17.3589L24.9707 25.9079L40.1549 17.4106L25.0233 8.86168L9.83914 17.3589Z" fill="#16284C"/>
<path d="M35.3487 6.09745L30.4803 3.34577C30.1209 3.14263 29.6957 3.08298 29.2928 3.17918C28.8899 3.27538 28.54 3.52005 28.3158 3.86252L21.0066 15.0049L28.6809 19.3423L35.9013 8.33237C36.0202 8.1516 36.1003 7.94898 36.1368 7.73684C36.1733 7.5247 36.1655 7.30748 36.1138 7.09841C36.0621 6.88933 35.9676 6.69277 35.8361 6.52069C35.7045 6.34861 35.5387 6.20461 35.3487 6.09745Z" fill="#32A326"/>
<path d="M28.6808 19.6653C28.6243 19.6652 28.5688 19.6507 28.5196 19.6234L20.8453 15.2859C20.8062 15.2644 20.7721 15.2352 20.7449 15.2002C20.7178 15.1652 20.6982 15.1251 20.6874 15.0825C20.668 14.9962 20.6833 14.906 20.7301 14.8305L28.0394 3.6882C28.3085 3.27514 28.7295 2.97985 29.2147 2.86375C29.7 2.74766 30.2121 2.81969 30.6446 3.06487L35.5262 5.81332C35.7543 5.9429 35.9533 6.11669 36.1109 6.32411C36.2685 6.53153 36.3815 6.76825 36.4431 7.01988C36.5046 7.27152 36.5134 7.53281 36.4688 7.78788C36.4243 8.04295 36.3274 8.28646 36.1841 8.50363L28.9473 19.5168C28.9185 19.5609 28.8791 19.5975 28.8327 19.6234C28.7863 19.6493 28.7342 19.6637 28.6808 19.6653ZM21.4703 14.8951L28.5755 18.9096L35.6249 8.15805C35.72 8.01485 35.7845 7.85417 35.8145 7.68577C35.8445 7.51736 35.8393 7.34474 35.7993 7.17835C35.7593 7.01195 35.6853 6.85527 35.5819 6.71778C35.4784 6.5803 35.3475 6.46487 35.1973 6.37851L30.3288 3.62683C30.043 3.46413 29.7043 3.41596 29.3832 3.49237C29.0621 3.56878 28.7834 3.76387 28.6051 4.037L21.4703 14.8951Z" fill="#16284C"/>
<path d="M24.9705 46.4974L40.7566 37.5771V17.3594L24.9705 26.2797V46.4974Z" fill="#6ACC6D"/>
<path d="M24.9708 46.8297C24.9132 46.8301 24.8565 46.8156 24.8063 46.7877C24.7561 46.7593 24.7145 46.7183 24.6856 46.6689C24.6567 46.6196 24.6416 46.5636 24.6418 46.5067V26.289C24.6422 26.2327 24.6576 26.1774 24.6864 26.1286C24.7153 26.0799 24.7566 26.0395 24.8063 26.0113L40.5958 17.0877C40.6458 17.0594 40.7025 17.0444 40.7603 17.0444C40.818 17.0444 40.8747 17.0594 40.9247 17.0877C40.9749 17.1162 41.0166 17.1571 41.0455 17.2065C41.0744 17.2558 41.0895 17.3118 41.0892 17.3687V37.5864C41.0889 37.6428 41.0735 37.698 41.0447 37.7468C41.0158 37.7955 40.9745 37.836 40.9247 37.8641L25.1353 46.7877C25.0851 46.8156 25.0284 46.8301 24.9708 46.8297ZM25.2997 26.4828V45.9545L40.4313 37.4055V17.9177L25.2997 26.4828Z" fill="#16284C"/>
</svg>
