<svg width="50" height="50" viewBox="0 0 51 50" fill="none" xmlns="http://www.w3.org/2000/svg">
<g clip-path="url(#clip0)">
<path d="M25.1694 50C38.9766 50 50.1694 38.8071 50.1694 25C50.1694 11.1929 38.9766 0 25.1694 0C11.3623 0 0.169434 11.1929 0.169434 25C0.169434 38.8071 11.3623 50 25.1694 50Z" fill="#A9EF9A"/>
<path d="M17.7366 25.5535V23.9399C17.7366 23.412 17.5268 22.9056 17.1535 22.5323C16.7802 22.1589 16.2738 21.9492 15.7458 21.9492H9.11298C8.8515 21.9491 8.59252 22.0005 8.35092 22.1005C8.10931 22.2005 7.88983 22.3472 7.7049 22.532C7.51997 22.7169 7.37321 22.9364 7.27312 23.178C7.17304 23.4195 7.12158 23.6785 7.12158 23.9399V29.8571C7.12158 30.3028 7.29859 30.7303 7.61379 31.0455C7.92898 31.3607 8.35656 31.5378 8.80232 31.5378V39.4535H16.0565V31.5406H17.7366C18.1588 31.5406 18.5638 31.3729 18.8624 31.0743C19.161 30.7757 19.3287 30.3708 19.3287 29.9485V27.1428C19.3287 26.7205 19.161 26.3156 18.8624 26.017C18.5638 25.7184 18.1588 25.5506 17.7366 25.5506V25.5535Z" fill="white"/>
<path d="M9.71087 29.8575V23.9375C9.71087 23.676 9.76232 23.4171 9.86241 23.1755C9.9625 22.9339 10.1093 22.7145 10.2942 22.5296C10.4791 22.3447 10.6986 22.1981 10.9402 22.0981C11.1818 21.9981 11.4408 21.9467 11.7023 21.9468H9.11299C8.8515 21.9467 8.59252 21.9981 8.35092 22.0981C8.10931 22.1981 7.88983 22.3447 7.7049 22.5296C7.51997 22.7145 7.37321 22.9339 7.27312 23.1755C7.17304 23.4171 7.12158 23.676 7.12158 23.9375V29.8575C7.12149 30.0782 7.16489 30.2968 7.24932 30.5008C7.33375 30.7047 7.45753 30.89 7.61361 31.0461C7.7697 31.2022 7.95505 31.326 8.15901 31.4105C8.36296 31.4949 8.58158 31.5383 8.80232 31.5382V39.4539H11.3916V31.5411C11.1706 31.5412 10.9517 31.4976 10.7476 31.413C10.5435 31.3284 10.358 31.2044 10.2019 31.048C10.0457 30.8916 9.922 30.7059 9.83773 30.5017C9.75347 30.2974 9.7104 30.0785 9.71087 29.8575Z" fill="#6ACC6D"/>
<path d="M16.2201 39.6199H8.63874V31.6971C8.17996 31.6556 7.75322 31.4441 7.44228 31.1043C7.13134 30.7644 6.95863 30.3206 6.95801 29.8599V23.9399C6.95876 23.3687 7.18607 22.8211 7.59007 22.4172C7.99407 22.0133 8.54174 21.7862 9.11298 21.7856H15.7458C16.317 21.7862 16.8646 22.0134 17.2685 22.4172C17.6724 22.8211 17.8996 23.3688 17.9001 23.9399V25.3978C18.3354 25.4388 18.7397 25.6407 19.0342 25.9639C19.3286 26.2871 19.4919 26.7084 19.4923 27.1456V29.9485C19.4917 30.414 19.3065 30.8602 18.9774 31.1894C18.6483 31.5185 18.202 31.7036 17.7366 31.7042H16.2201V39.6199ZM8.9658 39.2928H15.8944V31.3771H17.7379C18.1168 31.3771 18.4803 31.2266 18.7482 30.9587C19.0161 30.6907 19.1665 30.3274 19.1665 29.9485V27.1428C19.1665 26.7639 19.0161 26.4005 18.7482 26.1326C18.4803 25.8647 18.1168 25.7142 17.7379 25.7142H17.5744V23.9371C17.5738 23.4527 17.3812 22.9882 17.0387 22.6457C16.6961 22.3032 16.2317 22.1105 15.7472 22.1099H9.11438C8.6299 22.1105 8.16544 22.3032 7.82279 22.6457C7.48014 22.9882 7.28731 23.4526 7.28655 23.9371V29.8571C7.28712 30.2593 7.44719 30.6448 7.73158 30.9292C8.01598 31.2136 8.40151 31.3736 8.80371 31.3742H8.96728L8.9658 39.2928Z" fill="#16284C"/>
<path d="M17.5094 29.8203H13.7165C13.1275 29.8203 12.5627 29.5864 12.1462 29.1699C11.7298 28.7534 11.4958 28.1886 11.4958 27.5996C11.4958 27.0107 11.7298 26.4458 12.1462 26.0293C12.5627 25.6129 13.1275 25.3789 13.7165 25.3789H17.7365V25.7289H13.7165C13.2203 25.7289 12.7446 25.926 12.3938 26.2768C12.0429 26.6277 11.8458 27.1035 11.8458 27.5996C11.8458 28.0958 12.0429 28.5716 12.3938 28.9224C12.7446 29.2732 13.2203 29.4703 13.7165 29.4703H17.5094V29.8203Z" fill="#16284C"/>
<path d="M13.1495 31.7046H8.80237C8.75899 31.7046 8.71734 31.6874 8.68666 31.6567C8.65599 31.626 8.63879 31.5844 8.63879 31.541C8.63879 31.4976 8.65599 31.456 8.68666 31.4254C8.71734 31.3947 8.75899 31.3774 8.80237 31.3774H13.1495C13.1928 31.3774 13.2345 31.3947 13.2652 31.4254C13.2958 31.456 13.313 31.4976 13.313 31.541C13.313 31.5844 13.2958 31.626 13.2652 31.6567C13.2345 31.6874 13.1928 31.7046 13.1495 31.7046Z" fill="#16284C"/>
<path d="M11.6695 28.4436H8.97301C8.44855 28.4431 7.94577 28.2345 7.57486 27.8638C7.20395 27.493 6.99526 26.9902 6.99451 26.4658V26.1572C6.99451 26.1138 7.0117 26.0722 7.04238 26.0416C7.07305 26.0109 7.1147 25.9937 7.15808 25.9937C7.20146 25.9937 7.24302 26.0109 7.2737 26.0416C7.30437 26.0722 7.32157 26.1138 7.32157 26.1572V26.4658C7.32214 26.9035 7.49641 27.3232 7.80601 27.6326C8.11561 27.9421 8.53526 28.1161 8.97301 28.1165H11.6695C11.7128 28.1165 11.7545 28.1337 11.7852 28.1644C11.8158 28.1951 11.833 28.2367 11.833 28.2801C11.833 28.3235 11.8158 28.3651 11.7852 28.3957C11.7545 28.4264 11.7128 28.4436 11.6695 28.4436Z" fill="#16284C"/>
<path d="M9.66153 28.406C9.61815 28.406 9.57659 28.3888 9.54592 28.3581C9.51524 28.3274 9.49805 28.2858 9.49805 28.2424V23.5796C9.49805 23.5362 9.51524 23.4946 9.54592 23.4639C9.57659 23.4333 9.61815 23.416 9.66153 23.416C9.70492 23.416 9.74656 23.4333 9.77724 23.4639C9.80791 23.4946 9.82511 23.5362 9.82511 23.5796V28.2424C9.8252 28.264 9.82109 28.2853 9.8129 28.3051C9.80471 28.325 9.79262 28.3431 9.77741 28.3583C9.76221 28.3735 9.7442 28.3856 9.72431 28.3938C9.70442 28.4019 9.68304 28.4061 9.66153 28.406Z" fill="#16284C"/>
<path d="M12.3536 26.2451C12.3321 26.2452 12.3108 26.241 12.2909 26.2329C12.2711 26.2247 12.253 26.2126 12.2378 26.1974C12.2226 26.1822 12.2105 26.1641 12.2024 26.1442C12.1942 26.1244 12.19 26.103 12.1901 26.0815V23.5815C12.1901 23.5382 12.2073 23.4965 12.238 23.4659C12.2687 23.4352 12.3103 23.418 12.3536 23.418C12.397 23.418 12.4387 23.4352 12.4693 23.4659C12.5 23.4965 12.5172 23.5382 12.5172 23.5815V26.0815C12.5172 26.1249 12.5 26.1665 12.4693 26.1972C12.4387 26.2279 12.397 26.2451 12.3536 26.2451Z" fill="#16284C"/>
<path d="M15.0452 25.5253C15.0018 25.5253 14.9601 25.5081 14.9295 25.4774C14.8988 25.4467 14.8816 25.4051 14.8816 25.3617V23.5796C14.8816 23.5362 14.8988 23.4946 14.9295 23.4639C14.9601 23.4333 15.0018 23.416 15.0452 23.416C15.0885 23.416 15.1301 23.4333 15.1608 23.4639C15.1915 23.4946 15.2087 23.5362 15.2087 23.5796V25.3617C15.2086 25.4051 15.1912 25.4466 15.1606 25.4772C15.13 25.5078 15.0885 25.5251 15.0452 25.5253Z" fill="#16284C"/>
<path d="M15.1208 26.5365H14.0993C13.7927 26.5134 13.4893 26.6119 13.2548 26.8108C13.0203 27.0098 12.8737 27.2931 12.8466 27.5994C12.8737 27.9057 13.0203 28.189 13.2548 28.3879C13.4893 28.5869 13.7927 28.6854 14.0993 28.6622H15.1208V26.5365Z" fill="white"/>
<path d="M15.2958 28.8372H14.098C13.9204 28.8628 13.7395 28.85 13.5674 28.7996C13.3953 28.7491 13.236 28.6623 13.1004 28.5449C12.9648 28.4274 12.8561 28.2822 12.7815 28.1191C12.707 27.956 12.6683 27.7787 12.6683 27.5993C12.6683 27.42 12.707 27.2427 12.7815 27.0796C12.8561 26.9164 12.9648 26.7712 13.1004 26.6538C13.236 26.5364 13.3953 26.4495 13.5674 26.3991C13.7395 26.3487 13.9204 26.3358 14.098 26.3615H15.2944L15.2958 28.8372ZM14.098 26.7143C13.9671 26.689 13.8322 26.693 13.7031 26.7259C13.5739 26.7588 13.4536 26.8199 13.3508 26.9047C13.248 26.9896 13.1652 27.0961 13.1084 27.2167C13.0516 27.3373 13.0221 27.4689 13.0221 27.6022C13.0221 27.7355 13.0516 27.8671 13.1084 27.9877C13.1652 28.1083 13.248 28.2148 13.3508 28.2997C13.4536 28.3845 13.5739 28.4456 13.7031 28.4785C13.8322 28.5114 13.9671 28.5154 14.098 28.4901H14.9444V26.7143H14.098Z" fill="#16284C"/>
<path d="M42.9151 25.5535V23.9399C42.9151 23.412 42.7054 22.9056 42.3321 22.5323C41.9588 22.1589 41.4524 21.9492 40.9244 21.9492H34.2916C34.0301 21.9491 33.7711 22.0005 33.5295 22.1005C33.2879 22.2005 33.0684 22.3472 32.8835 22.532C32.6986 22.7169 32.5518 22.9364 32.4517 23.178C32.3516 23.4195 32.3002 23.6785 32.3002 23.9399V29.8571C32.3002 30.3028 32.4772 30.7303 32.7924 31.0455C33.1076 31.3607 33.5352 31.5378 33.9809 31.5378V39.4535H41.2351V31.5406H42.9151C43.1242 31.5406 43.3313 31.4995 43.5244 31.4194C43.7176 31.3394 43.8931 31.2222 44.041 31.0743C44.1888 30.9265 44.3061 30.751 44.3861 30.5578C44.4661 30.3646 44.5073 30.1576 44.5073 29.9485V27.1428C44.5073 26.9337 44.4661 26.7267 44.3861 26.5335C44.3061 26.3403 44.1888 26.1648 44.041 26.017C43.8931 25.8691 43.7176 25.7519 43.5244 25.6718C43.3313 25.5918 43.1242 25.5506 42.9151 25.5506V25.5535Z" fill="white"/>
<path d="M34.8002 29.8575V23.9375C34.8002 23.676 34.8516 23.4171 34.9517 23.1755C35.0518 22.9339 35.1986 22.7145 35.3835 22.5296C35.5684 22.3447 35.7879 22.1981 36.0295 22.0981C36.2711 21.9981 36.5301 21.9467 36.7916 21.9468H34.2916C34.0301 21.9467 33.7711 21.9981 33.5295 22.0981C33.2879 22.1981 33.0684 22.3447 32.8835 22.5296C32.6986 22.7145 32.5518 22.9339 32.4517 23.1755C32.3516 23.4171 32.3002 23.676 32.3002 23.9375V29.8575C32.3001 30.0782 32.3435 30.2968 32.4279 30.5008C32.5123 30.7047 32.6361 30.89 32.7922 31.0461C32.9483 31.2022 33.1336 31.326 33.3376 31.4105C33.5416 31.4949 33.7602 31.5383 33.9809 31.5382V39.4539H36.4809V31.5411C36.2599 31.5412 36.041 31.4976 35.8369 31.413C35.6328 31.3284 35.4473 31.2044 35.2912 31.048C35.135 30.8916 35.0113 30.7059 34.927 30.5017C34.8428 30.2974 34.7997 30.0785 34.8002 29.8575Z" fill="#6ACC6D"/>
<path d="M41.3987 39.6199H33.8173V31.6971C33.3586 31.6556 32.9318 31.4441 32.6209 31.1043C32.3099 30.7644 32.1372 30.3206 32.1366 29.8599V23.9399C32.1374 23.3687 32.3647 22.8211 32.7687 22.4172C33.1727 22.0133 33.7203 21.7862 34.2916 21.7856H40.9244C41.4956 21.7862 42.0432 22.0134 42.4471 22.4172C42.851 22.8211 43.0781 23.3688 43.0787 23.9399V25.3978C43.5132 25.4391 43.9168 25.6407 44.2108 25.9633C44.5049 26.2859 44.6684 26.7063 44.6695 27.1428V29.9456C44.6689 30.4111 44.4837 30.8574 44.1546 31.1865C43.8255 31.5156 43.3792 31.7008 42.9137 31.7014H41.3973L41.3987 39.6199ZM34.1444 39.2928H41.073V31.3771H42.9165C43.2954 31.3771 43.6588 31.2266 43.9268 30.9587C44.1947 30.6907 44.3451 30.3274 44.3451 29.9485V27.1428C44.3451 26.7639 44.1947 26.4005 43.9268 26.1326C43.6588 25.8647 43.2954 25.7142 42.9165 25.7142H42.753V23.9371C42.7524 23.4527 42.5598 22.9882 42.2172 22.6457C41.8747 22.3032 41.4102 22.1105 40.9258 22.1099H34.293C33.8085 22.1105 33.344 22.3032 33.0014 22.6457C32.6587 22.9882 32.4659 23.4526 32.4651 23.9371V29.8571C32.4657 30.2593 32.6258 30.6448 32.9102 30.9292C33.1946 31.2136 33.5801 31.3736 33.9823 31.3742H34.1459L34.1444 39.2928Z" fill="#16284C"/>
<path d="M42.688 29.8203H38.8951C38.3061 29.8203 37.7413 29.5864 37.3248 29.1699C36.9083 28.7534 36.6744 28.1886 36.6744 27.5996C36.6744 27.0107 36.9083 26.4458 37.3248 26.0293C37.7413 25.6129 38.3061 25.3789 38.8951 25.3789H42.9151V25.7289H38.8951C38.3989 25.7289 37.9232 25.926 37.5724 26.2768C37.2215 26.6277 37.0244 27.1035 37.0244 27.5996C37.0244 28.0958 37.2215 28.5716 37.5724 28.9224C37.9232 29.2732 38.3989 29.4703 38.8951 29.4703H42.688V29.8203Z" fill="#16284C"/>
<path d="M38.3279 31.7046H33.9808C33.9375 31.7046 33.8958 31.6874 33.8651 31.6567C33.8345 31.626 33.8173 31.5844 33.8173 31.541C33.8173 31.4976 33.8345 31.456 33.8651 31.4254C33.8958 31.3947 33.9375 31.3774 33.9808 31.3774H38.3279C38.3713 31.3774 38.413 31.3947 38.4436 31.4254C38.4743 31.456 38.4915 31.4976 38.4915 31.541C38.4915 31.5844 38.4743 31.626 38.4436 31.6567C38.413 31.6874 38.3713 31.7046 38.3279 31.7046Z" fill="#16284C"/>
<path d="M36.8495 28.4436H34.153C33.6286 28.4431 33.1257 28.2345 32.7548 27.8638C32.3839 27.493 32.1752 26.9902 32.1744 26.4658V26.1572C32.1744 26.1138 32.1916 26.0722 32.2223 26.0416C32.253 26.0109 32.2946 25.9937 32.338 25.9937C32.3814 25.9937 32.423 26.0109 32.4536 26.0416C32.4843 26.0722 32.5016 26.1138 32.5016 26.1572V26.4658C32.5022 26.9035 32.6763 27.3232 32.9859 27.6326C33.2955 27.9421 33.7153 28.1161 34.153 28.1165H36.8495C36.8929 28.1165 36.9344 28.1337 36.9651 28.1644C36.9958 28.1951 37.013 28.2367 37.013 28.2801C37.013 28.3235 36.9958 28.3651 36.9651 28.3957C36.9344 28.4264 36.8929 28.4436 36.8495 28.4436Z" fill="#16284C"/>
<path d="M34.8401 28.406C34.7967 28.406 34.7552 28.3888 34.7245 28.3581C34.6938 28.3274 34.6766 28.2858 34.6766 28.2424V23.5796C34.6766 23.5362 34.6938 23.4946 34.7245 23.4639C34.7552 23.4333 34.7967 23.416 34.8401 23.416C34.8835 23.416 34.9252 23.4333 34.9558 23.4639C34.9865 23.4946 35.0037 23.5362 35.0037 23.5796V28.2424C35.0038 28.264 34.9997 28.2853 34.9915 28.3051C34.9833 28.325 34.9712 28.3431 34.956 28.3583C34.9408 28.3735 34.9228 28.3856 34.9029 28.3938C34.883 28.4019 34.8616 28.4061 34.8401 28.406Z" fill="#16284C"/>
<path d="M37.5322 26.2451C37.5107 26.2452 37.4894 26.241 37.4695 26.2329C37.4496 26.2247 37.4316 26.2126 37.4163 26.1974C37.4011 26.1822 37.3891 26.1641 37.3809 26.1442C37.3728 26.1244 37.3686 26.103 37.3687 26.0815V23.5815C37.3687 23.5382 37.3859 23.4965 37.4166 23.4659C37.4473 23.4352 37.4888 23.418 37.5322 23.418C37.5756 23.418 37.6173 23.4352 37.6479 23.4659C37.6786 23.4965 37.6958 23.5382 37.6958 23.5815V26.0815C37.6958 26.1249 37.6786 26.1665 37.6479 26.1972C37.6173 26.2279 37.5756 26.2451 37.5322 26.2451Z" fill="#16284C"/>
<path d="M40.2238 25.5253C40.1804 25.5253 40.1387 25.5081 40.108 25.4774C40.0774 25.4467 40.0602 25.4051 40.0602 25.3617V23.5796C40.0602 23.5362 40.0774 23.4946 40.108 23.4639C40.1387 23.4333 40.1804 23.416 40.2238 23.416C40.2671 23.416 40.3087 23.4333 40.3394 23.4639C40.37 23.4946 40.3873 23.5362 40.3873 23.5796V25.3617C40.3871 25.4051 40.3698 25.4466 40.3392 25.4772C40.3086 25.5078 40.2671 25.5251 40.2238 25.5253Z" fill="#16284C"/>
<path d="M40.2994 26.5365H39.2779C38.9713 26.5134 38.6679 26.6119 38.4334 26.8108C38.1989 27.0098 38.0523 27.2931 38.0251 27.5994C38.0523 27.9057 38.1989 28.189 38.4334 28.3879C38.6679 28.5869 38.9713 28.6854 39.2779 28.6622H40.2994V26.5365Z" fill="white"/>
<path d="M40.4744 28.8372H39.2779C39.1004 28.8628 38.9195 28.85 38.7473 28.7996C38.5752 28.7491 38.4159 28.6623 38.2803 28.5449C38.1447 28.4274 38.036 28.2822 37.9615 28.1191C37.8869 27.956 37.8484 27.7787 37.8484 27.5993C37.8484 27.42 37.8869 27.2427 37.9615 27.0796C38.036 26.9164 38.1447 26.7712 38.2803 26.6538C38.4159 26.5364 38.5752 26.4495 38.7473 26.3991C38.9195 26.3487 39.1004 26.3358 39.2779 26.3615H40.4744V28.8372ZM39.2779 26.7115C39.147 26.6862 39.0122 26.6901 38.883 26.7231C38.7539 26.756 38.6336 26.817 38.5308 26.9019C38.428 26.9867 38.3452 27.0932 38.2884 27.2138C38.2315 27.3344 38.202 27.4661 38.202 27.5993C38.202 27.7326 38.2315 27.8643 38.2884 27.9849C38.3452 28.1054 38.428 28.212 38.5308 28.2968C38.6336 28.3816 38.7539 28.4427 38.883 28.4756C39.0122 28.5085 39.147 28.5125 39.2779 28.4872H40.1244V26.7143L39.2779 26.7115Z" fill="#16284C"/>
<path d="M33.3123 17.5793V15.0514C33.3123 14.2241 32.9837 13.4307 32.3987 12.8457C31.8138 12.2608 31.0203 11.9321 30.193 11.9321H19.8002C18.9729 11.9321 18.1793 12.2607 17.5942 12.8457C17.0091 13.4307 16.6804 14.2241 16.6802 15.0514V24.3278C16.6802 25.0261 16.9576 25.6958 17.4513 26.1896C17.9451 26.6833 18.6148 26.9607 19.3131 26.9607V39.3636H30.6802V26.9607H33.3123C33.9741 26.9607 34.6086 26.6978 35.0765 26.2299C35.5444 25.762 35.8073 25.1274 35.8073 24.4657V20.0714C35.8073 19.4097 35.5444 18.7751 35.0765 18.3072C34.6086 17.8393 33.9741 17.5764 33.3123 17.5764V17.5793Z" fill="white"/>
<path d="M23.6379 12.1107H31.1916C30.8704 11.9962 30.5325 11.9359 30.1915 11.9321H19.7987C18.9713 11.9321 18.1778 12.2607 17.5928 12.8457C17.0077 13.4307 16.6789 14.2241 16.6787 15.0514V24.3278C16.6787 25.0261 16.9561 25.6958 17.4498 26.1896C17.9436 26.6833 18.6132 26.9607 19.3115 26.9607V39.3636H23.1508V27.1393C22.4525 27.1393 21.7829 26.8619 21.2891 26.3681C20.7954 25.8744 20.518 25.2047 20.518 24.5064V15.23C20.5182 14.4026 20.8469 13.6092 21.432 13.0243C22.0171 12.4393 22.8106 12.1107 23.6379 12.1107Z" fill="#32A326"/>
<path d="M30.9344 39.6201H19.055V27.2058C18.3363 27.1409 17.6678 26.8098 17.1806 26.2773C16.6935 25.7449 16.4231 25.0496 16.4222 24.3279V15.0515C16.4234 14.1564 16.7795 13.2983 17.4125 12.6655C18.0455 12.0327 18.9035 11.6767 19.7986 11.6758H30.1915C31.0865 11.6767 31.9446 12.0327 32.5775 12.6655C33.2103 13.2984 33.5662 14.1565 33.5672 15.0515V17.3372C34.2492 17.4019 34.8827 17.7183 35.344 18.2248C35.8053 18.7312 36.0614 19.3914 36.0622 20.0765V24.4679C36.0613 25.1973 35.7711 25.8965 35.2552 26.4122C34.7394 26.9279 34.0401 27.2179 33.3108 27.2186H30.9344V39.6201ZM19.5679 39.1072H30.4251V26.7044H33.3136C33.9071 26.7036 34.4761 26.4675 34.8958 26.0479C35.3154 25.6282 35.5515 25.0593 35.5522 24.4658V20.0715C35.5515 19.478 35.3154 18.9091 34.8958 18.4894C34.4761 18.0698 33.9071 17.8337 33.3136 17.8329H33.0579V15.0472C33.057 14.2881 32.755 13.5604 32.2181 13.0237C31.6813 12.4869 30.9535 12.1851 30.1944 12.1844H19.8015C19.0424 12.1851 18.3146 12.4869 17.7777 13.0237C17.2409 13.5604 16.9388 14.2881 16.9379 15.0472V24.3236C16.9387 24.9537 17.1893 25.5577 17.6348 26.0032C18.0803 26.4487 18.6843 26.6993 19.3143 26.7001H19.5708L19.5679 39.1072Z" fill="#16284C"/>
<path d="M32.9551 24.2652H27.013C26.0901 24.2652 25.2049 23.8985 24.5522 23.2459C23.8996 22.5933 23.533 21.7081 23.533 20.7852C23.533 19.8622 23.8996 18.9771 24.5522 18.3244C25.2049 17.6718 26.0901 17.3052 27.013 17.3052H33.3116V17.8573H27.013C26.2357 17.8573 25.4902 18.1661 24.9406 18.7157C24.391 19.2653 24.0823 20.0108 24.0823 20.788C24.0823 21.5653 24.391 22.3107 24.9406 22.8604C25.4902 23.41 26.2357 23.7187 27.013 23.7187H32.9551V24.2652Z" fill="#16284C"/>
<path d="M26.1238 27.2143H19.3124C19.2444 27.2143 19.1793 27.1873 19.1313 27.1393C19.0832 27.0913 19.0563 27.0261 19.0563 26.9582C19.0563 26.8903 19.0832 26.8252 19.1313 26.7772C19.1793 26.7291 19.2444 26.7021 19.3124 26.7021H26.1245C26.1924 26.7021 26.2575 26.7291 26.3055 26.7772C26.3535 26.8252 26.3806 26.8903 26.3806 26.9582C26.3806 27.0261 26.3535 27.0913 26.3055 27.1393C26.2575 27.1873 26.1924 27.2143 26.1245 27.2143H26.1238Z" fill="#16284C"/>
<path d="M23.8073 22.1087H19.5816C18.7598 22.1077 17.9719 21.7808 17.3908 21.1996C16.8098 20.6184 16.483 19.8305 16.4823 19.0087V18.5258C16.4805 18.4911 16.4857 18.4563 16.4977 18.4236C16.5098 18.3909 16.5283 18.3611 16.5523 18.3358C16.5763 18.3106 16.6052 18.2904 16.6371 18.2767C16.6691 18.263 16.7036 18.2559 16.7384 18.2559C16.7732 18.2559 16.8076 18.263 16.8396 18.2767C16.8716 18.2904 16.9004 18.3106 16.9244 18.3358C16.9483 18.3611 16.9669 18.3909 16.9789 18.4236C16.991 18.4563 16.9963 18.4911 16.9945 18.5258V19.0087C16.9952 19.6946 17.268 20.3522 17.753 20.8372C18.2381 21.3222 18.8956 21.5951 19.5816 21.5958H23.8073C23.8753 21.5958 23.9405 21.6228 23.9886 21.6709C24.0367 21.719 24.0637 21.7842 24.0637 21.8522C24.0637 21.9203 24.0367 21.9855 23.9886 22.0336C23.9405 22.0817 23.8753 22.1087 23.8073 22.1087Z" fill="#16284C"/>
<path d="M20.6588 22.0486C20.5909 22.0486 20.5257 22.0216 20.4777 21.9737C20.4296 21.9258 20.4025 21.8607 20.4023 21.7928V14.4864C20.4023 14.4184 20.4293 14.3532 20.4774 14.3051C20.5255 14.257 20.5908 14.23 20.6588 14.23C20.7268 14.23 20.792 14.257 20.8401 14.3051C20.8881 14.3532 20.9151 14.4184 20.9151 14.4864V21.7928C20.9151 21.8265 20.9085 21.8598 20.8956 21.8909C20.8827 21.9219 20.8639 21.9502 20.8401 21.9739C20.8162 21.9977 20.7879 22.0165 20.7568 22.0293C20.7257 22.0421 20.6924 22.0486 20.6588 22.0486Z" fill="#16284C"/>
<path d="M24.8758 18.6632C24.8422 18.6632 24.8089 18.6565 24.7778 18.6436C24.7468 18.6308 24.7185 18.6119 24.6947 18.588C24.671 18.5642 24.6522 18.5359 24.6394 18.5048C24.6266 18.4737 24.62 18.4404 24.6201 18.4068V14.4868C24.6183 14.452 24.6236 14.4172 24.6356 14.3845C24.6477 14.3519 24.6662 14.322 24.6901 14.2968C24.7141 14.2715 24.743 14.2514 24.775 14.2376C24.8069 14.2239 24.8414 14.2168 24.8762 14.2168C24.911 14.2168 24.9454 14.2239 24.9774 14.2376C25.0094 14.2514 25.0383 14.2715 25.0623 14.2968C25.0862 14.322 25.1048 14.3519 25.1168 14.3845C25.1289 14.4172 25.1341 14.452 25.1323 14.4868V18.4068C25.1324 18.4405 25.1258 18.4738 25.1129 18.505C25.1001 18.5362 25.0812 18.5645 25.0574 18.5883C25.0335 18.6121 25.0053 18.631 24.9741 18.6439C24.943 18.6567 24.9095 18.6633 24.8758 18.6632Z" fill="#16284C"/>
<path d="M29.0937 17.5343C29.0257 17.5343 28.9604 17.5073 28.9124 17.4592C28.8643 17.4111 28.8373 17.3458 28.8373 17.2778V14.4864C28.8373 14.4184 28.8643 14.3532 28.9124 14.3051C28.9604 14.257 29.0257 14.23 29.0937 14.23C29.1617 14.23 29.2269 14.257 29.275 14.3051C29.3231 14.3532 29.3502 14.4184 29.3502 14.4864V17.2778C29.3502 17.3458 29.3231 17.4111 29.275 17.4592C29.2269 17.5073 29.1617 17.5343 29.0937 17.5343Z" fill="#16284C"/>
<path d="M29.2123 19.1195H27.6115C27.131 19.0832 26.6556 19.2377 26.2882 19.5495C25.9209 19.8612 25.6911 20.3052 25.6487 20.7852C25.6911 21.2651 25.9209 21.7091 26.2882 22.0209C26.6556 22.3326 27.131 22.4871 27.6115 22.4509H29.2123V19.1195Z" fill="white"/>
<path d="M29.4873 22.7252H27.6115C27.3334 22.7652 27.0499 22.745 26.7803 22.6659C26.5107 22.5867 26.2612 22.4506 26.0488 22.2666C25.8365 22.0826 25.6661 21.8551 25.5494 21.5995C25.4327 21.3439 25.3723 21.0662 25.3723 20.7852C25.3723 20.5042 25.4327 20.2265 25.5494 19.9709C25.6661 19.7153 25.8365 19.4878 26.0488 19.3038C26.2612 19.1198 26.5107 18.9836 26.7803 18.9045C27.0499 18.8254 27.3334 18.8052 27.6115 18.8452H29.4873V22.7252ZM27.6115 19.3945C27.4062 19.3543 27.1947 19.36 26.9918 19.4113C26.789 19.4626 26.6 19.5581 26.4385 19.691C26.277 19.824 26.147 19.9911 26.0577 20.1802C25.9683 20.3694 25.922 20.576 25.922 20.7852C25.922 20.9944 25.9683 21.201 26.0577 21.3902C26.147 21.5793 26.277 21.7464 26.4385 21.8794C26.6 22.0123 26.789 22.1078 26.9918 22.1591C27.1947 22.2104 27.4062 22.2161 27.6115 22.1759H28.938V19.3945H27.6115Z" fill="#16284C"/>
<path d="M43.0787 25.398V23.9402C43.0781 23.369 42.851 22.8214 42.4471 22.4175C42.0432 22.0136 41.4956 21.7865 40.9244 21.7859H36.0623V20.0716C36.0614 19.3865 35.8054 18.7264 35.3441 18.2199C34.8828 17.7134 34.2493 17.397 33.5672 17.3323V15.0466C33.5663 14.1516 33.2104 13.2935 32.5775 12.6607C31.9446 12.0278 31.0866 11.6718 30.1916 11.6709H19.7987C18.9036 11.6718 18.0455 12.0278 17.4125 12.6606C16.7796 13.2935 16.4234 14.1515 16.4223 15.0466V21.9038C16.2048 21.8275 15.9763 21.7873 15.7458 21.7845H9.11298C8.54174 21.785 7.99407 22.0122 7.59007 22.416C7.18607 22.8199 6.95876 23.3675 6.95801 23.9388V29.8573C6.95863 30.318 7.13134 30.7618 7.44228 31.1017C7.75322 31.4415 8.17996 31.653 8.63874 31.6945V39.6173H16.2201V31.7045H17.7366C17.9872 31.7036 18.2347 31.6488 18.4623 31.5436C18.6898 31.4385 18.892 31.2855 19.0551 31.0952V39.6202H30.9351V27.2145H32.1366V29.8573C32.1372 30.318 32.3099 30.7618 32.6208 31.1017C32.9318 31.4415 33.3585 31.653 33.8173 31.6945V39.6173H41.3987V31.7045H42.9151C43.3806 31.7039 43.8268 31.5187 44.156 31.1896C44.4851 30.8605 44.6703 30.4142 44.6708 29.9488V27.143C44.6698 26.7063 44.5061 26.2857 44.2118 25.9631C43.9174 25.6405 43.5135 25.4391 43.0787 25.398Z" stroke="#16284C" stroke-miterlimit="10"/>
</g>
<defs>
<clipPath id="clip0">
<rect width="50" height="50" fill="white" transform="translate(0.169434)"/>
</clipPath>
</defs>
</svg>
