<svg width="50" height="50" viewBox="0 0 50 50" fill="none" xmlns="http://www.w3.org/2000/svg">
<path d="M25 50C38.8071 50 50 38.8071 50 25C50 11.1929 38.8071 0 25 0C11.1929 0 0 11.1929 0 25C0 38.8071 11.1929 50 25 50Z" fill="#A9EF9A"/>
<path d="M13.8663 15.0957H10.7063V35.2257H13.8663V15.0957Z" fill="#16284C"/>
<path d="M39.7157 15.0957H36.5557V35.2257H39.7157V15.0957Z" fill="#16284C"/>
<path d="M33.2535 15.0957H30.0935V35.2257H33.2535V15.0957Z" fill="#16284C"/>
<path d="M26.7906 15.0957H23.6306V35.2257H26.7906V15.0957Z" fill="#16284C"/>
<path d="M20.3285 15.0957H17.1685V35.2257H20.3285V15.0957Z" fill="#16284C"/>
<path d="M39.7699 34.4028H10.7063V36.6171H39.7699V34.4028Z" fill="white"/>
<path d="M39.77 37.0349H10.7064C10.5956 37.0349 10.4893 36.9908 10.4109 36.9125C10.3326 36.8341 10.2886 36.7278 10.2886 36.617V34.4027C10.2886 34.2919 10.3326 34.1856 10.4109 34.1072C10.4893 34.0289 10.5956 33.9849 10.7064 33.9849H39.77C39.8808 33.9849 39.9871 34.0289 40.0655 34.1072C40.1439 34.1856 40.1879 34.2919 40.1879 34.4027V36.617C40.1879 36.7278 40.1439 36.8341 40.0655 36.9125C39.9871 36.9908 39.8808 37.0349 39.77 37.0349ZM11.1272 36.1992H39.355V34.8206H11.1243L11.1272 36.1992Z" fill="#16284C"/>
<path d="M39.7699 36.6313H10.7063V38.8456H39.7699V36.6313Z" fill="white"/>
<path d="M39.77 39.2639H10.7064C10.5956 39.2639 10.4893 39.2198 10.4109 39.1415C10.3326 39.0631 10.2886 38.9568 10.2886 38.846V36.6317C10.2886 36.5209 10.3326 36.4146 10.4109 36.3363C10.4893 36.2579 10.5956 36.2139 10.7064 36.2139H39.77C39.8808 36.2139 39.9871 36.2579 40.0655 36.3363C40.1439 36.4146 40.1879 36.5209 40.1879 36.6317V38.846C40.1879 38.9568 40.1439 39.0631 40.0655 39.1415C39.9871 39.2198 39.8808 39.2639 39.77 39.2639ZM11.1272 38.4281H39.355V37.0496H11.1243L11.1272 38.4281Z" fill="#16284C"/>
<path d="M10.7063 38.8594H39.7699V38.8944C39.7699 39.4724 39.5403 40.0267 39.1316 40.4354C38.7229 40.8441 38.1686 41.0737 37.5906 41.0737H12.8856C12.3076 41.0737 11.7533 40.8441 11.3446 40.4354C10.9359 40.0267 10.7063 39.4724 10.7063 38.8944V38.8594Z" fill="white"/>
<path d="M37.5556 41.4916H12.9206C12.2219 41.4916 11.5518 41.2141 11.0577 40.7201C10.5635 40.2261 10.2858 39.556 10.2856 38.8573C10.2856 38.7465 10.3297 38.6402 10.408 38.5618C10.4864 38.4835 10.5927 38.4395 10.7035 38.4395H39.7671C39.8779 38.4395 39.9842 38.4835 40.0625 38.5618C40.1409 38.6402 40.1849 38.7465 40.1849 38.8573C40.1847 39.555 39.9078 40.2242 39.4149 40.7181C38.922 41.2119 38.2534 41.4901 37.5556 41.4916ZM11.1728 39.2773C11.2673 39.6698 11.491 40.0192 11.808 40.2692C12.125 40.5192 12.5169 40.6554 12.9206 40.6559H37.5556C37.9593 40.6554 38.351 40.5192 38.6679 40.2691C38.9848 40.0191 39.2084 39.6698 39.3028 39.2773H11.1728Z" fill="#16284C"/>
<path d="M10.7063 15.4664H39.7698L25.377 8.21924L10.7063 15.4664Z" fill="white"/>
<path d="M39.7706 15.8844H10.7071C10.6127 15.8846 10.521 15.8527 10.447 15.7941C10.3729 15.7355 10.321 15.6535 10.2995 15.5615C10.2781 15.4696 10.2883 15.373 10.3288 15.2877C10.3692 15.2024 10.4373 15.1332 10.5221 15.0916L25.1928 7.84443C25.2507 7.81572 25.3146 7.80078 25.3793 7.80078C25.4439 7.80078 25.5077 7.81572 25.5657 7.84443L39.9585 15.0916C40.0427 15.1338 40.1102 15.2031 40.15 15.2884C40.1898 15.3738 40.1996 15.47 40.1779 15.5616C40.1561 15.6533 40.1041 15.7348 40.0302 15.7932C39.9563 15.8515 39.8648 15.8831 39.7706 15.883V15.8844ZM12.4964 15.0487H38.0121L25.3764 8.68586L12.4964 15.0487Z" fill="#16284C"/>
<path d="M11.7855 33.7218C11.6747 33.7218 11.5685 33.6777 11.4901 33.5994C11.4117 33.521 11.3677 33.4147 11.3677 33.3039V16.7582C11.3677 16.6474 11.4117 16.5411 11.4901 16.4627C11.5685 16.3844 11.6747 16.3403 11.7855 16.3403C11.8964 16.3403 12.0026 16.3844 12.081 16.4627C12.1594 16.5411 12.2034 16.6474 12.2034 16.7582V33.3039C12.2034 33.4147 12.1594 33.521 12.081 33.5994C12.0026 33.6777 11.8964 33.7218 11.7855 33.7218Z" fill="white"/>
<path d="M18.2184 33.7218C18.1635 33.7218 18.1092 33.7109 18.0585 33.6899C18.0078 33.6689 17.9617 33.6382 17.9229 33.5994C17.8841 33.5606 17.8533 33.5145 17.8323 33.4638C17.8113 33.4131 17.8005 33.3588 17.8005 33.3039V16.7582C17.8005 16.6474 17.8445 16.5411 17.9229 16.4627C18.0013 16.3844 18.1075 16.3403 18.2184 16.3403C18.3292 16.3403 18.4355 16.3844 18.5139 16.4627C18.5922 16.5411 18.6362 16.6474 18.6362 16.7582V33.3039C18.6362 33.4147 18.5922 33.521 18.5139 33.5994C18.4355 33.6777 18.3292 33.7218 18.2184 33.7218Z" fill="white"/>
<path d="M24.6527 33.7218C24.5419 33.7218 24.4356 33.6777 24.3572 33.5994C24.2789 33.521 24.2349 33.4147 24.2349 33.3039V16.7582C24.2349 16.6474 24.2789 16.5411 24.3572 16.4627C24.4356 16.3844 24.5419 16.3403 24.6527 16.3403C24.7635 16.3403 24.8698 16.3844 24.9482 16.4627C25.0266 16.5411 25.0706 16.6474 25.0706 16.7582V33.3039C25.0706 33.4147 25.0266 33.521 24.9482 33.5994C24.8698 33.6777 24.7635 33.7218 24.6527 33.7218Z" fill="white"/>
<path d="M31.0878 33.7218C30.977 33.7218 30.8707 33.6777 30.7923 33.5994C30.7139 33.521 30.6699 33.4147 30.6699 33.3039V16.7582C30.6699 16.7033 30.6807 16.649 30.7017 16.5983C30.7227 16.5476 30.7535 16.5015 30.7923 16.4627C30.8311 16.4239 30.8772 16.3931 30.9279 16.3721C30.9786 16.3511 31.0329 16.3403 31.0878 16.3403C31.1427 16.3403 31.197 16.3511 31.2477 16.3721C31.2984 16.3931 31.3444 16.4239 31.3832 16.4627C31.422 16.5015 31.4528 16.5476 31.4738 16.5983C31.4948 16.649 31.5056 16.7033 31.5056 16.7582V33.3039C31.5056 33.4147 31.4616 33.521 31.3832 33.5994C31.3049 33.6777 31.1986 33.7218 31.0878 33.7218Z" fill="white"/>
<path d="M37.5221 33.7218C37.4113 33.7218 37.305 33.6777 37.2267 33.5994C37.1483 33.521 37.1042 33.4147 37.1042 33.3039V16.7582C37.1042 16.6474 37.1483 16.5411 37.2267 16.4627C37.305 16.3844 37.4113 16.3403 37.5221 16.3403C37.6329 16.3403 37.7392 16.3844 37.8176 16.4627C37.8959 16.5411 37.94 16.6474 37.94 16.7582V33.3039C37.94 33.4147 37.8959 33.521 37.8176 33.5994C37.7392 33.6777 37.6329 33.7218 37.5221 33.7218Z" fill="white"/>
<path d="M25.2677 14.0979C24.934 14.0979 24.6078 13.999 24.3304 13.8136C24.0529 13.6282 23.8367 13.3647 23.709 13.0564C23.5813 12.7481 23.5479 12.4089 23.613 12.0816C23.6781 11.7544 23.8388 11.4537 24.0747 11.2178C24.3107 10.9818 24.6113 10.8212 24.9385 10.7561C25.2658 10.691 25.605 10.7244 25.9133 10.8521C26.2216 10.9798 26.4851 11.196 26.6705 11.4734C26.8559 11.7509 26.9548 12.0771 26.9548 12.4108" fill="white"/>
</svg>
