<svg width="50" height="50" viewBox="0 0 50 50" fill="none" xmlns="http://www.w3.org/2000/svg">
<path d="M25 50C38.8071 50 50 38.8071 50 25C50 11.1929 38.8071 0 25 0C11.1929 0 0 11.1929 0 25C0 38.8071 11.1929 50 25 50Z" fill="#A9EF9A"/>
<path d="M36.2522 8.70557H13.6886C13.0304 8.70547 12.3785 8.83506 11.7704 9.08691C11.1622 9.33875 10.6096 9.7079 10.1441 10.1733C9.67857 10.6388 9.30931 11.1913 9.05738 11.7995C8.80545 12.4076 8.67578 13.0595 8.67578 13.7177V36.282C8.67597 37.6114 9.20419 38.8864 10.1442 39.8264C11.0843 40.7665 12.3592 41.2947 13.6886 41.2948H36.2522C37.5816 41.2947 38.8566 40.7665 39.7966 39.8264C40.7367 38.8864 41.2649 37.6114 41.2651 36.282V13.7177C41.2651 13.0595 41.1354 12.4076 40.8835 11.7995C40.6315 11.1913 40.2623 10.6388 39.7968 10.1733C39.3313 9.7079 38.7787 9.33875 38.1705 9.08691C37.5623 8.83506 36.9105 8.70547 36.2522 8.70557ZM27.5051 12.5849C27.6579 12.5849 27.8093 12.615 27.9505 12.6735C28.0917 12.732 28.22 12.8178 28.3281 12.9259C28.4362 13.0341 28.5218 13.1624 28.5803 13.3036C28.6387 13.4449 28.6687 13.5963 28.6686 13.7492V19.5156H26.3408V13.7492C26.3408 13.4404 26.4635 13.1442 26.6818 12.9259C26.9002 12.7075 27.1963 12.5849 27.5051 12.5849ZM22.6943 12.5849C22.8472 12.5849 22.9986 12.615 23.1398 12.6735C23.281 12.732 23.4093 12.8178 23.5174 12.9259C23.6255 13.0341 23.7111 13.1624 23.7696 13.3036C23.828 13.4449 23.858 13.5963 23.8579 13.7492V19.5156H21.5301V13.7492C21.5301 13.4404 21.6528 13.1442 21.8711 12.9259C22.0894 12.7075 22.3855 12.5849 22.6943 12.5849ZM14.2365 35.9927C14.229 36.2964 14.103 36.5852 13.8856 36.7973C13.6681 37.0094 13.3764 37.1282 13.0726 37.1282C12.7688 37.1282 12.477 37.0094 12.2595 36.7973C12.0421 36.5852 11.9162 36.2964 11.9086 35.9927V13.7492C11.9048 13.5939 11.932 13.4394 11.9888 13.2948C12.0456 13.1502 12.1307 13.0185 12.2391 12.9073C12.3476 12.7961 12.4772 12.7078 12.6204 12.6474C12.7635 12.5871 12.9173 12.556 13.0726 12.556C13.2279 12.556 13.3816 12.5871 13.5248 12.6474C13.6679 12.7078 13.7975 12.7961 13.906 12.9073C14.0144 13.0185 14.0995 13.1502 14.1563 13.2948C14.2131 13.4394 14.2404 13.5939 14.2365 13.7492V35.9927ZM19.0472 35.9927C19.0397 36.2964 18.9138 36.5852 18.6963 36.7973C18.4789 37.0094 18.1871 37.1282 17.8833 37.1282C17.5795 37.1282 17.2877 37.0094 17.0703 36.7973C16.8528 36.5852 16.7269 36.2964 16.7193 35.9927V13.7492C16.7155 13.5939 16.7428 13.4394 16.7995 13.2948C16.8563 13.1502 16.9414 13.0185 17.0499 12.9073C17.1584 12.7961 17.288 12.7078 17.4311 12.6474C17.5742 12.5871 17.728 12.556 17.8833 12.556C18.0386 12.556 18.1924 12.5871 18.3355 12.6474C18.4786 12.7078 18.6082 12.7961 18.7167 12.9073C18.8251 13.0185 18.9103 13.1502 18.967 13.2948C19.0238 13.4394 19.0511 13.5939 19.0472 13.7492V35.9927ZM22.6943 37.1563C22.3857 37.1563 22.0896 37.0337 21.8713 36.8155C21.653 36.5973 21.5303 36.3014 21.5301 35.9927V30.7785H23.8572V35.9927C23.8572 36.3012 23.7347 36.597 23.5167 36.8152C23.2986 37.0334 23.0028 37.1561 22.6943 37.1563ZM27.5051 37.1563C27.1964 37.1563 26.9004 37.0337 26.6821 36.8155C26.4637 36.5973 26.341 36.3014 26.3408 35.9927V30.7785H28.6686V35.9927C28.6686 36.1455 28.6386 36.2968 28.5801 36.438C28.5216 36.5791 28.4359 36.7074 28.3278 36.8155C28.2198 36.9235 28.0915 37.0093 27.9503 37.0677C27.8092 37.1262 27.6579 37.1563 27.5051 37.1563ZM33.4801 35.9927C33.4726 36.2964 33.3466 36.5852 33.1292 36.7973C32.9117 37.0094 32.6199 37.1282 32.3161 37.1282C32.0123 37.1282 31.7206 37.0094 31.5031 36.7973C31.2856 36.5852 31.1597 36.2964 31.1522 35.9927V13.7492C31.1483 13.5939 31.1756 13.4394 31.2324 13.2948C31.2891 13.1502 31.3743 13.0185 31.4827 12.9073C31.5912 12.7961 31.7208 12.7078 31.864 12.6474C32.0071 12.5871 32.1608 12.556 32.3161 12.556C32.4715 12.556 32.6252 12.5871 32.7684 12.6474C32.9115 12.7078 33.0411 12.7961 33.1495 12.9073C33.258 13.0185 33.3431 13.1502 33.3999 13.2948C33.4567 13.4394 33.4839 13.5939 33.4801 13.7492V35.9927ZM38.2908 35.9927C38.2908 36.3014 38.1682 36.5975 37.9499 36.8157C37.7316 37.034 37.4355 37.1566 37.1268 37.1566C36.8181 37.1566 36.5221 37.034 36.3038 36.8157C36.0855 36.5975 35.9629 36.3014 35.9629 35.9927V13.7492C35.9629 13.4405 36.0855 13.1444 36.3038 12.9261C36.5221 12.7078 36.8181 12.5852 37.1268 12.5852C37.4355 12.5852 37.7316 12.7078 37.9499 12.9261C38.1682 13.1444 38.2908 13.4405 38.2908 13.7492V35.9927Z" fill="white"/>
<path d="M36.2522 9.41985C37.3918 9.42099 38.4844 9.87414 39.2903 10.6799C40.0961 11.4856 40.5495 12.5781 40.5508 13.7177V36.282C40.5495 37.4216 40.0962 38.5142 39.2903 39.3201C38.4845 40.126 37.3918 40.5792 36.2522 40.5806H13.6886C12.549 40.5792 11.4564 40.126 10.6506 39.3201C9.84472 38.5142 9.39139 37.4216 9.39007 36.282V13.7177C9.39139 12.5781 9.84475 11.4856 10.6506 10.6799C11.4565 9.87414 12.5491 9.42099 13.6886 9.41985H36.2522ZM37.1265 37.8706C37.6245 37.8702 38.102 37.6723 38.4542 37.3202C38.8064 36.9681 39.0045 36.4907 39.0051 35.9927V13.7492C39.0051 13.251 38.8072 12.7733 38.455 12.421C38.1027 12.0688 37.625 11.8709 37.1268 11.8709C36.6287 11.8709 36.151 12.0688 35.7988 12.421C35.4465 12.7733 35.2487 13.251 35.2487 13.7492V35.9927C35.249 36.4906 35.447 36.9681 35.7991 37.3202C36.1511 37.6722 36.6286 37.8702 37.1265 37.8706ZM32.3158 37.8706C32.8138 37.8702 33.2913 37.6723 33.6435 37.3202C33.9957 36.9681 34.1938 36.4907 34.1944 35.9927V13.7492C34.1992 13.4994 34.1542 13.2512 34.062 13.0191C33.9698 12.787 33.8323 12.5755 33.6574 12.3972C33.4825 12.2189 33.2738 12.0772 33.0435 11.9805C32.8132 11.8837 32.5659 11.834 32.3161 11.834C32.0664 11.834 31.8191 11.8837 31.5888 11.9805C31.3585 12.0772 31.1498 12.2189 30.9749 12.3972C30.8 12.5755 30.6624 12.787 30.5702 13.0191C30.478 13.2512 30.433 13.4994 30.4379 13.7492V35.9927C30.4383 36.4906 30.6363 36.9681 30.9884 37.3202C31.3404 37.6722 31.8179 37.8702 32.3158 37.8706ZM25.6265 20.2277H29.3829V13.747C29.3829 13.2488 29.185 12.7711 28.8328 12.4189C28.4806 12.0667 28.0028 11.8688 27.5047 11.8688C27.0066 11.8688 26.5288 12.0667 26.1766 12.4189C25.8244 12.7711 25.6265 13.2488 25.6265 13.747V20.2277ZM20.8158 20.2277H24.5715V13.747C24.5715 13.2488 24.3736 12.7711 24.0214 12.4189C23.6691 12.0667 23.1914 11.8688 22.6933 11.8688C22.1952 11.8688 21.7174 12.0667 21.3652 12.4189C21.0129 12.7711 20.8151 13.2488 20.8151 13.747V20.2277H20.8158ZM17.8829 37.8706C18.3809 37.8702 18.8583 37.6722 19.2104 37.3202C19.5624 36.9681 19.7604 36.4906 19.7608 35.9927V13.7492C19.7656 13.4994 19.7207 13.2512 19.6285 13.0191C19.5363 12.787 19.3987 12.5755 19.2238 12.3972C19.0489 12.2189 18.8402 12.0772 18.6099 11.9805C18.3796 11.8837 18.1324 11.834 17.8826 11.834C17.6328 11.834 17.3855 11.8837 17.1552 11.9805C16.9249 12.0772 16.7162 12.2189 16.5413 12.3972C16.3664 12.5755 16.2289 12.787 16.1367 13.0191C16.0445 13.2512 15.9995 13.4994 16.0044 13.7492V35.9927C16.0049 36.4907 16.203 36.9681 16.5552 37.3202C16.9074 37.6723 17.3849 37.8702 17.8829 37.8706ZM13.0722 37.8706C13.5702 37.8702 14.0476 37.6722 14.3997 37.3202C14.7517 36.9681 14.9497 36.4906 14.9501 35.9927V13.7492C14.9549 13.4994 14.91 13.2512 14.8177 13.0191C14.7255 12.787 14.588 12.5755 14.4131 12.3972C14.2382 12.2189 14.0295 12.0772 13.7992 11.9805C13.5689 11.8837 13.3216 11.834 13.0718 11.834C12.8221 11.834 12.5748 11.8837 12.3445 11.9805C12.1142 12.0772 11.9055 12.2189 11.7306 12.3972C11.5557 12.5755 11.4182 12.787 11.326 13.0191C11.2338 13.2512 11.1888 13.4994 11.1937 13.7492V35.9927C11.1942 36.4907 11.3923 36.9681 11.7445 37.3202C12.0967 37.6723 12.5742 37.8702 13.0722 37.8706ZM27.5043 37.8706C28.0023 37.8702 28.4797 37.6722 28.8318 37.3202C29.1839 36.9681 29.3818 36.4906 29.3822 35.9927V30.0642H25.6258V35.9927C25.6263 36.4907 25.8245 36.9681 26.1767 37.3202C26.5289 37.6723 27.0064 37.8702 27.5043 37.8706ZM22.6936 37.8706C23.1916 37.8702 23.669 37.6722 24.0211 37.3202C24.3731 36.9681 24.5711 36.4906 24.5715 35.9927V30.0642H20.8151V35.9927C20.8156 36.4907 21.0138 36.9681 21.3659 37.3202C21.7181 37.6723 22.1956 37.8702 22.6936 37.8706ZM36.2515 8.70557H13.6886C13.0304 8.70547 12.3785 8.83506 11.7704 9.08691C11.1622 9.33875 10.6096 9.7079 10.1441 10.1733C9.67857 10.6388 9.30931 11.1913 9.05738 11.7995C8.80545 12.4076 8.67578 13.0595 8.67578 13.7177V36.282C8.67597 37.6114 9.20419 38.8864 10.1442 39.8264C11.0843 40.7665 12.3592 41.2947 13.6886 41.2948H36.2522C37.5816 41.2947 38.8566 40.7665 39.7966 39.8264C40.7367 38.8864 41.2649 37.6114 41.2651 36.282V13.7177C41.2651 13.0595 41.1354 12.4076 40.8835 11.7995C40.6315 11.1913 40.2623 10.6388 39.7968 10.1733C39.3313 9.7079 38.7787 9.33875 38.1705 9.08691C37.5623 8.83506 36.9105 8.70547 36.2522 8.70557H36.2515ZM37.1258 37.1563C36.8172 37.1563 36.5212 37.0337 36.303 36.8155C36.0848 36.5973 35.9622 36.3013 35.9622 35.9927V13.7492C35.9622 13.4405 36.0848 13.1444 36.3031 12.9261C36.5214 12.7078 36.8174 12.5852 37.1261 12.5852C37.4348 12.5852 37.7309 12.7078 37.9492 12.9261C38.1674 13.1444 38.2901 13.4405 38.2901 13.7492V35.9927C38.2901 36.1456 38.26 36.2969 38.2014 36.4382C38.1429 36.5794 38.0571 36.7077 37.949 36.8157C37.8409 36.9238 37.7125 37.0095 37.5713 37.0679C37.43 37.1263 37.2787 37.1564 37.1258 37.1563ZM32.3151 37.1563C32.0065 37.1563 31.7105 37.0337 31.4923 36.8155C31.2741 36.5973 31.1515 36.3013 31.1515 35.9927V13.7492C31.1476 13.5939 31.1749 13.4394 31.2317 13.2948C31.2884 13.1502 31.3735 13.0185 31.482 12.9073C31.5905 12.7961 31.7201 12.7078 31.8632 12.6474C32.0063 12.5871 32.1601 12.556 32.3154 12.556C32.4708 12.556 32.6245 12.5871 32.7676 12.6474C32.9107 12.7078 33.0404 12.7961 33.1488 12.9073C33.2573 13.0185 33.3424 13.1502 33.3992 13.2948C33.4559 13.4394 33.4832 13.5939 33.4793 13.7492V35.9927C33.4791 36.3014 33.3564 36.5973 33.1381 36.8155C32.9198 37.0337 32.6238 37.1563 32.3151 37.1563ZM26.3401 19.5134V13.747C26.3401 13.4383 26.4627 13.1422 26.681 12.924C26.8993 12.7057 27.1953 12.5831 27.504 12.5831C27.8127 12.5831 28.1087 12.7057 28.327 12.924C28.5453 13.1422 28.6679 13.4383 28.6679 13.747V19.5134H26.3401ZM21.5293 19.5134V13.747C21.5293 13.4383 21.652 13.1422 21.8703 12.924C22.0886 12.7057 22.3846 12.5831 22.6933 12.5831C23.002 12.5831 23.298 12.7057 23.5163 12.924C23.7346 13.1422 23.8572 13.4383 23.8572 13.747V19.5134H21.5293ZM17.8829 37.1563C17.7301 37.1564 17.5787 37.1263 17.4374 37.0679C17.2962 37.0095 17.1678 36.9238 17.0597 36.8157C16.9516 36.7077 16.8658 36.5794 16.8073 36.4382C16.7488 36.2969 16.7186 36.1456 16.7186 35.9927V13.7492C16.7148 13.5939 16.7421 13.4394 16.7988 13.2948C16.8556 13.1502 16.9407 13.0185 17.0492 12.9073C17.1576 12.7961 17.2872 12.7078 17.4304 12.6474C17.5735 12.5871 17.7273 12.556 17.8826 12.556C18.0379 12.556 18.1916 12.5871 18.3348 12.6474C18.4779 12.7078 18.6075 12.7961 18.716 12.9073C18.8244 13.0185 18.9095 13.1502 18.9663 13.2948C19.0231 13.4394 19.0503 13.5939 19.0465 13.7492V35.9927C19.0465 36.3013 18.9239 36.5973 18.7057 36.8155C18.4875 37.0337 18.1915 37.1563 17.8829 37.1563ZM13.0722 37.1563C12.7636 37.1563 12.4675 37.0337 12.2492 36.8155C12.0308 36.5973 11.9081 36.3014 11.9079 35.9927V13.7492C11.9041 13.5939 11.9314 13.4394 11.9881 13.2948C12.0449 13.1502 12.13 13.0185 12.2384 12.9073C12.3469 12.7961 12.4765 12.7078 12.6197 12.6474C12.7628 12.5871 12.9165 12.556 13.0718 12.556C13.2272 12.556 13.3809 12.5871 13.5241 12.6474C13.6672 12.7078 13.7968 12.7961 13.9053 12.9073C14.0137 13.0185 14.0988 13.1502 14.1556 13.2948C14.2124 13.4394 14.2396 13.5939 14.2358 13.7492V35.9927C14.2358 36.3013 14.1132 36.5973 13.895 36.8155C13.6768 37.0337 13.3808 37.1563 13.0722 37.1563ZM27.5043 37.1563C27.1957 37.1563 26.8997 37.0337 26.6813 36.8155C26.463 36.5973 26.3402 36.3014 26.3401 35.9927V30.7785H28.6679V35.9927C28.6679 36.3013 28.5454 36.5973 28.3271 36.8155C28.1089 37.0337 27.8129 37.1563 27.5043 37.1563ZM22.6936 37.1563C22.385 37.1563 22.0889 37.0337 21.8706 36.8155C21.6523 36.5973 21.5295 36.3014 21.5293 35.9927V30.7785H23.8572V35.9927C23.8572 36.3013 23.7346 36.5973 23.5164 36.8155C23.2982 37.0337 23.0022 37.1563 22.6936 37.1563Z" fill="black"/>
<path d="M25.4607 24.4996C25.7966 24.401 26.0857 24.1847 26.275 23.8903C26.4642 23.5958 26.541 23.243 26.4912 22.8965C26.4415 22.55 26.2684 22.2331 26.0039 22.0039C25.7394 21.7746 25.4011 21.6484 25.051 21.6484C24.701 21.6484 24.3627 21.7746 24.0982 22.0039C23.8336 22.2331 23.6606 22.55 23.6108 22.8965C23.561 23.243 23.6379 23.5958 23.8271 23.8903C24.0164 24.1847 24.3055 24.401 24.6414 24.4996L23.4507 28.5417H26.6514L25.4607 24.4996Z" fill="black"/>
</svg>
