<svg width="50" height="50" viewBox="0 0 50 50" fill="none" xmlns="http://www.w3.org/2000/svg">
<path d="M25 49.0909C38.8071 49.0909 50 38.1015 50 24.5455C50 10.9894 38.8071 0 25 0C11.1929 0 0 10.9894 0 24.5455C0 38.1015 11.1929 49.0909 25 49.0909Z" fill="#A9EF9A"/>
<path d="M37.6677 8.90088H12.3321C10.5281 8.90088 9.06567 10.3367 9.06567 12.1079V36.9828C9.06567 38.754 10.5281 40.1899 12.3321 40.1899H37.6677C39.4717 40.1899 40.9341 38.754 40.9341 36.9828V12.1079C40.9341 10.3367 39.4717 8.90088 37.6677 8.90088Z" fill="white"/>
<path d="M37.6679 40.5126H12.3389C11.3862 40.5109 10.4731 40.1383 9.7997 39.4766C9.12633 38.8148 8.7477 37.9179 8.74683 36.9825V12.1141C8.74508 11.179 9.12131 10.2814 9.79292 9.6184C10.4645 8.95537 11.3767 8.58106 12.3291 8.57764H37.658C38.6107 8.57849 39.5242 8.95023 40.1982 9.61136C40.8722 10.2725 41.2517 11.169 41.2534 12.1044V36.9729C41.2552 37.9088 40.8786 38.8072 40.2064 39.4709C39.5341 40.1345 38.6212 40.5091 37.6679 40.5126ZM12.3389 9.22357C11.561 9.22442 10.8152 9.52822 10.2651 10.0683C9.71502 10.6084 9.4056 11.3406 9.40473 12.1044V36.9729C9.40473 37.7372 9.71376 38.4703 10.2639 39.0111C10.8141 39.5518 11.5604 39.8561 12.3389 39.8569H37.6679C38.447 39.8569 39.1941 39.5531 39.745 39.0122C40.2959 38.4713 40.6054 37.7378 40.6054 36.9729V12.1044C40.6045 11.3401 40.2946 10.6073 39.7439 10.0672C39.1931 9.52698 38.4464 9.22357 37.6679 9.22357H12.3389Z" fill="#16284C"/>
<path d="M13.2008 18.1735C13.1135 18.1735 13.0299 18.1394 12.9682 18.0789C12.9065 18.0183 12.8718 17.9362 12.8718 17.8505V12.8122C12.8718 12.7266 12.9065 12.6444 12.9682 12.5839C13.0299 12.5233 13.1135 12.4893 13.2008 12.4893C13.288 12.4893 13.3717 12.5233 13.4334 12.5839C13.4951 12.6444 13.5297 12.7266 13.5297 12.8122V17.8505C13.5297 17.9362 13.4951 18.0183 13.4334 18.0789C13.3717 18.1394 13.288 18.1735 13.2008 18.1735Z" fill="#16284C"/>
<path d="M13.2008 18.1731C13.1358 18.1734 13.0722 18.1549 13.018 18.1199C12.9637 18.0848 12.9212 18.0348 12.8959 17.9761C12.8706 17.9173 12.8635 17.8526 12.8756 17.7899C12.8877 17.7273 12.9184 17.6696 12.9639 17.624L17.8915 12.5954C17.9203 12.5612 17.956 12.5331 17.9964 12.513C18.0367 12.4929 18.0809 12.4812 18.1261 12.4786C18.1712 12.476 18.2165 12.4826 18.2589 12.4979C18.3014 12.5133 18.3402 12.5371 18.3729 12.5678C18.4055 12.5986 18.4314 12.6356 18.4488 12.6766C18.4663 12.7176 18.4749 12.7617 18.4742 12.8061C18.4735 12.8505 18.4634 12.8943 18.4447 12.9348C18.4259 12.9752 18.3989 13.0114 18.3652 13.0411L13.4376 18.0859C13.4059 18.115 13.3687 18.1377 13.3281 18.1527C13.2874 18.1677 13.2441 18.1746 13.2008 18.1731Z" fill="#16284C"/>
<path d="M14.8419 18.1735C14.7546 18.1735 14.671 18.1394 14.6093 18.0789C14.5476 18.0183 14.5129 17.9362 14.5129 17.8505V12.8122C14.5129 12.7266 14.5476 12.6444 14.6093 12.5839C14.671 12.5233 14.7546 12.4893 14.8419 12.4893C14.9291 12.4893 15.0128 12.5233 15.0745 12.5839C15.1362 12.6444 15.1708 12.7266 15.1708 12.8122V17.8505C15.1708 17.9362 15.1362 18.0183 15.0745 18.0789C15.0128 18.1394 14.9291 18.1735 14.8419 18.1735Z" fill="#16284C"/>
<path d="M16.4869 18.1735C16.3997 18.1735 16.316 18.1394 16.2543 18.0789C16.1926 18.0183 16.158 17.9362 16.158 17.8505V12.8122C16.158 12.7266 16.1926 12.6444 16.2543 12.5839C16.316 12.5233 16.3997 12.4893 16.4869 12.4893C16.5741 12.4893 16.6578 12.5233 16.7195 12.5839C16.7812 12.6444 16.8159 12.7266 16.8159 12.8122V17.8505C16.8159 17.9362 16.7812 18.0183 16.7195 18.0789C16.6578 18.1394 16.5741 18.1735 16.4869 18.1735Z" fill="#16284C"/>
<path d="M18.1283 18.1735C18.041 18.1735 17.9574 18.1394 17.8957 18.0789C17.834 18.0183 17.7993 17.9362 17.7993 17.8505V12.8122C17.7993 12.7266 17.834 12.6444 17.8957 12.5839C17.9574 12.5233 18.041 12.4893 18.1283 12.4893C18.2155 12.4893 18.2992 12.5233 18.3609 12.5839C18.4226 12.6444 18.4572 12.7266 18.4572 12.8122V17.8505C18.4572 17.9362 18.4226 18.0183 18.3609 18.0789C18.2992 18.1394 18.2155 18.1735 18.1283 18.1735Z" fill="#16284C"/>
<path d="M20.0199 18.1735C19.9326 18.1735 19.849 18.1394 19.7873 18.0789C19.7256 18.0183 19.6909 17.9362 19.6909 17.8505V12.8122C19.6909 12.7266 19.7256 12.6444 19.7873 12.5839C19.849 12.5233 19.9326 12.4893 20.0199 12.4893C20.1071 12.4893 20.1908 12.5233 20.2525 12.5839C20.3142 12.6444 20.3488 12.7266 20.3488 12.8122V17.8505C20.3488 17.9362 20.3142 18.0183 20.2525 18.0789C20.1908 18.1394 20.1071 18.1735 20.0199 18.1735Z" fill="#16284C"/>
<path d="M20.0198 18.1731C19.9549 18.1734 19.8913 18.1549 19.837 18.1199C19.7828 18.0848 19.7403 18.0348 19.715 17.9761C19.6897 17.9173 19.6826 17.8526 19.6947 17.7899C19.7068 17.7273 19.7375 17.6696 19.783 17.624L24.7106 12.5954C24.7394 12.5612 24.7751 12.5331 24.8155 12.513C24.8558 12.4929 24.9 12.4812 24.9452 12.4786C24.9903 12.476 25.0356 12.4826 25.078 12.4979C25.1205 12.5133 25.1593 12.5371 25.192 12.5678C25.2246 12.5986 25.2505 12.6356 25.2679 12.6766C25.2853 12.7176 25.294 12.7617 25.2933 12.8061C25.2925 12.8505 25.2825 12.8943 25.2637 12.9348C25.245 12.9752 25.218 13.0114 25.1843 13.0411L20.2567 18.0859C20.225 18.115 20.1878 18.1377 20.1471 18.1527C20.1065 18.1677 20.0632 18.1746 20.0198 18.1731Z" fill="#16284C"/>
<path d="M21.661 18.1735C21.5737 18.1735 21.4901 18.1394 21.4284 18.0789C21.3667 18.0183 21.332 17.9362 21.332 17.8505V12.8122C21.332 12.7266 21.3667 12.6444 21.4284 12.5839C21.4901 12.5233 21.5737 12.4893 21.661 12.4893C21.7482 12.4893 21.8319 12.5233 21.8936 12.5839C21.9553 12.6444 21.9899 12.7266 21.9899 12.8122V17.8505C21.9899 17.9362 21.9553 18.0183 21.8936 18.0789C21.8319 18.1394 21.7482 18.1735 21.661 18.1735Z" fill="#16284C"/>
<path d="M23.306 18.1735C23.2188 18.1735 23.1351 18.1394 23.0734 18.0789C23.0117 18.0183 22.9771 17.9362 22.9771 17.8505V12.8122C22.9771 12.7266 23.0117 12.6444 23.0734 12.5839C23.1351 12.5233 23.2188 12.4893 23.306 12.4893C23.3932 12.4893 23.4769 12.5233 23.5386 12.5839C23.6003 12.6444 23.6349 12.7266 23.6349 12.8122V17.8505C23.6349 17.9362 23.6003 18.0183 23.5386 18.0789C23.4769 18.1394 23.3932 18.1735 23.306 18.1735Z" fill="#16284C"/>
<path d="M24.9474 18.1735C24.8601 18.1735 24.7764 18.1394 24.7148 18.0789C24.6531 18.0183 24.6184 17.9362 24.6184 17.8505V12.8122C24.6184 12.7266 24.6531 12.6444 24.7148 12.5839C24.7764 12.5233 24.8601 12.4893 24.9474 12.4893C25.0346 12.4893 25.1183 12.5233 25.18 12.5839C25.2416 12.6444 25.2763 12.7266 25.2763 12.8122V17.8505C25.2763 17.9362 25.2416 18.0183 25.18 18.0789C25.1183 18.1394 25.0346 18.1735 24.9474 18.1735Z" fill="#16284C"/>
<path d="M26.839 18.1735C26.7517 18.1735 26.668 18.1394 26.6064 18.0789C26.5447 18.0183 26.51 17.9362 26.51 17.8505V12.8122C26.51 12.7266 26.5447 12.6444 26.6064 12.5839C26.668 12.5233 26.7517 12.4893 26.839 12.4893C26.9262 12.4893 27.0099 12.5233 27.0716 12.5839C27.1333 12.6444 27.1679 12.7266 27.1679 12.8122V17.8505C27.1679 17.9362 27.1333 18.0183 27.0716 18.0789C27.0099 18.1394 26.9262 18.1735 26.839 18.1735Z" fill="#16284C"/>
<path d="M26.8387 18.1733C26.7737 18.1736 26.7101 18.1551 26.6559 18.1201C26.6017 18.085 26.5592 18.035 26.5339 17.9763C26.5085 17.9176 26.5015 17.8528 26.5136 17.7901C26.5257 17.7275 26.5564 17.6698 26.6019 17.6242L31.5361 12.5892C31.5978 12.5347 31.6782 12.5051 31.7612 12.5064C31.8442 12.5077 31.9237 12.5397 31.9836 12.5961C32.0436 12.6525 32.0796 12.7291 32.0844 12.8105C32.0893 12.8918 32.0626 12.972 32.0097 13.0349L27.0755 18.0732C27.045 18.1046 27.0082 18.1297 26.9675 18.1469C26.9268 18.1642 26.883 18.1731 26.8387 18.1733Z" fill="#16284C"/>
<path d="M28.4835 18.1735C28.3962 18.1735 28.3126 18.1394 28.2509 18.0789C28.1892 18.0183 28.1545 17.9362 28.1545 17.8505V12.8122C28.1545 12.7266 28.1892 12.6444 28.2509 12.5839C28.3126 12.5233 28.3962 12.4893 28.4835 12.4893C28.5707 12.4893 28.6544 12.5233 28.7161 12.5839C28.7778 12.6444 28.8124 12.7266 28.8124 12.8122V17.8505C28.8124 17.9362 28.7778 18.0183 28.7161 18.0789C28.6544 18.1394 28.5707 18.1735 28.4835 18.1735Z" fill="#16284C"/>
<path d="M30.1251 18.1735C30.0378 18.1735 29.9542 18.1394 29.8925 18.0789C29.8308 18.0183 29.7961 17.9362 29.7961 17.8505V12.8122C29.7961 12.7266 29.8308 12.6444 29.8925 12.5839C29.9542 12.5233 30.0378 12.4893 30.1251 12.4893C30.2123 12.4893 30.296 12.5233 30.3577 12.5839C30.4194 12.6444 30.454 12.7266 30.454 12.8122V17.8505C30.454 17.9362 30.4194 18.0183 30.3577 18.0789C30.296 18.1394 30.2123 18.1735 30.1251 18.1735Z" fill="#16284C"/>
<path d="M31.7664 18.1735C31.6792 18.1735 31.5955 18.1394 31.5338 18.0789C31.4722 18.0183 31.4375 17.9362 31.4375 17.8505V12.8122C31.4375 12.7266 31.4722 12.6444 31.5338 12.5839C31.5955 12.5233 31.6792 12.4893 31.7664 12.4893C31.8537 12.4893 31.9374 12.5233 31.999 12.5839C32.0607 12.6444 32.0954 12.7266 32.0954 12.8122V17.8505C32.0954 17.9362 32.0607 18.0183 31.999 18.0789C31.9374 18.1394 31.8537 18.1735 31.7664 18.1735Z" fill="#16284C"/>
<path d="M13.2008 25.0172C13.1135 25.0172 13.0299 24.9832 12.9682 24.9226C12.9065 24.862 12.8718 24.7799 12.8718 24.6942V19.656C12.8718 19.5703 12.9065 19.4882 12.9682 19.4276C13.0299 19.367 13.1135 19.333 13.2008 19.333C13.288 19.333 13.3717 19.367 13.4334 19.4276C13.4951 19.4882 13.5297 19.5703 13.5297 19.656V24.6942C13.5297 24.7799 13.4951 24.862 13.4334 24.9226C13.3717 24.9832 13.288 25.0172 13.2008 25.0172Z" fill="#16284C"/>
<path d="M13.2008 25.0164C13.1161 25.0161 13.0348 24.9837 12.9738 24.926C12.9126 24.8654 12.8782 24.7836 12.8782 24.6983C12.8782 24.6129 12.9126 24.5311 12.9738 24.4706L17.908 19.4323C17.9697 19.3721 18.053 19.3384 18.1399 19.3384C18.2268 19.3384 18.3102 19.3721 18.3719 19.4323C18.4027 19.4623 18.4272 19.498 18.4439 19.5374C18.4606 19.5768 18.4692 19.619 18.4692 19.6616C18.4692 19.7042 18.4606 19.7465 18.4439 19.7858C18.4272 19.8252 18.4027 19.8609 18.3719 19.8909L13.4376 24.926C13.4062 24.9557 13.3691 24.979 13.3285 24.9945C13.2878 25.0101 13.2444 25.0175 13.2008 25.0164Z" fill="#16284C"/>
<path d="M14.8419 25.0172C14.7546 25.0172 14.671 24.9832 14.6093 24.9226C14.5476 24.862 14.5129 24.7799 14.5129 24.6942V19.656C14.5129 19.5703 14.5476 19.4882 14.6093 19.4276C14.671 19.367 14.7546 19.333 14.8419 19.333C14.9291 19.333 15.0128 19.367 15.0745 19.4276C15.1362 19.4882 15.1708 19.5703 15.1708 19.656V24.6942C15.1708 24.7799 15.1362 24.862 15.0745 24.9226C15.0128 24.9832 14.9291 25.0172 14.8419 25.0172Z" fill="#16284C"/>
<path d="M16.4869 25.0172C16.3997 25.0172 16.316 24.9832 16.2543 24.9226C16.1926 24.862 16.158 24.7799 16.158 24.6942V19.656C16.158 19.5703 16.1926 19.4882 16.2543 19.4276C16.316 19.367 16.3997 19.333 16.4869 19.333C16.5741 19.333 16.6578 19.367 16.7195 19.4276C16.7812 19.4882 16.8159 19.5703 16.8159 19.656V24.6942C16.8159 24.7799 16.7812 24.862 16.7195 24.9226C16.6578 24.9832 16.5741 25.0172 16.4869 25.0172Z" fill="#16284C"/>
<path d="M18.1283 25.0172C18.041 25.0172 17.9574 24.9832 17.8957 24.9226C17.834 24.862 17.7993 24.7799 17.7993 24.6942V19.656C17.7993 19.5703 17.834 19.4882 17.8957 19.4276C17.9574 19.367 18.041 19.333 18.1283 19.333C18.2155 19.333 18.2992 19.367 18.3609 19.4276C18.4226 19.4882 18.4572 19.5703 18.4572 19.656V24.6942C18.4572 24.7799 18.4226 24.862 18.3609 24.9226C18.2992 24.9832 18.2155 25.0172 18.1283 25.0172Z" fill="#16284C"/>
<path d="M20.0199 25.0172C19.9326 25.0172 19.849 24.9832 19.7873 24.9226C19.7256 24.862 19.6909 24.7799 19.6909 24.6942V19.656C19.6909 19.5703 19.7256 19.4882 19.7873 19.4276C19.849 19.367 19.9326 19.333 20.0199 19.333C20.1071 19.333 20.1908 19.367 20.2525 19.4276C20.3142 19.4882 20.3488 19.5703 20.3488 19.656V24.6942C20.3488 24.7799 20.3142 24.862 20.2525 24.9226C20.1908 24.9832 20.1071 25.0172 20.0199 25.0172Z" fill="#16284C"/>
<path d="M20.0199 25.0164C19.9352 25.0161 19.8539 24.9837 19.7929 24.926C19.7317 24.8654 19.6973 24.7836 19.6973 24.6983C19.6973 24.6129 19.7317 24.5311 19.7929 24.4706L24.7271 19.4323C24.7888 19.3721 24.8721 19.3384 24.959 19.3384C25.0459 19.3384 25.1293 19.3721 25.1909 19.4323C25.2218 19.4623 25.2462 19.498 25.2629 19.5374C25.2797 19.5768 25.2882 19.619 25.2882 19.6616C25.2882 19.7042 25.2797 19.7465 25.2629 19.7858C25.2462 19.8252 25.2218 19.8609 25.1909 19.8909L20.2567 24.926C20.2253 24.9557 20.1882 24.979 20.1476 24.9945C20.1069 25.0101 20.0635 25.0175 20.0199 25.0164Z" fill="#16284C"/>
<path d="M21.661 25.0172C21.5737 25.0172 21.4901 24.9832 21.4284 24.9226C21.3667 24.862 21.332 24.7799 21.332 24.6942V19.656C21.332 19.5703 21.3667 19.4882 21.4284 19.4276C21.4901 19.367 21.5737 19.333 21.661 19.333C21.7482 19.333 21.8319 19.367 21.8936 19.4276C21.9553 19.4882 21.9899 19.5703 21.9899 19.656V24.6942C21.9899 24.7799 21.9553 24.862 21.8936 24.9226C21.8319 24.9832 21.7482 25.0172 21.661 25.0172Z" fill="#16284C"/>
<path d="M23.306 25.0172C23.2188 25.0172 23.1351 24.9832 23.0734 24.9226C23.0117 24.862 22.9771 24.7799 22.9771 24.6942V19.656C22.9771 19.5703 23.0117 19.4882 23.0734 19.4276C23.1351 19.367 23.2188 19.333 23.306 19.333C23.3932 19.333 23.4769 19.367 23.5386 19.4276C23.6003 19.4882 23.6349 19.5703 23.6349 19.656V24.6942C23.6349 24.7799 23.6003 24.862 23.5386 24.9226C23.4769 24.9832 23.3932 25.0172 23.306 25.0172Z" fill="#16284C"/>
<path d="M24.9474 25.0172C24.8601 25.0172 24.7764 24.9832 24.7148 24.9226C24.6531 24.862 24.6184 24.7799 24.6184 24.6942V19.656C24.6184 19.5703 24.6531 19.4882 24.7148 19.4276C24.7764 19.367 24.8601 19.333 24.9474 19.333C25.0346 19.333 25.1183 19.367 25.18 19.4276C25.2416 19.4882 25.2763 19.5703 25.2763 19.656V24.6942C25.2763 24.7799 25.2416 24.862 25.18 24.9226C25.1183 24.9832 25.0346 25.0172 24.9474 25.0172Z" fill="#16284C"/>
<path d="M26.839 25.0172C26.7517 25.0172 26.668 24.9832 26.6064 24.9226C26.5447 24.862 26.51 24.7799 26.51 24.6942V19.656C26.51 19.5703 26.5447 19.4882 26.6064 19.4276C26.668 19.367 26.7517 19.333 26.839 19.333C26.9262 19.333 27.0099 19.367 27.0716 19.4276C27.1333 19.4882 27.1679 19.5703 27.1679 19.656V24.6942C27.1679 24.7799 27.1333 24.862 27.0716 24.9226C27.0099 24.9832 26.9262 25.0172 26.839 25.0172Z" fill="#16284C"/>
<path d="M26.839 25.0164C26.7543 25.0161 26.673 24.9837 26.612 24.926C26.5507 24.8654 26.5164 24.7836 26.5164 24.6983C26.5164 24.6129 26.5507 24.5311 26.612 24.4706L31.5462 19.4323C31.6079 19.3721 31.6912 19.3384 31.7781 19.3384C31.865 19.3384 31.9484 19.3721 32.01 19.4323C32.0409 19.4623 32.0653 19.498 32.082 19.5374C32.0987 19.5768 32.1073 19.619 32.1073 19.6616C32.1073 19.7042 32.0987 19.7465 32.082 19.7858C32.0653 19.8252 32.0409 19.8609 32.01 19.8909L27.0758 24.926C27.0444 24.9557 27.0073 24.979 26.9667 24.9945C26.926 25.0101 26.8826 25.0175 26.839 25.0164Z" fill="#16284C"/>
<path d="M28.4835 25.0172C28.3962 25.0172 28.3126 24.9832 28.2509 24.9226C28.1892 24.862 28.1545 24.7799 28.1545 24.6942V19.656C28.1545 19.5703 28.1892 19.4882 28.2509 19.4276C28.3126 19.367 28.3962 19.333 28.4835 19.333C28.5707 19.333 28.6544 19.367 28.7161 19.4276C28.7778 19.4882 28.8124 19.5703 28.8124 19.656V24.6942C28.8124 24.7799 28.7778 24.862 28.7161 24.9226C28.6544 24.9832 28.5707 25.0172 28.4835 25.0172Z" fill="#16284C"/>
<path d="M30.1251 25.0172C30.0378 25.0172 29.9542 24.9832 29.8925 24.9226C29.8308 24.862 29.7961 24.7799 29.7961 24.6942V19.656C29.7961 19.5703 29.8308 19.4882 29.8925 19.4276C29.9542 19.367 30.0378 19.333 30.1251 19.333C30.2123 19.333 30.296 19.367 30.3577 19.4276C30.4194 19.4882 30.454 19.5703 30.454 19.656V24.6942C30.454 24.7799 30.4194 24.862 30.3577 24.9226C30.296 24.9832 30.2123 25.0172 30.1251 25.0172Z" fill="#16284C"/>
<path d="M31.7664 25.0172C31.6792 25.0172 31.5955 24.9832 31.5338 24.9226C31.4722 24.862 31.4375 24.7799 31.4375 24.6942V19.656C31.4375 19.5703 31.4722 19.4882 31.5338 19.4276C31.5955 19.367 31.6792 19.333 31.7664 19.333C31.8537 19.333 31.9374 19.367 31.999 19.4276C32.0607 19.4882 32.0954 19.5703 32.0954 19.656V24.6942C32.0954 24.7799 32.0607 24.862 31.999 24.9226C31.9374 24.9832 31.8537 25.0172 31.7664 25.0172Z" fill="#16284C"/>
<path d="M32.9671 26.8227H12.171C12.0837 26.8227 12.0001 26.7887 11.9384 26.7281C11.8767 26.6675 11.842 26.5854 11.842 26.4997C11.842 26.4141 11.8767 26.3319 11.9384 26.2714C12.0001 26.2108 12.0837 26.1768 12.171 26.1768H32.9703C33.0576 26.1768 33.1413 26.2108 33.2029 26.2714C33.2646 26.3319 33.2993 26.4141 33.2993 26.4997C33.2993 26.5854 33.2646 26.6675 33.2029 26.7281C33.1413 26.7887 33.0576 26.8227 32.9703 26.8227H32.9671Z" fill="#16284C"/>
<path d="M36.7008 28.7792C36.6135 28.7792 36.5299 28.7452 36.4682 28.6846C36.4065 28.6241 36.3718 28.5419 36.3718 28.4563V24.5451C36.3718 24.4595 36.4065 24.3773 36.4682 24.3168C36.5299 24.2562 36.6135 24.2222 36.7008 24.2222C36.788 24.2222 36.8717 24.2562 36.9334 24.3168C36.9951 24.3773 37.0297 24.4595 37.0297 24.5451V28.4563C37.0297 28.5419 36.9951 28.6241 36.9334 28.6846C36.8717 28.7452 36.788 28.7792 36.7008 28.7792Z" fill="#16284C"/>
<path d="M38.6941 26.8227H34.7105C34.6233 26.8227 34.5396 26.7887 34.4779 26.7281C34.4163 26.6675 34.3816 26.5854 34.3816 26.4997C34.3816 26.4141 34.4163 26.3319 34.4779 26.2714C34.5396 26.2108 34.6233 26.1768 34.7105 26.1768H38.6941C38.7813 26.1768 38.865 26.2108 38.9267 26.2714C38.9884 26.3319 39.023 26.4141 39.023 26.4997C39.023 26.5854 38.9884 26.6675 38.9267 26.7281C38.865 26.7887 38.7813 26.8227 38.6941 26.8227Z" fill="#16284C"/>
<path d="M28.0692 33.5498C28.3135 33.2058 28.596 32.8896 28.9113 32.6067C29.0945 32.4384 29.2659 32.2582 29.4244 32.0673C29.5259 31.9423 29.5826 31.7879 29.5856 31.6281C29.5877 31.5325 29.5642 31.438 29.5175 31.3541C29.4707 31.2702 29.4023 31.1999 29.3192 31.1501C29.1208 31.0331 28.8926 30.9738 28.6613 30.9789C28.3608 30.9785 28.0672 31.0674 27.8192 31.2341C27.5559 31.4043 27.3427 31.6392 27.2007 31.9155L24.6711 30.6818C25.0534 29.991 25.6378 29.4286 26.3488 29.067C27.1886 28.6463 28.1235 28.4418 29.0659 28.4727C30.0411 28.4296 31.0076 28.6688 31.8455 29.1606C32.1809 29.3632 32.4561 29.6489 32.6432 29.9891C32.8303 30.3293 32.9228 30.712 32.9113 31.0984C32.9185 31.447 32.8489 31.7929 32.7073 32.1126C32.5868 32.3796 32.4235 32.626 32.2238 32.8425C31.9978 33.0713 31.7583 33.287 31.5067 33.4884C31.2707 33.6774 31.0507 33.8847 30.8488 34.1085C30.7207 34.2537 30.6506 34.4396 30.6514 34.6317H27.76C27.7497 34.2487 27.8575 33.8716 28.0692 33.5498ZM27.885 37.9809C27.7187 37.8327 27.5864 37.6516 27.4968 37.4495C27.4072 37.2474 27.3624 37.0289 27.3652 36.8085C27.3601 36.5892 27.404 36.3714 27.4938 36.1706C27.5836 35.9697 27.7171 35.7906 27.885 35.6458C28.2628 35.3467 28.7335 35.1836 29.2188 35.1836C29.7042 35.1836 30.1749 35.3467 30.5527 35.6458C30.7206 35.7906 30.8541 35.9697 30.9439 36.1706C31.0337 36.3714 31.0776 36.5892 31.0725 36.8085C31.0753 37.0289 31.0304 37.2474 30.9408 37.4495C30.8512 37.6516 30.7189 37.8327 30.5527 37.9809C30.1804 38.2917 29.7076 38.4624 29.2188 38.4624C28.7301 38.4624 28.2573 38.2917 27.885 37.9809Z" fill="#32A326"/>
</svg>
