<svg width="50" height="50" viewBox="0 0 50 50" fill="none" xmlns="http://www.w3.org/2000/svg">
<path d="M25 50C38.8071 50 50 38.8071 50 25C50 11.1929 38.8071 0 25 0C11.1929 0 0 11.1929 0 25C0 38.8071 11.1929 50 25 50Z" fill="#A9EF9A"/>
<path d="M26.6499 7.29358L23.4411 8.94596C22.5573 9.40107 22.2098 10.4865 22.6649 11.3703L27.3627 20.4932C27.8178 21.377 28.9032 21.7246 29.787 21.2694L32.9959 19.6171C33.8797 19.162 34.2272 18.0765 33.7721 17.1927L29.0743 8.06981C28.6192 7.186 27.5338 6.83847 26.6499 7.29358Z" fill="#16284C"/>
<path d="M17.6775 17.4559L24.0964 14.1505L25.9316 17.7143L19.5126 21.0197C19.0747 21.2452 18.5652 21.2875 18.0961 21.1374C17.627 20.9872 17.2368 20.6568 17.0113 20.2189L16.8766 19.9572C16.6511 19.5193 16.6088 19.0098 16.759 18.5407C16.9092 18.0716 17.2396 17.6814 17.6775 17.4559V17.4559Z" fill="#16284C"/>
<path d="M32.383 18.2862C32.3065 18.2863 32.2315 18.2654 32.1661 18.2257C32.1007 18.186 32.0475 18.1291 32.0123 18.0612L29.133 12.5312C29.0818 12.4329 29.0717 12.3182 29.105 12.2125C29.1383 12.1067 29.2122 12.0185 29.3105 11.9673C29.4088 11.916 29.5235 11.9059 29.6292 11.9392C29.735 11.9725 29.8232 12.0464 29.8744 12.1447L32.7537 17.6748C32.7791 17.7235 32.7947 17.7767 32.7996 17.8315C32.8044 17.8862 32.7984 17.9414 32.7819 17.9938C32.7653 18.0462 32.7387 18.0948 32.7033 18.1369C32.668 18.179 32.6247 18.2137 32.5759 18.239C32.5164 18.2702 32.4502 18.2864 32.383 18.2862Z" fill="#A9EF9A"/>
<path d="M28.7537 11.3179C28.6771 11.318 28.6019 11.2971 28.5364 11.2574C28.4709 11.2177 28.4176 11.1608 28.3822 11.0929L27.1044 8.63859C27.0572 8.54062 27.0501 8.42815 27.0844 8.325C27.1187 8.22185 27.1918 8.1361 27.2883 8.08589C27.3847 8.03568 27.4969 8.02496 27.6011 8.05599C27.7052 8.08702 27.7933 8.15737 27.8465 8.25216L29.1244 10.7064C29.1572 10.7702 29.1732 10.8413 29.1708 10.913C29.1683 10.9848 29.1474 11.0546 29.1102 11.116C29.073 11.1773 29.0207 11.2281 28.9583 11.2634C28.8959 11.2988 28.8254 11.3175 28.7537 11.3179Z" fill="#A9EF9A"/>
<path d="M17.7494 19.4105C17.6554 19.4104 17.5642 19.3788 17.4904 19.3206C17.4166 19.2624 17.3646 19.181 17.3426 19.0896C17.3207 18.9982 17.3301 18.9021 17.3695 18.8168C17.4088 18.7314 17.4757 18.6618 17.5594 18.6191L23.5823 15.5519C23.6809 15.5043 23.7941 15.4972 23.8979 15.5321C24.0016 15.5671 24.0876 15.6412 24.1373 15.7388C24.187 15.8363 24.1965 15.9494 24.1638 16.0539C24.1311 16.1584 24.0587 16.2459 23.9623 16.2976L17.9387 19.3648C17.8801 19.3946 17.8152 19.4103 17.7494 19.4105Z" fill="#A9EF9A"/>
<path d="M37.1864 33.8118V32.7454C37.1858 32.1644 37.3487 31.5951 37.6565 31.1024C37.9644 30.6098 38.4047 30.2138 38.9271 29.9596V29.6489H12.9285C12.1078 29.6489 11.3208 29.9749 10.7405 30.5552C10.1602 31.1355 9.83423 31.9226 9.83423 32.7432V33.8096C9.83442 34.6302 10.1605 35.4172 10.7407 35.9974C11.321 36.5777 12.1079 36.9037 12.9285 36.9039H38.9285V36.5925C38.4066 36.339 37.9664 35.9439 37.6584 35.4522C37.3503 34.9605 37.1867 34.392 37.1864 33.8118Z" fill="#A9EF9A"/>
<path d="M38.9286 37.8816H12.9286C11.8488 37.8816 10.8132 37.4527 10.0497 36.6891C9.28613 35.9256 8.85718 34.89 8.85718 33.8102V32.7438C8.85812 31.6643 9.28738 30.6292 10.0507 29.8659C10.8141 29.1026 11.8491 28.6733 12.9286 28.6724H38.9286C39.1876 28.6724 39.4359 28.7752 39.619 28.9583C39.8021 29.1415 39.905 29.3898 39.905 29.6488V29.9595C39.9051 30.1425 39.8536 30.3219 39.7566 30.4771C39.6596 30.6323 39.521 30.7572 39.3564 30.8374C38.9978 31.0098 38.6954 31.2803 38.4843 31.6176C38.2732 31.9549 38.162 32.3451 38.1636 32.7431V33.8095C38.1623 34.2073 38.2738 34.5974 38.485 34.9345C38.6962 35.2717 38.9986 35.5421 39.3571 35.7145C39.5217 35.7945 39.6604 35.9192 39.7574 36.0743C39.8544 36.2294 39.9058 36.4087 39.9057 36.5916V36.9031C39.906 37.0315 39.8809 37.1588 39.832 37.2776C39.783 37.3963 39.711 37.5042 39.6203 37.5951C39.5295 37.6861 39.4216 37.7582 39.303 37.8073C39.1843 37.8565 39.0571 37.8817 38.9286 37.8816ZM12.9286 30.6266C12.3669 30.6274 11.8285 30.8508 11.4314 31.248C11.0342 31.6451 10.8108 32.1836 10.81 32.7452V33.8116C10.8109 34.3731 11.0345 34.9113 11.4317 35.3081C11.8288 35.705 12.3671 35.9282 12.9286 35.9288H36.8014C36.4142 35.2904 36.2103 34.5576 36.2122 33.8109V32.7445C36.2103 31.9976 36.4141 31.2646 36.8014 30.6259L12.9286 30.6266Z" fill="#16284C"/>
<path d="M39.5814 35.8052C39.2463 34.8792 39.1124 33.8925 39.1886 32.9107C39.2649 31.9289 39.5495 30.9747 40.0236 30.1116L39.9757 30.1294C40.0233 29.9745 40.046 29.813 40.0429 29.6509H13.0379C12.2172 29.6509 11.4302 29.9769 10.8499 30.5572C10.2696 31.1375 9.9436 31.9245 9.9436 32.7452V33.8116C9.94379 34.6322 10.2699 35.4191 10.8501 35.9994C11.4304 36.5796 12.2173 36.9057 13.0379 36.9059H40.0429C40.0429 36.1944 39.845 35.9594 39.5814 35.8052Z" fill="white"/>
<path d="M35.06 28.2989H14.4808C14.3551 28.2989 14.2345 28.249 14.1456 28.1601C14.0568 28.0712 14.0068 27.9507 14.0068 27.825C14.0068 27.6993 14.0568 27.5788 14.1456 27.4899C14.2345 27.401 14.3551 27.3511 14.4808 27.3511H35.06C35.1857 27.3511 35.3063 27.401 35.3952 27.4899C35.484 27.5788 35.534 27.6993 35.534 27.825C35.534 27.9507 35.484 28.0712 35.3952 28.1601C35.3063 28.249 35.1857 28.2989 35.06 28.2989Z" fill="#32A326"/>
<path d="M35.0936 27.0169H14.5143C14.3885 27.0169 14.2679 26.967 14.1789 26.878C14.09 26.7891 14.04 26.6684 14.04 26.5426C14.04 26.4169 14.09 26.2962 14.1789 26.2073C14.2679 26.1183 14.3885 26.0684 14.5143 26.0684H35.0936C35.2194 26.0684 35.34 26.1183 35.429 26.2073C35.5179 26.2962 35.5679 26.4169 35.5679 26.5426C35.5679 26.6684 35.5179 26.7891 35.429 26.878C35.34 26.967 35.2194 27.0169 35.0936 27.0169Z" fill="#32A326"/>
<path d="M35.0936 25.7337H14.5143C14.3885 25.7337 14.2679 25.6838 14.1789 25.5948C14.09 25.5059 14.04 25.3852 14.04 25.2594C14.04 25.1337 14.09 25.013 14.1789 24.9241C14.2679 24.8351 14.3885 24.7852 14.5143 24.7852H35.0936C35.2194 24.7852 35.34 24.8351 35.429 24.9241C35.5179 25.013 35.5679 25.1337 35.5679 25.2594C35.5679 25.3852 35.5179 25.5059 35.429 25.5948C35.34 25.6838 35.2194 25.7337 35.0936 25.7337Z" fill="#32A326"/>
<path d="M35.0935 24.4508H14.5142C14.3885 24.4508 14.268 24.4009 14.1791 24.312C14.0902 24.2231 14.0403 24.1025 14.0403 23.9769C14.0403 23.8512 14.0902 23.7306 14.1791 23.6417C14.268 23.5529 14.3885 23.5029 14.5142 23.5029H35.0935C35.2192 23.5029 35.3397 23.5529 35.4286 23.6417C35.5175 23.7306 35.5674 23.8512 35.5674 23.9769C35.5674 24.1025 35.5175 24.2231 35.4286 24.312C35.3397 24.4009 35.2192 24.4508 35.0935 24.4508Z" fill="#32A326"/>
<path d="M35.0935 23.1681H14.5142C14.3885 23.1681 14.268 23.1181 14.1791 23.0293C14.0902 22.9404 14.0403 22.8198 14.0403 22.6941C14.0403 22.5684 14.0902 22.4479 14.1791 22.359C14.268 22.2701 14.3885 22.2202 14.5142 22.2202H35.0935C35.2192 22.2202 35.3397 22.2701 35.4286 22.359C35.5175 22.4479 35.5674 22.5684 35.5674 22.6941C35.5674 22.8198 35.5175 22.9404 35.4286 23.0293C35.3397 23.1181 35.2192 23.1681 35.0935 23.1681Z" fill="#32A326"/>
<path d="M27.3964 22.0474H22.21V28.4724H27.3964V22.0474Z" fill="white"/>
</svg>
