<svg width="50" height="50" viewBox="0 0 50 50" fill="none" xmlns="http://www.w3.org/2000/svg">
<path d="M25 50C38.8071 50 50 38.8071 50 25C50 11.1929 38.8071 0 25 0C11.1929 0 0 11.1929 0 25C0 38.8071 11.1929 50 25 50Z" fill="#A9EF9A"/>
<path d="M27.4047 10.4204H9.31922C8.35454 10.4204 7.57251 11.2024 7.57251 12.1671V38.5882C7.57251 39.5528 8.35454 40.3349 9.31922 40.3349H27.4047C28.3694 40.3349 29.1515 39.5528 29.1515 38.5882V12.1671C29.1515 11.2024 28.3694 10.4204 27.4047 10.4204Z" fill="white"/>
<path d="M27.4048 40.6676H9.31272C8.76249 40.6667 8.23504 40.4477 7.84597 40.0587C7.45689 39.6696 7.23793 39.1422 7.23706 38.5919V12.1709C7.23793 11.6206 7.45689 11.0932 7.84597 10.7041C8.23504 10.315 8.76249 10.0961 9.31272 10.0952H27.4048C27.9551 10.0961 28.4825 10.315 28.8716 10.7041C29.2606 11.0932 29.4796 11.6206 29.4805 12.1709V38.5952C29.4787 39.1449 29.2594 39.6715 28.8704 40.0598C28.4814 40.4482 27.9545 40.6667 27.4048 40.6676ZM9.31272 10.7498C9.12626 10.7498 8.94163 10.7866 8.7694 10.8581C8.59718 10.9295 8.44074 11.0342 8.30904 11.1662C8.17735 11.2982 8.07299 11.4549 8.00193 11.6273C7.93087 11.7997 7.89452 11.9844 7.89496 12.1709V38.5952C7.89496 38.7814 7.93163 38.9658 8.00288 39.1378C8.07413 39.3098 8.17856 39.4661 8.31021 39.5977C8.44186 39.7294 8.59815 39.8338 8.77016 39.9051C8.94217 39.9763 9.12654 40.013 9.31272 40.013H27.4048C27.591 40.013 27.7754 39.9763 27.9474 39.9051C28.1194 39.8338 28.2757 39.7294 28.4073 39.5977C28.539 39.4661 28.6434 39.3098 28.7147 39.1378C28.7859 38.9658 28.8226 38.7814 28.8226 38.5952V12.1709C28.8226 11.7949 28.6732 11.4342 28.4073 11.1684C28.1415 10.9025 27.7808 10.7531 27.4048 10.7531L9.31272 10.7498Z" fill="black"/>
<path d="M21.6445 13.6149H14.8419C14.7546 13.6149 14.671 13.5803 14.6093 13.5186C14.5476 13.4569 14.5129 13.3732 14.5129 13.286C14.5129 13.1987 14.5476 13.1151 14.6093 13.0534C14.671 12.9917 14.7546 12.957 14.8419 12.957H21.6445C21.7318 12.957 21.8154 12.9917 21.8771 13.0534C21.9388 13.1151 21.9735 13.1987 21.9735 13.286C21.9735 13.3732 21.9388 13.4569 21.8771 13.5186C21.8154 13.5803 21.7318 13.6149 21.6445 13.6149Z" fill="#A9EF9A"/>
<path d="M26.3357 15.6213H10.1515C10.0642 15.6213 9.98055 15.5866 9.91886 15.5249C9.85717 15.4632 9.82251 15.3796 9.82251 15.2923C9.82251 15.2051 9.85717 15.1214 9.91886 15.0597C9.98055 14.998 10.0642 14.9634 10.1515 14.9634H26.3357C26.4229 14.9634 26.5066 14.998 26.5683 15.0597C26.63 15.1214 26.6646 15.2051 26.6646 15.2923C26.6646 15.3796 26.63 15.4632 26.5683 15.5249C26.5066 15.5866 26.4229 15.6213 26.3357 15.6213Z" fill="#A9EF9A"/>
<path d="M26.3357 17.6286H10.1515C10.0642 17.6286 9.98055 17.5939 9.91886 17.5323C9.85717 17.4706 9.82251 17.3869 9.82251 17.2997C9.82251 17.2124 9.85717 17.1287 9.91886 17.0671C9.98055 17.0054 10.0642 16.9707 10.1515 16.9707H26.3357C26.4229 16.9707 26.5066 17.0054 26.5683 17.0671C26.63 17.1287 26.6646 17.2124 26.6646 17.2997C26.6646 17.3869 26.63 17.4706 26.5683 17.5323C26.5066 17.5939 26.4229 17.6286 26.3357 17.6286Z" fill="#A9EF9A"/>
<path d="M19.7699 19.631H10.1515C10.0642 19.631 9.98055 19.5964 9.91886 19.5347C9.85717 19.473 9.82251 19.3893 9.82251 19.3021C9.82251 19.2149 9.85717 19.1312 9.91886 19.0695C9.98055 19.0078 10.0642 18.9731 10.1515 18.9731H19.7699C19.8571 18.9731 19.9408 19.0078 20.0025 19.0695C20.0642 19.1312 20.0988 19.2149 20.0988 19.3021C20.0988 19.3893 20.0642 19.473 20.0025 19.5347C19.9408 19.5964 19.8571 19.631 19.7699 19.631Z" fill="#A9EF9A"/>
<path d="M26.3357 21.6384H10.1515C10.0642 21.6384 9.98055 21.6037 9.91886 21.542C9.85717 21.4803 9.82251 21.3967 9.82251 21.3094C9.82251 21.2222 9.85717 21.1385 9.91886 21.0768C9.98055 21.0151 10.0642 20.9805 10.1515 20.9805H26.3357C26.4229 20.9805 26.5066 21.0151 26.5683 21.0768C26.63 21.1385 26.6646 21.2222 26.6646 21.3094C26.6646 21.3967 26.63 21.4803 26.5683 21.542C26.5066 21.6037 26.4229 21.6384 26.3357 21.6384Z" fill="#A9EF9A"/>
<path d="M26.3357 23.6447H10.1515C10.0642 23.6447 9.98055 23.6101 9.91886 23.5484C9.85717 23.4867 9.82251 23.403 9.82251 23.3158C9.82251 23.2285 9.85717 23.1449 9.91886 23.0832C9.98055 23.0215 10.0642 22.9868 10.1515 22.9868H26.3357C26.4229 22.9868 26.5066 23.0215 26.5683 23.0832C26.63 23.1449 26.6646 23.2285 26.6646 23.3158C26.6646 23.403 26.63 23.4867 26.5683 23.5484C26.5066 23.6101 26.4229 23.6447 26.3357 23.6447Z" fill="#A9EF9A"/>
<path d="M26.3357 25.6579H10.1515C10.0642 25.6579 9.98055 25.6232 9.91886 25.5615C9.85717 25.4999 9.82251 25.4162 9.82251 25.3289C9.82251 25.2417 9.85717 25.158 9.91886 25.0963C9.98055 25.0347 10.0642 25 10.1515 25H26.3357C26.4229 25 26.5066 25.0347 26.5683 25.0963C26.63 25.158 26.6646 25.2417 26.6646 25.3289C26.6646 25.4162 26.63 25.4999 26.5683 25.5615C26.5066 25.6232 26.4229 25.6579 26.3357 25.6579Z" fill="#A9EF9A"/>
<path d="M19.7699 27.655H10.1515C10.0642 27.655 9.98055 27.6203 9.91886 27.5586C9.85717 27.4969 9.82251 27.4133 9.82251 27.326C9.82251 27.2388 9.85717 27.1551 9.91886 27.0934C9.98055 27.0317 10.0642 26.9971 10.1515 26.9971H19.7699C19.8571 26.9971 19.9408 27.0317 20.0025 27.0934C20.0642 27.1551 20.0988 27.2388 20.0988 27.326C20.0988 27.4133 20.0642 27.4969 20.0025 27.5586C19.9408 27.6203 19.8571 27.655 19.7699 27.655Z" fill="#A9EF9A"/>
<path d="M26.3357 29.6613H10.1515C10.0642 29.6613 9.98055 29.6267 9.91886 29.565C9.85717 29.5033 9.82251 29.4196 9.82251 29.3324C9.82251 29.2451 9.85717 29.1615 9.91886 29.0998C9.98055 29.0381 10.0642 29.0034 10.1515 29.0034H26.3357C26.4229 29.0034 26.5066 29.0381 26.5683 29.0998C26.63 29.1615 26.6646 29.2451 26.6646 29.3324C26.6646 29.4196 26.63 29.5033 26.5683 29.565C26.5066 29.6267 26.4229 29.6613 26.3357 29.6613Z" fill="#A9EF9A"/>
<path d="M26.3357 31.6642H10.1515C10.0642 31.6642 9.98055 31.6296 9.91886 31.5679C9.85717 31.5062 9.82251 31.4225 9.82251 31.3353C9.82251 31.2481 9.85717 31.1644 9.91886 31.1027C9.98055 31.041 10.0642 31.0063 10.1515 31.0063H26.3357C26.4229 31.0063 26.5066 31.041 26.5683 31.1027C26.63 31.1644 26.6646 31.2481 26.6646 31.3353C26.6646 31.4225 26.63 31.5062 26.5683 31.5679C26.5066 31.6296 26.4229 31.6642 26.3357 31.6642Z" fill="#A9EF9A"/>
<path d="M19.7699 33.6711H10.1515C10.0642 33.6711 9.98055 33.6364 9.91886 33.5747C9.85717 33.513 9.82251 33.4294 9.82251 33.3421C9.82251 33.2549 9.85717 33.1712 9.91886 33.1095C9.98055 33.0478 10.0642 33.0132 10.1515 33.0132H19.7699C19.8571 33.0132 19.9408 33.0478 20.0025 33.1095C20.0642 33.1712 20.0988 33.2549 20.0988 33.3421C20.0988 33.4294 20.0642 33.513 20.0025 33.5747C19.9408 33.6364 19.8571 33.6711 19.7699 33.6711Z" fill="#A9EF9A"/>
<path d="M26.3357 35.6774H10.1515C10.0642 35.6774 9.98055 35.6428 9.91886 35.5811C9.85717 35.5194 9.82251 35.4357 9.82251 35.3485C9.82251 35.2612 9.85717 35.1776 9.91886 35.1159C9.98055 35.0542 10.0642 35.0195 10.1515 35.0195H26.3357C26.4229 35.0195 26.5066 35.0542 26.5683 35.1159C26.63 35.1776 26.6646 35.2612 26.6646 35.3485C26.6646 35.4357 26.63 35.5194 26.5683 35.5811C26.5066 35.6428 26.4229 35.6774 26.3357 35.6774Z" fill="#A9EF9A"/>
<path d="M19.7699 37.6813H10.1515C10.0642 37.6813 9.98055 37.6467 9.91886 37.585C9.85717 37.5233 9.82251 37.4396 9.82251 37.3524C9.82251 37.2651 9.85717 37.1815 9.91886 37.1198C9.98055 37.0581 10.0642 37.0234 10.1515 37.0234H19.7699C19.8571 37.0234 19.9408 37.0581 20.0025 37.1198C20.0642 37.1815 20.0988 37.2651 20.0988 37.3524C20.0988 37.4396 20.0642 37.5233 20.0025 37.585C19.9408 37.6467 19.8571 37.6813 19.7699 37.6813Z" fill="#A9EF9A"/>
<path d="M37.7696 42.2075C37.3359 42.2074 36.9197 42.036 36.6117 41.7305L27.9933 33.1779C27.7215 32.8652 27.5777 32.4614 27.5907 32.0473C27.6036 31.6331 27.7725 31.2392 28.0634 30.9441C28.3543 30.6491 28.7458 30.4747 29.1597 30.4558C29.5736 30.4369 29.9794 30.575 30.2959 30.8424L38.9111 39.3753C39.1434 39.6044 39.3023 39.8973 39.3676 40.217C39.4329 40.5366 39.4017 40.8685 39.2779 41.1703C39.1542 41.4722 38.9434 41.7304 38.6725 41.9122C38.4016 42.0939 38.0827 42.191 37.7565 42.1911L37.7696 42.2075Z" fill="black"/>
<path d="M22.5825 34.5923C27.7638 34.5923 31.9641 30.392 31.9641 25.2107C31.9641 20.0294 27.7638 15.8291 22.5825 15.8291C17.4012 15.8291 13.2009 20.0294 13.2009 25.2107C13.2009 30.392 17.4012 34.5923 22.5825 34.5923Z" fill="white"/>
<path d="M22.5824 34.9206C20.6618 34.9206 18.7844 34.3511 17.1875 33.284C15.5906 32.217 14.346 30.7005 13.611 28.9261C12.876 27.1517 12.6837 25.1993 13.0584 23.3156C13.4331 21.432 14.3579 19.7017 15.716 18.3437C17.074 16.9856 18.8043 16.0608 20.6879 15.6861C22.5716 15.3114 24.5241 15.5037 26.2984 16.2387C28.0728 16.9737 29.5894 18.2183 30.6564 19.8152C31.7234 21.412 32.2929 23.2895 32.2929 25.21C32.2894 27.7844 31.2652 30.2523 29.4449 32.0726C27.6246 33.8929 25.1567 34.9171 22.5824 34.9206ZM22.5824 16.1706C20.7919 16.1706 19.0417 16.7015 17.553 17.6962C16.0643 18.6909 14.904 20.1048 14.2188 21.7589C13.5336 23.4131 13.3544 25.2332 13.7037 26.9893C14.053 28.7453 14.9151 30.3583 16.1812 31.6244C17.4472 32.8904 19.0602 33.7526 20.8163 34.1019C22.5723 34.4512 24.3925 34.2719 26.0467 33.5867C27.7008 32.9016 29.1146 31.7413 30.1094 30.2526C31.1041 28.7639 31.635 27.0136 31.635 25.2232C31.6359 22.8208 30.6828 20.5164 28.9853 18.8164C27.2878 17.1164 24.9847 16.16 22.5824 16.1574V16.1706Z" fill="black"/>
<path d="M27.2731 19.5817H15.079C14.6727 20.1226 14.3264 20.7061 14.0461 21.3219C14.1445 21.4369 14.2666 21.5294 14.404 21.5929C14.5413 21.6565 14.6908 21.6897 14.8422 21.6903H27.2731C27.4165 21.6983 27.5601 21.677 27.6949 21.6276C27.8298 21.5782 27.9532 21.5019 28.0576 21.4032C28.1619 21.3045 28.245 21.1856 28.3018 21.0537C28.3587 20.9217 28.388 20.7796 28.388 20.636C28.388 20.4924 28.3587 20.3503 28.3018 20.2183C28.245 20.0864 28.1619 19.9675 28.0576 19.8688C27.9532 19.7701 27.8298 19.6938 27.6949 19.6444C27.5601 19.595 27.4165 19.5737 27.2731 19.5817Z" fill="#6ACC6D"/>
<path d="M14.8423 25.3286H27.2732C27.5533 25.3286 27.8218 25.2174 28.0199 25.0194C28.2179 24.8213 28.3291 24.5528 28.3291 24.2727C28.3291 23.9927 28.2179 23.7241 28.0199 23.5261C27.8218 23.328 27.5533 23.2168 27.2732 23.2168H14.8423C14.5623 23.2168 14.2937 23.328 14.0956 23.5261C13.8976 23.7241 13.7864 23.9927 13.7864 24.2727C13.7864 24.5528 13.8976 24.8213 14.0956 25.0194C14.2937 25.2174 14.5623 25.3286 14.8423 25.3286Z" fill="#6ACC6D"/>
<path d="M14.8423 28.9473H22.4081C22.6881 28.9473 22.9567 28.836 23.1547 28.638C23.3528 28.44 23.464 28.1714 23.464 27.8914C23.464 27.6113 23.3528 27.3427 23.1547 27.1447C22.9567 26.9467 22.6881 26.8354 22.4081 26.8354H14.8423C14.5623 26.8354 14.2937 26.9467 14.0956 27.1447C13.8976 27.3427 13.7864 27.6113 13.7864 27.8914C13.7864 28.1714 13.8976 28.44 14.0956 28.638C14.2937 28.836 14.5623 28.9473 14.8423 28.9473Z" fill="#6ACC6D"/>
<path d="M28.3291 31.513C28.3291 31.2329 28.2178 30.9643 28.0198 30.7663C27.8218 30.5683 27.5532 30.457 27.2731 30.457H14.8027C15.3489 31.2567 16.0145 31.9678 16.7764 32.5656H27.283C27.5608 32.563 27.8263 32.451 28.0221 32.254C28.2179 32.057 28.3282 31.7907 28.3291 31.513Z" fill="#6ACC6D"/>
<path d="M22.5824 34.9206C20.6618 34.9206 18.7844 34.3511 17.1875 33.284C15.5906 32.217 14.346 30.7005 13.611 28.9261C12.876 27.1517 12.6837 25.1993 13.0584 23.3156C13.4331 21.432 14.3579 19.7017 15.716 18.3437C17.074 16.9856 18.8043 16.0608 20.6879 15.6861C22.5716 15.3114 24.5241 15.5037 26.2984 16.2387C28.0728 16.9737 29.5894 18.2183 30.6564 19.8152C31.7234 21.412 32.2929 23.2895 32.2929 25.21C32.2894 27.7844 31.2652 30.2523 29.4449 32.0726C27.6246 33.8929 25.1567 34.9171 22.5824 34.9206ZM22.5824 16.1706C20.7919 16.1706 19.0417 16.7015 17.553 17.6962C16.0643 18.6909 14.904 20.1048 14.2188 21.7589C13.5336 23.4131 13.3544 25.2332 13.7037 26.9893C14.053 28.7453 14.9151 30.3583 16.1812 31.6244C17.4472 32.8904 19.0602 33.7526 20.8163 34.1019C22.5723 34.4512 24.3925 34.2719 26.0467 33.5867C27.7008 32.9016 29.1146 31.7413 30.1094 30.2526C31.1041 28.7639 31.635 27.0136 31.635 25.2232C31.6359 22.8208 30.6828 20.5164 28.9853 18.8164C27.2878 17.1164 24.9847 16.16 22.5824 16.1574V16.1706Z" fill="black"/>
</svg>
