<svg width="50" height="50" viewBox="0 0 50 50" fill="none" xmlns="http://www.w3.org/2000/svg">
<g clip-path="url(#clip0)">
<path d="M25 50C38.8071 50 50 38.8071 50 25C50 11.1929 38.8071 0 25 0C11.1929 0 0 11.1929 0 25C0 38.8071 11.1929 50 25 50Z" fill="#A9EF9A"/>
<path d="M22.2442 20.3276C22.2442 20.3276 24.6164 24.0948 24.2964 27.0019C23.9764 29.9091 22.2442 35.3341 22.2442 35.3341L13.3563 35.2183L13.587 20.2119L22.2442 20.3276Z" fill="white"/>
<path d="M17.0496 24.8792L17.0249 27.3442L23.1042 27.405L23.1288 24.94L17.0496 24.8792Z" fill="#6ACC6D"/>
<path d="M17.0148 28.298L16.99 30.7759L23.0693 30.8367L23.0941 28.3588L17.0148 28.298Z" fill="#6ACC6D"/>
<path d="M21.7857 36.232C21.9178 35.9463 22.0628 35.6306 22.2142 35.2828L13.3807 35.192L13.5342 20.2463L22.2021 20.3349C21.6336 19.1033 21.3394 17.7628 21.3399 16.4063C21.4295 14.4253 21.9206 12.4832 22.7835 10.6978L10.3929 18.4613C10.2371 18.5628 10.116 18.7094 10.0459 18.8816C9.97579 19.0537 9.95993 19.2432 10.0005 19.4246C10.041 19.6061 10.136 19.7708 10.2728 19.8967C10.4095 20.0226 10.5815 20.1037 10.7657 20.1292L12.5814 20.1478L12.4171 36.1392L21.7857 36.232Z" fill="#16284C"/>
<path d="M24.1428 28.9541L24.1485 28.9191C24.1785 28.7149 24.2042 28.5106 24.2257 28.3077L24.2313 28.2527C24.2399 28.167 24.2478 28.0813 24.255 27.9948L24.2585 27.947C24.2664 27.8491 24.2735 27.752 24.2785 27.6541V27.6013C24.2828 27.522 24.2857 27.4427 24.2885 27.3641V27.2863C24.2885 27.1913 24.2928 27.0963 24.2928 27.0006C24.2928 26.8663 24.2892 26.737 24.2857 26.6084C24.2857 26.5722 24.2842 26.5358 24.2814 26.4991C24.2771 26.3927 24.2707 26.2884 24.2635 26.1856C24.2635 26.1406 24.2571 26.0963 24.2528 26.052C24.2464 25.9706 24.2385 25.8906 24.2299 25.8113C24.2235 25.7541 24.2171 25.697 24.21 25.6413C24.2028 25.5856 24.1978 25.5498 24.1914 25.5041C24.1743 25.3827 24.1556 25.2627 24.1342 25.147L24.125 25.0941C24.1107 25.0184 24.0964 24.9434 24.0807 24.8691L24.0321 29.5834C24.0714 29.3756 24.1107 29.1649 24.1428 28.9541Z" fill="white"/>
<path d="M24.0357 29.5858L24.0842 24.8715C24.0192 24.5651 23.9414 24.2744 23.8542 23.9972L16.1063 23.918L16.0264 31.7215L23.4949 31.798C23.7136 31.0705 23.8941 30.3321 24.0357 29.5858ZM23.0692 30.838L16.9899 30.7758L17.0157 28.2987L23.0942 28.3608L23.0692 30.838ZM23.1042 27.4094L17.0249 27.3465L17.0506 24.8823L23.1292 24.9444L23.1042 27.4094Z" fill="#16284C"/>
<path d="M41.0356 18.7771L26.4842 9.23779C26.2549 9.64494 26.0078 10.1028 25.7621 10.5949C24.605 12.9092 23.9943 14.9178 23.9943 16.4042C24.0336 17.8048 24.4354 19.1712 25.1606 20.3699L37.8571 20.4999L37.7035 35.4456L35.3928 35.4221L35.5242 22.6571L27.5371 22.5749L27.4064 35.3399L25.0785 35.3157C24.9457 35.6499 24.8135 35.9671 24.6849 36.2657L38.6471 36.4085L38.8114 20.4171L40.6271 20.4357C40.8115 20.4139 40.9849 20.3365 41.1241 20.2136C41.2633 20.0907 41.3617 19.9282 41.4061 19.7479C41.4505 19.5676 41.4388 19.3781 41.3726 19.2046C41.3064 19.0311 41.1889 18.882 41.0356 18.7771Z" fill="#16284C"/>
<path d="M28.4819 23.5384L28.3615 35.2578L34.4404 35.3203L34.5609 23.6009L28.4819 23.5384Z" fill="#A6FFAE"/>
<path d="M28.4819 23.5384L28.3615 35.2578L34.4404 35.3203L34.5609 23.6009L28.4819 23.5384Z" fill="#6ACC6D"/>
<path d="M25.1607 20.3691L25.2057 20.4584C26.3487 22.4499 26.9506 24.7058 26.9514 27.002C26.8348 29.8635 26.2005 32.6803 25.0792 35.3156L27.4071 35.3399L27.5378 22.5749L35.525 22.657L35.3936 35.422L37.7043 35.4456L37.8571 20.4999L25.1607 20.3691Z" fill="white"/>
</g>
<defs>
<clipPath id="clip0">
<rect width="50" height="50" fill="white"/>
</clipPath>
</defs>
</svg>
