<svg width="50" height="50" viewBox="0 0 50 50" fill="none" xmlns="http://www.w3.org/2000/svg">
<path d="M25 50C38.8071 50 50 38.8071 50 25C50 11.1929 38.8071 0 25 0C11.1929 0 0 11.1929 0 25C0 38.8071 11.1929 50 25 50Z" fill="#A9EF9A"/>
<path d="M28.9958 16.8006H36.4194L28.9958 9.84131V16.8006Z" fill="#32A326" stroke="#16284C" stroke-miterlimit="10"/>
<path d="M28.9958 15.1594V9.71436H15.5194C15.0079 9.71436 14.5174 9.91754 14.1557 10.2792C13.794 10.6409 13.5908 11.1314 13.5908 11.6429V40.0215C13.5908 40.533 13.794 41.0235 14.1557 41.3852C14.5174 41.7469 15.0079 41.9501 15.5194 41.9501H34.4937C35.0052 41.9501 35.4957 41.7469 35.8574 41.3852C36.2191 41.0235 36.4223 40.533 36.4223 40.0215V16.8072H30.6365C30.4205 16.8069 30.2067 16.7641 30.0073 16.6811C29.8079 16.5981 29.6269 16.4766 29.4745 16.3235C29.3221 16.1705 29.2014 15.9889 29.1192 15.7891C29.0371 15.5893 28.9952 15.3753 28.9958 15.1594Z" fill="white" stroke="#16284C" stroke-miterlimit="10"/>
<path d="M33.0987 39.3453H21.3509C21.2444 39.3453 21.1423 39.3031 21.067 39.2278C20.9917 39.1525 20.9495 39.0504 20.9495 38.9439C20.9495 38.8374 20.9917 38.7353 21.067 38.6601C21.1423 38.5848 21.2444 38.5425 21.3509 38.5425H33.0987C33.2052 38.5425 33.3073 38.5848 33.3826 38.6601C33.4579 38.7353 33.5002 38.8374 33.5002 38.9439C33.5002 39.0504 33.4579 39.1525 33.3826 39.2278C33.3073 39.3031 33.2052 39.3453 33.0987 39.3453Z" fill="#32A326"/>
<path d="M24.4538 14.1087H17.3388C17.2847 14.1109 17.2307 14.1023 17.18 14.0831C17.1294 14.064 17.0831 14.0348 17.044 13.9974C17.005 13.9599 16.9739 13.9149 16.9526 13.8651C16.9314 13.8153 16.9204 13.7617 16.9204 13.7076C16.9204 13.6534 16.9314 13.5999 16.9526 13.5501C16.9739 13.5003 17.005 13.4553 17.044 13.4178C17.0831 13.3803 17.1294 13.3512 17.18 13.332C17.2307 13.3129 17.2847 13.3042 17.3388 13.3065H24.4538C24.5079 13.3042 24.5619 13.3129 24.6125 13.332C24.6632 13.3512 24.7094 13.3803 24.7485 13.4178C24.7876 13.4553 24.8187 13.5003 24.8399 13.5501C24.8612 13.5999 24.8721 13.6534 24.8721 13.7076C24.8721 13.7617 24.8612 13.8153 24.8399 13.8651C24.8187 13.9149 24.7876 13.9599 24.7485 13.9974C24.7094 14.0348 24.6632 14.064 24.6125 14.0831C24.5619 14.1023 24.5079 14.1109 24.4538 14.1087Z" fill="#32A326"/>
<path d="M24.4538 16.3201H17.3388C17.2847 16.3224 17.2307 16.3137 17.18 16.2946C17.1294 16.2754 17.0831 16.2462 17.044 16.2088C17.005 16.1713 16.9739 16.1263 16.9526 16.0765C16.9314 16.0267 16.9204 15.9731 16.9204 15.919C16.9204 15.8649 16.9314 15.8113 16.9526 15.7615C16.9739 15.7117 17.005 15.6667 17.044 15.6292C17.0831 15.5918 17.1294 15.5626 17.18 15.5435C17.2307 15.5243 17.2847 15.5157 17.3388 15.5179H24.4538C24.5079 15.5157 24.5619 15.5243 24.6125 15.5435C24.6632 15.5626 24.7094 15.5918 24.7485 15.6292C24.7876 15.6667 24.8187 15.7117 24.8399 15.7615C24.8612 15.8113 24.8721 15.8649 24.8721 15.919C24.8721 15.9731 24.8612 16.0267 24.8399 16.0765C24.8187 16.1263 24.7876 16.1713 24.7485 16.2088C24.7094 16.2462 24.6632 16.2754 24.6125 16.2946C24.5619 16.3137 24.5079 16.3224 24.4538 16.3201Z" fill="#32A326"/>
<path d="M24.4537 18.5314H17.3387C17.2322 18.5314 17.1301 18.4891 17.0548 18.4138C16.9795 18.3385 16.9373 18.2364 16.9373 18.1299C16.9373 18.0235 16.9795 17.9214 17.0548 17.8461C17.1301 17.7708 17.2322 17.7285 17.3387 17.7285H24.4537C24.5601 17.7285 24.6622 17.7708 24.7375 17.8461C24.8128 17.9214 24.8551 18.0235 24.8551 18.1299C24.8551 18.2364 24.8128 18.3385 24.7375 18.4138C24.6622 18.4891 24.5601 18.5314 24.4537 18.5314Z" fill="#32A326"/>
<path d="M32.6923 20.7424H17.3351C17.281 20.7447 17.227 20.736 17.1764 20.7169C17.1257 20.6978 17.0794 20.6686 17.0404 20.6311C17.0013 20.5937 16.9702 20.5487 16.9489 20.4989C16.9277 20.4491 16.9167 20.3955 16.9167 20.3414C16.9167 20.2872 16.9277 20.2336 16.9489 20.1839C16.9702 20.1341 17.0013 20.0891 17.0404 20.0516C17.0794 20.0141 17.1257 19.985 17.1764 19.9658C17.227 19.9467 17.281 19.938 17.3351 19.9403H32.6923C32.7463 19.938 32.8003 19.9467 32.851 19.9658C32.9016 19.985 32.9479 20.0141 32.987 20.0516C33.0261 20.0891 33.0572 20.1341 33.0784 20.1839C33.0997 20.2336 33.1106 20.2872 33.1106 20.3414C33.1106 20.3955 33.0997 20.4491 33.0784 20.4989C33.0572 20.5487 33.0261 20.5937 32.987 20.6311C32.9479 20.6686 32.9016 20.6978 32.851 20.7169C32.8003 20.736 32.7463 20.7447 32.6923 20.7424Z" fill="#32A326"/>
<path d="M32.6923 22.9534H17.3351C17.281 22.9557 17.227 22.947 17.1764 22.9279C17.1257 22.9087 17.0794 22.8796 17.0404 22.8421C17.0013 22.8046 16.9702 22.7596 16.9489 22.7098C16.9277 22.66 16.9167 22.6065 16.9167 22.5523C16.9167 22.4982 16.9277 22.4446 16.9489 22.3948C16.9702 22.345 17.0013 22.3 17.0404 22.2625C17.0794 22.2251 17.1257 22.1959 17.1764 22.1768C17.227 22.1576 17.281 22.149 17.3351 22.1512H32.6923C32.7463 22.149 32.8003 22.1576 32.851 22.1768C32.9016 22.1959 32.9479 22.2251 32.987 22.2625C33.0261 22.3 33.0572 22.345 33.0784 22.3948C33.0997 22.4446 33.1106 22.4982 33.1106 22.5523C33.1106 22.6065 33.0997 22.66 33.0784 22.7098C33.0572 22.7596 33.0261 22.8046 32.987 22.8421C32.9479 22.8796 32.9016 22.9087 32.851 22.9279C32.8003 22.947 32.7463 22.9557 32.6923 22.9534Z" fill="#32A326"/>
<path d="M32.6922 25.1652H17.335C17.2286 25.1652 17.1265 25.1229 17.0512 25.0476C16.9759 24.9723 16.9336 24.8702 16.9336 24.7637C16.9336 24.6573 16.9759 24.5552 17.0512 24.4799C17.1265 24.4046 17.2286 24.3623 17.335 24.3623H32.6922C32.7986 24.3623 32.9007 24.4046 32.976 24.4799C33.0513 24.5552 33.0936 24.6573 33.0936 24.7637C33.0936 24.8702 33.0513 24.9723 32.976 25.0476C32.9007 25.1229 32.7986 25.1652 32.6922 25.1652Z" fill="#32A326"/>
<path d="M26.5581 27.3757H17.3388C17.2847 27.378 17.2307 27.3693 17.18 27.3502C17.1294 27.3311 17.0831 27.3019 17.044 27.2644C17.005 27.227 16.9739 27.182 16.9526 27.1322C16.9314 27.0824 16.9204 27.0288 16.9204 26.9747C16.9204 26.9205 16.9314 26.8669 16.9526 26.8171C16.9739 26.7673 17.005 26.7224 17.044 26.6849C17.0831 26.6474 17.1294 26.6183 17.18 26.5991C17.2307 26.58 17.2847 26.5713 17.3388 26.5736H26.5581C26.6122 26.5713 26.6661 26.58 26.7168 26.5991C26.7674 26.6183 26.8137 26.6474 26.8528 26.6849C26.8919 26.7224 26.923 26.7673 26.9442 26.8171C26.9655 26.8669 26.9764 26.9205 26.9764 26.9747C26.9764 27.0288 26.9655 27.0824 26.9442 27.1322C26.923 27.182 26.8919 27.227 26.8528 27.2644C26.8137 27.3019 26.7674 27.3311 26.7168 27.3502C26.6661 27.3693 26.6122 27.378 26.5581 27.3757Z" fill="#32A326"/>
<path d="M32.6923 29.5872H17.3351C17.281 29.5895 17.227 29.5808 17.1764 29.5616C17.1257 29.5425 17.0794 29.5133 17.0404 29.4759C17.0013 29.4384 16.9702 29.3934 16.9489 29.3436C16.9277 29.2938 16.9167 29.2402 16.9167 29.1861C16.9167 29.132 16.9277 29.0784 16.9489 29.0286C16.9702 28.9788 17.0013 28.9338 17.0404 28.8963C17.0794 28.8589 17.1257 28.8297 17.1764 28.8106C17.227 28.7914 17.281 28.7827 17.3351 28.785H32.6923C32.7463 28.7827 32.8003 28.7914 32.851 28.8106C32.9016 28.8297 32.9479 28.8589 32.987 28.8963C33.0261 28.9338 33.0572 28.9788 33.0784 29.0286C33.0997 29.0784 33.1106 29.132 33.1106 29.1861C33.1106 29.2402 33.0997 29.2938 33.0784 29.3436C33.0572 29.3934 33.0261 29.4384 32.987 29.4759C32.9479 29.5133 32.9016 29.5425 32.851 29.5616C32.8003 29.5808 32.7463 29.5895 32.6923 29.5872Z" fill="#32A326"/>
<path d="M32.6922 31.7985H17.335C17.2286 31.7985 17.1265 31.7562 17.0512 31.6809C16.9759 31.6056 16.9336 31.5035 16.9336 31.397C16.9336 31.2906 16.9759 31.1885 17.0512 31.1132C17.1265 31.0379 17.2286 30.9956 17.335 30.9956H32.6922C32.7986 30.9956 32.9007 31.0379 32.976 31.1132C33.0513 31.1885 33.0936 31.2906 33.0936 31.397C33.0936 31.5035 33.0513 31.6056 32.976 31.6809C32.9007 31.7562 32.7986 31.7985 32.6922 31.7985Z" fill="#32A326"/>
<path d="M26.5581 34.0095H17.3388C17.2847 34.0118 17.2307 34.0031 17.18 33.984C17.1294 33.9649 17.0831 33.9357 17.044 33.8982C17.005 33.8608 16.9739 33.8158 16.9526 33.766C16.9314 33.7162 16.9204 33.6626 16.9204 33.6085C16.9204 33.5543 16.9314 33.5007 16.9526 33.4509C16.9739 33.4011 17.005 33.3561 17.044 33.3187C17.0831 33.2812 17.1294 33.252 17.18 33.2329C17.2307 33.2138 17.2847 33.2051 17.3388 33.2074H26.5581C26.6122 33.2051 26.6661 33.2138 26.7168 33.2329C26.7674 33.252 26.8137 33.2812 26.8528 33.3187C26.8919 33.3561 26.923 33.4011 26.9442 33.4509C26.9655 33.5007 26.9764 33.5543 26.9764 33.6085C26.9764 33.6626 26.9655 33.7162 26.9442 33.766C26.923 33.8158 26.8919 33.8608 26.8528 33.8982C26.8137 33.9357 26.7674 33.9649 26.7168 33.984C26.6661 34.0031 26.6122 34.0118 26.5581 34.0095Z" fill="#32A326"/>
<path d="M23.6322 34.1194C23.7445 34.0069 23.8872 33.9295 24.0428 33.8968C24.1984 33.8641 24.3602 33.8773 24.5084 33.935C24.6565 33.9927 24.7847 34.0924 24.8772 34.2217C24.9697 34.351 25.0225 34.5045 25.0292 34.6634C25.0359 34.8222 24.9962 34.9796 24.9149 35.1163C24.8336 35.2529 24.7143 35.363 24.5715 35.4329C24.4287 35.5029 24.2686 35.5297 24.1108 35.5102C23.953 35.4907 23.8043 35.4256 23.6829 35.323L21.0779 37.928L25.9479 36.2422L26.7707 33.408C26.4741 33.3112 26.2045 33.1459 25.9838 32.9253C25.7632 32.7048 25.5976 32.4352 25.5007 32.1387L22.6672 32.9615L20.9814 37.8315L23.5864 35.2265C23.4537 35.0699 23.3848 34.8691 23.3932 34.664C23.4017 34.4589 23.487 34.2645 23.6322 34.1194Z" fill="#D4F8E8"/>
<path d="M24.3465 34.7444C24.4589 34.6319 24.6016 34.5545 24.7572 34.5218C24.9128 34.4891 25.0745 34.5023 25.2227 34.56C25.3709 34.6177 25.4991 34.7174 25.5915 34.8467C25.684 34.976 25.7368 35.1295 25.7435 35.2884C25.7502 35.4472 25.7105 35.6046 25.6292 35.7413C25.548 35.8779 25.4286 35.988 25.2858 36.0579C25.1431 36.1279 24.983 36.1547 24.8252 36.1352C24.6674 36.1157 24.5187 36.0506 24.3972 35.948L21.7922 38.553L26.6622 36.8672L27.4851 34.033C27.1885 33.9362 26.9189 33.7709 26.6982 33.5503C26.4775 33.3298 26.312 33.0602 26.2151 32.7637L23.3815 33.5865L21.6958 38.4565L24.3008 35.8515C24.1681 35.6949 24.0991 35.4941 24.1076 35.289C24.1161 35.0839 24.2013 34.8895 24.3465 34.7444Z" fill="#16284C"/>
<path d="M29.2816 32.5337L37.5001 24.3751C37.8854 23.9898 38.1018 23.4672 38.1018 22.9223C38.1018 22.3774 37.8854 21.8548 37.5001 21.4694C37.3094 21.2785 37.0829 21.127 36.8337 21.0237C36.5844 20.9204 36.3171 20.8672 36.0473 20.8672C35.7774 20.8672 35.5102 20.9204 35.2609 21.0237C35.0116 21.127 34.7851 21.2785 34.5944 21.4694L26.3759 29.6273C25.9966 30.0139 25.7853 30.5345 25.7879 31.0761C25.7904 31.6177 26.0067 32.1363 26.3896 32.5193C26.7725 32.9023 27.2911 33.1186 27.8326 33.1213C28.3742 33.124 28.8949 32.9129 29.2816 32.5337Z" fill="#D4F8E8"/>
<path d="M29.9959 33.1587L38.2145 25.0001C38.5997 24.6148 38.8161 24.0922 38.8161 23.5473C38.8161 23.0024 38.5997 22.4798 38.2145 22.0944C38.0238 21.9035 37.7973 21.752 37.548 21.6487C37.2987 21.5454 37.0315 21.4922 36.7616 21.4922C36.4918 21.4922 36.2246 21.5454 35.9753 21.6487C35.726 21.752 35.4995 21.9035 35.3088 22.0944L27.0902 30.2523C26.711 30.6389 26.4997 31.1595 26.5022 31.7011C26.5048 32.2427 26.721 32.7613 27.1039 33.1443C27.4868 33.5273 28.0054 33.7436 28.547 33.7463C29.0885 33.749 29.6092 33.5379 29.9959 33.1587Z" fill="#16284C"/>
<path d="M27.685 31.6064C27.6057 31.6065 27.528 31.5832 27.462 31.5393C27.3959 31.4954 27.3443 31.4328 27.3137 31.3596C27.2831 31.2864 27.275 31.2058 27.2902 31.1279C27.3054 31.05 27.3434 30.9784 27.3993 30.9221L35.8657 22.4385C35.9408 22.3627 36.0428 22.3199 36.1494 22.3193C36.256 22.3188 36.3585 22.3606 36.4343 22.4357C36.5101 22.5107 36.553 22.6127 36.5535 22.7194C36.554 22.826 36.5122 22.9285 36.4372 23.0042L27.9714 31.4878C27.934 31.5257 27.8894 31.5557 27.8402 31.5761C27.791 31.5964 27.7383 31.6067 27.685 31.6064Z" fill="#A9EF9A"/>
</svg>
