<svg width="25" height="24" viewBox="0 0 25 24" fill="none" xmlns="http://www.w3.org/2000/svg">
<path d="M2.89258 12C2.89258 17.5228 7.36973 22 12.8926 22C18.4154 22 22.8926 17.5228 22.8926 12C22.8926 6.47715 18.4154 2 12.8926 2C7.36973 2 2.89258 6.47715 2.89258 12Z" fill="#2E81E1"/>
<g clip-path="url(#clip0)">
<path d="M15.3926 7.50015C15.5239 7.36883 15.6798 7.26466 15.8514 7.19359C16.023 7.12252 16.2069 7.08594 16.3926 7.08594C16.5783 7.08594 16.7622 7.12252 16.9338 7.19359C17.1054 7.26466 17.2613 7.36883 17.3926 7.50015C17.5239 7.63147 17.6281 7.78737 17.6991 7.95895C17.7702 8.13054 17.8068 8.31443 17.8068 8.50015C17.8068 8.68587 17.7702 8.86977 17.6991 9.04135C17.6281 9.21293 17.5239 9.36883 17.3926 9.50015L10.6426 16.2502L7.89258 17.0002L8.64258 14.2502L15.3926 7.50015Z" stroke="white" stroke-linecap="round" stroke-linejoin="round"/>
</g>
<defs>
<clipPath id="clip0">
<rect width="12" height="12" fill="white" transform="translate(6.89258 6)"/>
</clipPath>
</defs>
</svg>
