<svg width="32" height="32" viewBox="0 0 32 24" fill="none" xmlns="http://www.w3.org/2000/svg">
<path d="M29 0H3.00002C1.34571 0 0 1.34571 0 3.00002V21C0 22.6543 1.34571 24 3.00002 24H29C30.6543 24 32 22.6543 32 21V3.00002C32 1.34571 30.6543 0 29 0ZM29 1.99999C29.1358 1.99999 29.2651 2.02818 29.3833 2.07741L16 13.6768L2.61667 2.07741C2.73483 2.02824 2.86409 1.99999 2.99995 1.99999H29ZM29 21.9999H3.00002C2.44827 21.9999 1.99999 21.5517 1.99999 20.9999V4.19042L15.3447 15.7558C15.5332 15.9189 15.7666 16 16 16C16.2334 16 16.4668 15.919 16.6553 15.7558L30 4.19042V21C29.9999 21.5517 29.5517 21.9999 29 21.9999Z" fill="#C4C4C4"/>
</svg>
