<svg width="67" height="99" viewBox="0 0 67 99" fill="none" xmlns="http://www.w3.org/2000/svg">
<mask id="mask0" mask-type="alpha" maskUnits="userSpaceOnUse" x="0" y="0" width="67" height="99">
<rect x="0.990723" width="66" height="99" fill="#32D320"/>
</mask>
<g mask="url(#mask0)">
<path d="M66.6962 23.9023C66.9516 23.6521 67.1421 23.3428 67.2512 23.0014C67.3602 22.6599 67.3843 22.2969 67.3214 21.9439C67.2094 21.3635 66.8731 20.8515 66.3861 20.5202C65.8991 20.1889 65.3012 20.0653 64.7238 20.1767C48.7538 23.1611 32.3737 23.1611 16.4037 20.1767C15.8264 20.0668 15.2293 20.191 14.7427 20.5221C14.256 20.8531 13.9192 21.3642 13.8058 21.9439C13.7036 22.4926 13.8111 23.0599 14.1068 23.5324C14.4025 24.0049 14.8647 24.3477 15.4009 24.4924L1.37939 52.7103C1.43319 56.7288 3.05849 60.5644 5.90354 63.387C8.74858 66.2096 12.5845 67.7922 16.5812 67.7922C20.5779 67.7922 24.4138 66.2096 27.2589 63.387C30.1039 60.5644 31.7292 56.7288 31.783 52.7103L18.4283 25.038C25.0129 26.1381 31.6706 26.7362 38.3448 26.8274V88.9834H42.7827V26.8274C49.9177 26.7351 57.0335 26.0607 64.06 24.8109L50.1982 52.7103C50.252 56.7288 51.8773 60.5644 54.7223 63.387C57.5674 66.2096 61.4035 67.7922 65.4002 67.7922C69.3969 67.7922 73.2328 66.2096 76.0778 63.387C78.9229 60.5644 80.5482 56.7288 80.602 52.7103L66.6962 23.9023ZM28.2406 50.4777H4.96888L16.7727 26.7222L28.2406 50.4777ZM53.7877 50.4777L65.5915 26.7222L77.0594 50.4777H53.7877Z" fill="#22BC11"/>
<path d="M42.667 20.5924C43.4797 20.258 44.1754 19.6887 44.6661 18.9565C45.1569 18.2244 45.4206 17.3623 45.4239 16.4794C45.4272 15.5964 45.17 14.7323 44.6848 13.9964C44.1996 13.2606 43.5081 12.6859 42.698 12.3453C41.8879 12.0047 40.9955 11.9135 40.1338 12.0831C39.272 12.2527 38.4797 12.6755 37.8571 13.2981C37.2344 13.9207 36.8095 14.715 36.6359 15.5805C36.4624 16.446 36.548 17.3439 36.8821 18.1604C37.3293 19.2536 38.1897 20.1236 39.2743 20.5796C40.3588 21.0355 41.5791 21.0401 42.667 20.5924Z" fill="#22BC11"/>
<path d="M64.9804 92.5457H59.3609V89.2217H20.3542V92.5457H13.7154V95.637H8.31348V98.9998H70.3935V95.637H64.9804V92.5457Z" fill="#22BC11"/>
</g>
</svg>
