<svg width="62" height="62" viewBox="0 0 62 62" fill="none" xmlns="http://www.w3.org/2000/svg">
<path d="M31 62C48.1208 62 62 48.1208 62 31C62 13.8792 48.1208 0 31 0C13.8792 0 0 13.8792 0 31C0 48.1208 13.8792 62 31 62Z" fill="url(#paint0_linear)"/>
<path d="M18.1899 46.4737V9.34717C17.9651 9.34717 17.7425 9.39145 17.5348 9.47751C17.3272 9.56356 17.1385 9.68969 16.9796 9.84868C16.8207 10.0077 16.6946 10.1964 16.6087 10.4041C16.5228 10.6118 16.4786 10.8344 16.4787 11.0592V47.6614C16.6128 47.3153 16.8475 47.0172 17.1524 46.8055C17.4574 46.5939 17.8187 46.4783 18.1899 46.4737Z" fill="white"/>
<path d="M24.6458 22.6419H29.4482L27.0815 17.7705L24.6458 22.6419Z" fill="white"/>
<path d="M34.7209 22.6419H39.5233L37.1566 17.7705L34.7209 22.6419Z" fill="white"/>
<path d="M43.9279 9.34717H18.9791V46.4736H44.9145V10.3365C44.9149 10.2067 44.8896 10.0781 44.8402 9.9581C44.7908 9.83808 44.7182 9.72899 44.6265 9.63709C44.5348 9.54519 44.4259 9.47228 44.3061 9.42253C44.1862 9.37278 44.0577 9.34717 43.9279 9.34717ZM32.0123 13.9528C32.2465 13.9528 32.4754 14.0223 32.6701 14.1524C32.8649 14.2825 33.0167 14.4673 33.1063 14.6837C33.196 14.9 33.2195 15.1381 33.1738 15.3677C33.1282 15.5974 33.0155 15.8085 32.85 15.9741C32.6845 16.1398 32.4736 16.2526 32.2439 16.2984C32.0143 16.3442 31.7762 16.3209 31.5598 16.2314C31.3434 16.1419 31.1584 15.9903 31.0281 15.7956C30.8979 15.601 30.8283 15.3721 30.8281 15.1379C30.8288 14.8242 30.9539 14.5237 31.1759 14.302C31.3979 14.0804 31.6987 13.9558 32.0123 13.9555V13.9528ZM40.2495 23.097C40.2495 23.929 39.919 24.727 39.3306 25.3153C38.7423 25.9037 37.9443 26.2342 37.1123 26.2342C36.2802 26.2342 35.4823 25.9037 34.8939 25.3153C34.3056 24.727 33.9751 23.929 33.9751 23.097L36.8359 17.3708C35.3858 17.6275 33.9172 17.7658 32.4446 17.7845V30.4094H35.0362V31.3306H28.8548V30.4094H31.5349V17.7871C30.1578 17.7686 28.7839 17.646 27.4252 17.4204L30.1833 23.0996C30.1833 23.9317 29.8528 24.7296 29.2645 25.318C28.6762 25.9063 27.8782 26.2368 27.0462 26.2368C26.2141 26.2368 25.4162 25.9063 24.8278 25.318C24.2395 24.7296 23.9089 23.9317 23.9089 23.0996L26.8026 17.3079C26.6918 17.2786 26.5962 17.2084 26.5351 17.1114C26.474 17.0145 26.4518 16.898 26.4731 16.7854C26.4965 16.6673 26.5653 16.5632 26.6647 16.4953C26.764 16.4274 26.886 16.4012 27.0045 16.4222C30.3004 17.0351 33.681 17.0351 36.9768 16.4222C37.096 16.3996 37.2192 16.4252 37.3197 16.4932C37.4201 16.5613 37.4895 16.6663 37.5126 16.7854C37.5256 16.8578 37.5206 16.9325 37.4981 17.0026C37.4755 17.0727 37.4361 17.1362 37.3833 17.1875L40.253 23.0996L40.2495 23.097Z" fill="white"/>
<path d="M18.5804 47.3965C18.3038 47.3964 18.0298 47.4507 17.7743 47.5566C17.5187 47.6624 17.2864 47.8175 17.0908 48.0131C16.8952 48.2087 16.7401 48.441 16.6343 48.6966C16.5285 48.9522 16.4741 49.2261 16.4742 49.5027V49.6338C16.4743 50.1466 16.6617 50.6417 17.0011 51.0261C17.3405 51.4105 17.8085 51.6578 18.3173 51.7214V48.3167H24.768V51.74H44.9109V47.4L18.5804 47.3965Z" fill="white"/>
<path d="M24.1136 55.9523L21.4369 53.846L18.9791 55.9523V48.9746H24.1162L24.1136 55.9523Z" fill="white"/>
<path d="M18.1891 46.4737V9.34717C17.9643 9.34717 17.7417 9.39145 17.5341 9.47751C17.3264 9.56356 17.1377 9.68969 16.9788 9.84868C16.8199 10.0077 16.6938 10.1964 16.6079 10.4041C16.522 10.6118 16.4778 10.8344 16.4779 11.0592V47.6614C16.612 47.3153 16.8467 47.0172 17.1516 46.8055C17.4566 46.5939 17.8179 46.4783 18.1891 46.4737Z" fill="white"/>
<path d="M24.6458 22.6419H29.4482L27.0815 17.7705L24.6458 22.6419Z" fill="white"/>
<path d="M34.7209 22.6419H39.5233L37.1566 17.7705L34.7209 22.6419Z" fill="white"/>
<path d="M43.9279 9.34717H18.9791V46.4736H44.9145V10.3365C44.9149 10.2067 44.8896 10.0781 44.8402 9.9581C44.7908 9.83808 44.7182 9.72899 44.6265 9.63709C44.5348 9.54519 44.426 9.47228 44.3061 9.42253C44.1862 9.37278 44.0577 9.34717 43.9279 9.34717ZM32.0123 13.9528C32.2465 13.9528 32.4754 14.0223 32.6701 14.1524C32.8649 14.2825 33.0167 14.4673 33.1063 14.6837C33.196 14.9 33.2195 15.1381 33.1738 15.3677C33.1282 15.5974 33.0155 15.8085 32.85 15.9741C32.6845 16.1398 32.4736 16.2526 32.2439 16.2984C32.0143 16.3442 31.7762 16.3209 31.5598 16.2314C31.3434 16.1419 31.1584 15.9903 31.0281 15.7956C30.8979 15.601 30.8283 15.3721 30.8281 15.1379C30.8288 14.8242 30.9539 14.5237 31.1759 14.302C31.3979 14.0804 31.6987 13.9558 32.0123 13.9555V13.9528ZM40.2495 23.097C40.2495 23.929 39.919 24.727 39.3306 25.3153C38.7423 25.9037 37.9443 26.2342 37.1123 26.2342C36.2803 26.2342 35.4823 25.9037 34.8939 25.3153C34.3056 24.727 33.9751 23.929 33.9751 23.097L36.8359 17.3708C35.3858 17.6275 33.9172 17.7658 32.4446 17.7845V30.4094H35.0362V31.3306H28.8548V30.4094H31.5349V17.7871C30.1578 17.7686 28.7839 17.646 27.4252 17.4204L30.1833 23.0996C30.1833 23.9317 29.8528 24.7296 29.2645 25.318C28.6762 25.9063 27.8782 26.2368 27.0462 26.2368C26.2141 26.2368 25.4162 25.9063 24.8278 25.318C24.2395 24.7296 23.9089 23.9317 23.9089 23.0996L26.8026 17.3079C26.6918 17.2786 26.5962 17.2084 26.5351 17.1114C26.474 17.0145 26.4518 16.898 26.4731 16.7854C26.4965 16.6673 26.5653 16.5632 26.6647 16.4953C26.764 16.4274 26.886 16.4012 27.0045 16.4222C30.3004 17.0351 33.681 17.0351 36.9768 16.4222C37.096 16.3996 37.2192 16.4252 37.3197 16.4932C37.4201 16.5613 37.4895 16.6663 37.5126 16.7854C37.5256 16.8578 37.5206 16.9325 37.4981 17.0026C37.4755 17.0727 37.4361 17.1362 37.3833 17.1875L40.253 23.0996L40.2495 23.097Z" fill="white"/>
<path d="M18.5804 47.3965C18.3038 47.3964 18.0298 47.4507 17.7743 47.5566C17.5187 47.6624 17.2864 47.8175 17.0908 48.0131C16.8952 48.2087 16.7401 48.441 16.6343 48.6966C16.5285 48.9522 16.4741 49.2261 16.4742 49.5027V49.6338C16.4743 50.1466 16.6617 50.6417 17.0011 51.0261C17.3405 51.4105 17.8085 51.6578 18.3173 51.7214V48.3167H24.768V51.74H44.9109V47.4L18.5804 47.3965Z" fill="white"/>
<path d="M24.1135 55.9523L21.4369 53.846L18.9791 55.9523V48.9746H24.1162L24.1135 55.9523Z" fill="white"/>
<defs>
<linearGradient id="paint0_linear" x1="31" y1="61.504" x2="31" y2="1.054" gradientUnits="userSpaceOnUse">
<stop stop-color="#672CFF"/>
<stop offset="1" stop-color="#8167FF"/>
</linearGradient>
</defs>
</svg>
