<svg width="62" height="62" viewBox="0 0 62 62" fill="none" xmlns="http://www.w3.org/2000/svg">
<g clip-path="url(#clip0)">
<path d="M31 62C48.1208 62 62 48.1208 62 31C62 13.8792 48.1208 0 31 0C13.8792 0 0 13.8792 0 31C0 48.1208 13.8792 62 31 62Z" fill="url(#paint0_linear)"/>
<path d="M24.0986 27.5676C20.9472 27.5676 18.9366 26.9893 17.6036 24.3569C17.6036 24.4349 17.6036 28.3427 12.2627 30.665C12.8611 32.6687 14.2131 34.3623 16.0344 35.3898C17.8556 36.4173 20.0043 36.6987 22.0287 36.1748C24.0531 35.6508 25.7956 34.3624 26.8897 32.5803C27.9838 30.7983 28.3444 28.6615 27.8956 26.6191C26.7274 27.2432 25.4231 27.5691 24.0986 27.5676Z" fill="white"/>
<path d="M23.5007 37.4263L25.3164 52.8103H14.6878L16.5044 37.4263C14.3892 37.8923 12.4964 39.0665 11.1393 40.7546C9.78223 42.4427 9.0421 44.5435 9.04138 46.7095V61.1076C9.04138 61.9902 9.39197 62.8366 10.016 63.4606C10.6401 64.0847 11.4865 64.4353 12.369 64.4353H27.6343C28.5168 64.4353 29.3633 64.0847 29.9873 63.4606C30.6114 62.8366 30.9619 61.9902 30.9619 61.1076V46.7095C30.9614 44.5437 30.2216 42.443 28.8649 40.7549C27.5081 39.0669 25.6157 37.8925 23.5007 37.4263Z" fill="white"/>
<path d="M24.0984 25.7964C25.4229 25.7978 26.7273 25.472 27.8955 24.8478C27.665 23.7843 27.222 22.7782 26.5932 21.8901C25.9643 21.002 25.1627 20.25 24.2361 19.6793C23.3096 19.1086 22.2773 18.731 21.2012 18.569C20.1251 18.407 19.0274 18.4641 17.9739 18.7368C16.9204 19.0094 15.9328 19.492 15.0704 20.1557C14.208 20.8194 13.4886 21.6504 12.9552 22.5989C12.4218 23.5475 12.0856 24.594 11.9666 25.6756C11.8475 26.7573 11.9482 27.8519 12.2626 28.8937C13.6492 28.2418 14.8218 27.2088 15.6433 25.9153C16.4648 24.6219 16.9014 23.1215 16.902 21.5892C16.902 21.5104 16.8931 21.4342 16.8905 21.3563C17.5635 22.6908 18.5935 23.8124 19.8661 24.5963C21.1386 25.3802 22.6038 25.7957 24.0984 25.7964Z" fill="white"/>
<path d="M31.6439 11.0405H47.4796C47.8069 11.0405 48.1208 11.1705 48.3523 11.4018C48.5838 11.6332 48.714 11.947 48.7142 12.2743V22.7257C48.7142 23.0532 48.5842 23.3672 48.3526 23.5988C48.1211 23.8303 47.807 23.9604 47.4796 23.9604H38.0121L32.9937 27.8363V23.9604H31.6439C31.3165 23.9602 31.0027 23.83 30.7714 23.5985C30.54 23.367 30.41 23.0531 30.41 22.7257V12.2743C30.41 11.9471 30.5401 11.6332 30.7714 11.4019C31.0028 11.1705 31.3166 11.0405 31.6439 11.0405Z" fill="white"/>
<g filter="url(#filter0_d)">
<path d="M47.4796 11.0403C47.8069 11.0403 48.1208 11.1703 48.3524 11.4016C48.5839 11.633 48.7141 11.9468 48.7143 12.2741V22.7256C48.7143 23.053 48.5842 23.367 48.3527 23.5986C48.1211 23.8301 47.8071 23.9602 47.4796 23.9602H38.0122L32.9937 27.8361V23.9602H31.6439C31.3166 23.96 31.0028 23.8298 30.7714 23.5983C30.5401 23.3668 30.4101 23.0529 30.4101 22.7256V12.2741C30.4101 12.1121 30.4421 11.9517 30.5041 11.802C30.5661 11.6523 30.6569 11.5162 30.7715 11.4017C30.8861 11.2871 31.0221 11.1962 31.1717 11.1342C31.3214 11.0722 31.4819 11.0403 31.6439 11.0403H47.4796ZM47.4796 9.74805H31.6439C30.9742 9.74875 30.3321 10.0151 29.8585 10.4887C29.3849 10.9623 29.1186 11.6044 29.1179 12.2741V22.7256C29.1186 23.3953 29.3849 24.0374 29.8585 24.5109C30.3321 24.9845 30.9742 25.2509 31.6439 25.2516H31.7024V30.4685L33.7838 28.86L38.4533 25.2534H47.4796C48.1494 25.2527 48.7914 24.9863 49.265 24.5127C49.7386 24.0391 50.005 23.397 50.0057 22.7273V12.2759C50.005 11.6061 49.7386 10.9641 49.265 10.4905C48.7914 10.0169 48.1494 9.75053 47.4796 9.74983V9.74805Z" fill="white"/>
</g>
<path d="M34.0709 15.7781H45.269C45.4362 15.7719 45.5945 15.7012 45.7107 15.5807C45.8268 15.4602 45.8917 15.2993 45.8917 15.132C45.8917 14.9646 45.8268 14.8038 45.7107 14.6833C45.5945 14.5628 45.4362 14.492 45.269 14.4858H34.0709C33.9037 14.492 33.7454 14.5628 33.6293 14.6833C33.5132 14.8038 33.4483 14.9646 33.4483 15.132C33.4483 15.2993 33.5132 15.4602 33.6293 15.5807C33.7454 15.7012 33.9037 15.7719 34.0709 15.7781Z" fill="#32D320"/>
<path d="M34.0707 18.1463H45.2688C45.44 18.1463 45.6043 18.0783 45.7254 17.9572C45.8465 17.8361 45.9145 17.6719 45.9145 17.5006C45.9145 17.3294 45.8465 17.1652 45.7254 17.0441C45.6043 16.923 45.44 16.855 45.2688 16.855H34.0707C33.8994 16.855 33.7352 16.923 33.6142 17.0441C33.4931 17.1652 33.425 17.3294 33.425 17.5006C33.425 17.6719 33.4931 17.8361 33.6142 17.9572C33.7352 18.0783 33.8994 18.1463 34.0707 18.1463Z" fill="#32D320"/>
<path d="M33.9627 20.5154H41.0697C41.2369 20.5092 41.3952 20.4385 41.5113 20.318C41.6274 20.1975 41.6923 20.0366 41.6923 19.8693C41.6923 19.7019 41.6274 19.5411 41.5113 19.4206C41.3952 19.3001 41.2369 19.2293 41.0697 19.2231H33.9627C33.7955 19.2293 33.6372 19.3001 33.5211 19.4206C33.405 19.5411 33.3401 19.7019 33.3401 19.8693C33.3401 20.0366 33.405 20.1975 33.5211 20.318C33.6372 20.4385 33.7955 20.5092 33.9627 20.5154Z" fill="#32D320"/>
</g>
<defs>
<filter id="filter0_d" x="23.1179" y="6.74805" width="32.8878" height="32.7204" filterUnits="userSpaceOnUse" color-interpolation-filters="sRGB">
<feFlood flood-opacity="0" result="BackgroundImageFix"/>
<feColorMatrix in="SourceAlpha" type="matrix" values="0 0 0 0 0 0 0 0 0 0 0 0 0 0 0 0 0 0 127 0"/>
<feOffset dy="3"/>
<feGaussianBlur stdDeviation="3"/>
<feColorMatrix type="matrix" values="0 0 0 0 0 0 0 0 0 0 0 0 0 0 0 0 0 0 0.161 0"/>
<feBlend mode="normal" in2="BackgroundImageFix" result="effect1_dropShadow"/>
<feBlend mode="normal" in="SourceGraphic" in2="effect1_dropShadow" result="shape"/>
</filter>
<linearGradient id="paint0_linear" x1="31" y1="0" x2="31" y2="62" gradientUnits="userSpaceOnUse">
<stop stop-color="#1AFF00"/>
<stop offset="1" stop-color="#12B400"/>
</linearGradient>
<clipPath id="clip0">
<rect width="62" height="62" fill="white"/>
</clipPath>
</defs>
</svg>
