<svg xmlns="http://www.w3.org/2000/svg" viewBox="0 0 494.03 91.4"><defs><style>.cls-1{fill:#32d320;}</style></defs><title>Logo heylaw</title><g id="Layer_2" data-name="Layer 2"><g id="Layer_1-2" data-name="Layer 1"><path class="cls-1" d="M95.93,26A27.43,27.43,0,0,0,49.11,45.4,21.7,21.7,0,1,1,44.42,32a2.88,2.88,0,1,0,4.5-3.61A27.45,27.45,0,1,0,54.86,45.4a21.7,21.7,0,1,1,4.72,13.48,2.88,2.88,0,1,0-4.49,3.62A27.43,27.43,0,1,0,95.93,26Z"/><path class="cls-1" d="M52,21.1A10.55,10.55,0,1,1,62.53,10.55,10.56,10.56,0,0,1,52,21.1ZM52,5.75a4.8,4.8,0,1,0,4.8,4.8A4.8,4.8,0,0,0,52,5.75Z"/><path class="cls-1" d="M27.68,35A10.39,10.39,0,1,1,17.28,45.4,10.41,10.41,0,0,1,27.68,35m0-5.75A16.15,16.15,0,1,0,43.83,45.4,16.15,16.15,0,0,0,27.68,29.25Z"/><path class="cls-1" d="M77,35A10.39,10.39,0,1,1,66.59,45.4,10.41,10.41,0,0,1,77,35m0-5.75A16.15,16.15,0,1,0,93.13,45.4,16.15,16.15,0,0,0,77,29.25Z"/><path class="cls-1" d="M59.49,87.68h-15a3.51,3.51,0,0,1-3-5.26l7.51-13a3.51,3.51,0,0,1,6.07,0l7.51,13a3.51,3.51,0,0,1-3,5.26ZM47.84,82.22h8.27L52,75.06Zm5.82-10.09h0Z"/><path d="M188.84,9.35V73H174.1V46.92H145.17V73H130.44V9.35h14.74V34.46H174.1V9.35Z"/><path d="M234.37,61.25a16.42,16.42,0,0,0,5.5-3.59l7.55,8.19q-6.91,7.91-20.19,7.91a31.94,31.94,0,0,1-14.65-3.23,23.66,23.66,0,0,1-9.82-9,24.67,24.67,0,0,1-3.46-13,25,25,0,0,1,3.41-13,23.9,23.9,0,0,1,9.37-9,27.7,27.7,0,0,1,13.42-3.23,27.38,27.38,0,0,1,12.74,3,22.76,22.76,0,0,1,9.14,8.55,24.93,24.93,0,0,1,3.41,13.24l-36.2,7a10.85,10.85,0,0,0,4.87,5.46,16.73,16.73,0,0,0,8.14,1.82A18.76,18.76,0,0,0,234.37,61.25Zm-17.6-23.7Q213.4,41,213.22,47.1l23.83-4.64A10.7,10.7,0,0,0,233,36.37a12.25,12.25,0,0,0-7.46-2.27A11.65,11.65,0,0,0,216.77,37.55Z"/><path d="M309.64,24.09V64.84q0,13.46-6.82,20T283,91.4a48,48,0,0,1-13.05-1.73,29.55,29.55,0,0,1-10.32-5l5.64-10.19a23,23,0,0,0,7.55,4,28.87,28.87,0,0,0,9,1.46q7.1,0,10.37-3.27t3.28-10V65A18.57,18.57,0,0,1,289,69.21a21.82,21.82,0,0,1-8,1.46q-9.64,0-15.28-5.5t-5.64-16.51V24.09h14.19V46.56q0,11.92,9.91,11.92a10.66,10.66,0,0,0,8.19-3.32q3.09-3.32,3.09-9.87V24.09Z"/><path d="M327.47,69.34q-4.64-4.41-4.64-12.51V5.53H337V56a6.68,6.68,0,0,0,1.59,4.78,5.9,5.9,0,0,0,4.5,1.68,9.52,9.52,0,0,0,2.23-.27,6.89,6.89,0,0,0,1.77-.64l.64,11a23.18,23.18,0,0,1-7.37,1.18Q332.11,73.76,327.47,69.34Z"/><path d="M403.52,24.09V73H390V67.39q-5.28,6.37-15.28,6.37a25.41,25.41,0,0,1-12.51-3.09,22.14,22.14,0,0,1-8.78-8.82,26.89,26.89,0,0,1-3.18-13.28,26.89,26.89,0,0,1,3.18-13.28,22.15,22.15,0,0,1,8.78-8.82,25.42,25.42,0,0,1,12.51-3.09q9.37,0,14.65,5.91V24.09ZM386.05,58.43q3.55-3.68,3.55-9.87t-3.55-9.87a12.74,12.74,0,0,0-17.92,0q-3.55,3.68-3.55,9.87t3.55,9.87a12.74,12.74,0,0,0,17.92,0Z"/><path d="M494,24.09v27q0,10.83-5.91,16.74t-16.83,5.91A24.71,24.71,0,0,1,462,72.12a15.73,15.73,0,0,1-6.78-5.28,15.78,15.78,0,0,1-6.73,5.28A24.9,24.9,0,0,1,439,73.76q-11,0-16.83-5.91t-5.82-16.74v-27h14.19V50q0,6.1,2.09,9t6.55,2.87q4.55,0,6.73-2.91T448.09,50V24.09h14.19V50q0,6,2.18,8.92t6.73,2.91q4.45,0,6.55-2.87t2.09-9V24.09Z"/></g></g></svg>