<svg width="62" height="62" viewBox="0 0 62 62" fill="none" xmlns="http://www.w3.org/2000/svg">
<path d="M31 62C48.1208 62 62 48.1208 62 31C62 13.8792 48.1208 0 31 0C13.8792 0 0 13.8792 0 31C0 48.1208 13.8792 62 31 62Z" fill="url(#paint0_linear)"/>
<path d="M42.3396 51.9035H21.5616C21.3737 51.9035 21.1935 51.8288 21.0606 51.6959C20.9277 51.563 20.8531 51.3828 20.8531 51.1949C20.8531 51.007 20.9277 50.8267 21.0606 50.6939C21.1935 50.561 21.3737 50.4863 21.5616 50.4863H42.3396C42.5275 50.4863 42.7078 50.561 42.8406 50.6939C42.9735 50.8267 43.0482 51.007 43.0482 51.1949C43.0482 51.3828 42.9735 51.563 42.8406 51.6959C42.7078 51.8288 42.5275 51.9035 42.3396 51.9035Z" fill="white"/>
<path d="M27.0496 15.0964H14.4654C14.2775 15.0964 14.0972 15.0217 13.9644 14.8888C13.8315 14.756 13.7568 14.5757 13.7568 14.3878C13.7568 14.1999 13.8315 14.0197 13.9644 13.8868C14.0972 13.7539 14.2775 13.6792 14.4654 13.6792H27.0496C27.2376 13.6792 27.4178 13.7539 27.5507 13.8868C27.6836 14.0197 27.7582 14.1999 27.7582 14.3878C27.7582 14.5757 27.6836 14.756 27.5507 14.8888C27.4178 15.0217 27.2376 15.0964 27.0496 15.0964Z" fill="white"/>
<path d="M41.6205 19.007H14.4654C14.2775 19.007 14.0972 18.9323 13.9644 18.7994C13.8315 18.6665 13.7568 18.4863 13.7568 18.2984C13.7568 18.1105 13.8315 17.9303 13.9644 17.7974C14.0972 17.6645 14.2775 17.5898 14.4654 17.5898H41.6205C41.8084 17.5898 41.9887 17.6645 42.1215 17.7974C42.2544 17.9303 42.3291 18.1105 42.3291 18.2984C42.3291 18.4863 42.2544 18.6665 42.1215 18.7994C41.9887 18.9323 41.8084 19.007 41.6205 19.007Z" fill="white"/>
<path d="M41.6205 22.9181H14.4654C14.2775 22.9181 14.0972 22.8434 13.9644 22.7106C13.8315 22.5777 13.7568 22.3975 13.7568 22.2095C13.7568 22.0216 13.8315 21.8414 13.9644 21.7085C14.0972 21.5756 14.2775 21.501 14.4654 21.501H41.6205C41.8084 21.501 41.9887 21.5756 42.1215 21.7085C42.2544 21.8414 42.3291 22.0216 42.3291 22.2095C42.3291 22.3975 42.2544 22.5777 42.1215 22.7106C41.9887 22.8434 41.8084 22.9181 41.6205 22.9181Z" fill="white"/>
<path d="M41.6205 26.8287H14.4654C14.2775 26.8287 14.0972 26.7541 13.9644 26.6212C13.8315 26.4883 13.7568 26.3081 13.7568 26.1202C13.7568 25.9323 13.8315 25.752 13.9644 25.6192C14.0972 25.4863 14.2775 25.4116 14.4654 25.4116H41.6205C41.8084 25.4116 41.9887 25.4863 42.1215 25.6192C42.2544 25.752 42.3291 25.9323 42.3291 26.1202C42.3291 26.3081 42.2544 26.4883 42.1215 26.6212C41.9887 26.7541 41.8084 26.8287 41.6205 26.8287Z" fill="white"/>
<path d="M30.7714 30.7399H14.4654C14.2775 30.7399 14.0972 30.6652 13.9644 30.5323C13.8315 30.3995 13.7568 30.2192 13.7568 30.0313C13.7568 29.8434 13.8315 29.6632 13.9644 29.5303C14.0972 29.3974 14.2775 29.3228 14.4654 29.3228H30.7714C30.9593 29.3228 31.1396 29.3974 31.2724 29.5303C31.4053 29.6632 31.48 29.8434 31.48 30.0313C31.48 30.2192 31.4053 30.3995 31.2724 30.5323C31.1396 30.6652 30.9593 30.7399 30.7714 30.7399Z" fill="white"/>
<path d="M41.6205 34.6505H14.4654C14.2775 34.6505 14.0972 34.5759 13.9644 34.443C13.8315 34.3101 13.7568 34.1299 13.7568 33.942C13.7568 33.754 13.8315 33.5738 13.9644 33.4409C14.0972 33.3081 14.2775 33.2334 14.4654 33.2334H41.6205C41.8084 33.2334 41.9887 33.3081 42.1215 33.4409C42.2544 33.5738 42.3291 33.754 42.3291 33.942C42.3291 34.1299 42.2544 34.3101 42.1215 34.443C41.9887 34.5759 41.8084 34.6505 41.6205 34.6505Z" fill="white"/>
<path d="M36.3488 38.5617H14.3335C14.1719 38.5262 14.0273 38.4367 13.9236 38.3078C13.8199 38.1789 13.7634 38.0185 13.7634 37.8531C13.7634 37.6877 13.8199 37.5273 13.9236 37.3984C14.0273 37.2695 14.1719 37.18 14.3335 37.1445H36.3506C36.5121 37.18 36.6567 37.2695 36.7604 37.3984C36.8641 37.5273 36.9206 37.6877 36.9206 37.8531C36.9206 38.0185 36.8641 38.1789 36.7604 38.3078C36.6567 38.4367 36.5121 38.5262 36.3506 38.5617H36.3488Z" fill="white"/>
<path d="M30.7714 42.4719H14.4654C14.2775 42.4719 14.0972 42.3972 13.9644 42.2643C13.8315 42.1314 13.7568 41.9512 13.7568 41.7632C13.7568 41.5753 13.8315 41.3951 13.9644 41.2622C14.0972 41.1293 14.2775 41.0547 14.4654 41.0547H30.7714C30.9593 41.0547 31.1396 41.1293 31.2724 41.2622C31.4053 41.3951 31.48 41.5753 31.48 41.7632C31.48 41.9512 31.4053 42.1314 31.2724 42.2643C31.1396 42.3972 30.9593 42.4719 30.7714 42.4719Z" fill="white"/>
<path d="M25.7503 42.4147C25.949 42.2152 26.2015 42.078 26.4769 42.0198C26.7524 41.9616 27.0388 41.9849 27.3012 42.087C27.5636 42.189 27.7905 42.3653 27.9543 42.5943C28.1181 42.8233 28.2115 43.0951 28.2232 43.3763C28.2349 43.6576 28.1644 43.9362 28.0203 44.178C27.8761 44.4199 27.6646 44.6144 27.4117 44.7379C27.1587 44.8615 26.8752 44.9086 26.5958 44.8735C26.3165 44.8384 26.0535 44.7227 25.8389 44.5404L21.2332 49.1461L29.8467 46.1648L31.3011 41.1525C30.7767 40.9811 30.3002 40.6884 29.91 40.2983C29.5199 39.9082 29.2273 39.4316 29.0558 38.9072L24.0435 40.3625L21.0649 48.9796L25.6706 44.3739C25.4356 44.0969 25.3133 43.7417 25.3281 43.3787C25.3429 43.0158 25.4936 42.6717 25.7503 42.4147Z" fill="url(#paint1_linear)"/>
<path d="M48.8302 21.4052C48.493 21.0678 48.0926 20.8001 47.6519 20.6174C47.2111 20.4348 46.7387 20.3408 46.2617 20.3408C45.7846 20.3408 45.3122 20.4348 44.8715 20.6174C44.4308 20.8001 44.0303 21.0678 43.6931 21.4052L30.6058 34.4713C29.9245 35.1525 29.5419 36.0764 29.5419 37.0398C29.5419 38.0032 29.9245 38.9272 30.6058 39.6084C31.287 40.2896 32.2109 40.6724 33.1743 40.6724C34.1377 40.6724 35.0617 40.2896 35.7429 39.6084L48.8302 26.5423C49.1677 26.2051 49.4353 25.8047 49.618 25.3639C49.8006 24.9232 49.8946 24.4509 49.8946 23.9738C49.8946 23.4967 49.8006 23.0243 49.618 22.5836C49.4353 22.1429 49.1677 21.7424 48.8302 21.4052Z" fill="url(#paint2_linear)"/>
<path d="M26.8601 43.7707C27.0588 43.5712 27.3113 43.434 27.5867 43.3758C27.8622 43.3176 28.1486 43.3409 28.411 43.4429C28.6734 43.545 28.9003 43.7213 29.0641 43.9503C29.2278 44.1793 29.3213 44.451 29.333 44.7323C29.3447 45.0136 29.2742 45.2923 29.1301 45.5341C28.986 45.7759 28.7744 45.9705 28.5215 46.094C28.2685 46.2175 27.9849 46.2646 27.7056 46.2295C27.4263 46.1944 27.1632 46.0786 26.9487 45.8964L22.3429 50.5021L30.9565 47.5199L32.4109 42.5147C31.8864 42.343 31.4097 42.0502 31.0194 41.66C30.6292 41.2698 30.3364 40.7931 30.1647 40.2686L25.1533 41.7238L22.172 50.3373L26.7777 45.7317C26.5426 45.4542 26.4205 45.0984 26.4357 44.7351C26.451 44.3717 26.6025 44.0274 26.8601 43.7707Z" fill="white"/>
<path d="M49.9392 22.7631C49.6019 22.4257 49.2015 22.158 48.7608 21.9754C48.32 21.7927 47.8477 21.6987 47.3706 21.6987C46.8935 21.6987 46.4211 21.7927 45.9804 21.9754C45.5397 22.158 45.1393 22.4257 44.802 22.7631L31.7147 35.8292C31.0335 36.5104 30.6508 37.4343 30.6508 38.3977C30.6508 39.3611 31.0335 40.2851 31.7147 40.9663C32.3959 41.6475 33.3199 42.0303 34.2833 42.0303C35.2467 42.0303 36.1706 41.6475 36.8519 40.9663L49.9392 27.9002C50.2766 27.563 50.5443 27.1626 50.7269 26.7218C50.9096 26.2811 51.0035 25.8087 51.0035 25.3317C51.0035 24.8546 50.9096 24.3822 50.7269 23.9415C50.5443 23.5008 50.2766 23.1003 49.9392 22.7631Z" fill="white"/>
<defs>
<linearGradient id="paint0_linear" x1="31" y1="62" x2="31" y2="1.302" gradientUnits="userSpaceOnUse">
<stop stop-color="#E62968"/>
<stop offset="1" stop-color="#FF3276"/>
</linearGradient>
<linearGradient id="paint1_linear" x1="21.0649" y1="44.0267" x2="31.3011" y2="44.0267" gradientUnits="userSpaceOnUse">
<stop stop-color="#ED2C6C"/>
<stop offset="0.559" stop-color="#F93073"/>
<stop offset="1" stop-color="#FF3277"/>
</linearGradient>
<linearGradient id="paint2_linear" x1="29.5419" y1="30.5066" x2="49.8946" y2="30.5066" gradientUnits="userSpaceOnUse">
<stop stop-color="#ED2C6C"/>
<stop offset="0.559" stop-color="#F93073"/>
<stop offset="1" stop-color="#FF3277"/>
</linearGradient>
</defs>
</svg>
