<svg width="68" height="71" viewBox="0 0 68 71" fill="none" xmlns="http://www.w3.org/2000/svg">
<path d="M13.5939 48.0376C14.1698 47.4617 14.901 47.0659 15.6982 46.8986C16.4953 46.7313 17.3239 46.7997 18.0828 47.0956C18.8417 47.3914 19.4979 47.9019 19.9715 48.5645C20.4451 49.2272 20.7156 50.0134 20.7497 50.8272C20.7839 51.6409 20.5803 52.4471 20.1639 53.1471C19.7475 53.8471 19.1362 54.4107 18.4048 54.7691C17.6734 55.1275 16.8535 55.2651 16.0451 55.1652C15.2367 55.0653 14.4749 54.7322 13.8528 54.2065L0.506552 67.5528L25.459 58.9152L29.6739 44.3948C28.1542 43.8984 26.773 43.0505 25.6425 41.9201C24.5121 40.7896 23.6641 39.4084 23.1678 37.8887L8.64734 42.1036L0.00976562 67.056L13.3561 53.7097C12.6775 52.9066 12.3253 51.8779 12.3693 50.8273C12.4134 49.7768 12.8504 48.7812 13.5939 48.0376Z" fill="#E62968"/>
<path d="M42.5267 39.9117L64.4715 17.9669C66.4432 15.9914 67.5506 13.3142 67.5506 10.5231C67.5506 7.73187 66.4432 5.05476 64.4715 3.07921C62.4959 1.10744 59.8187 0 57.0276 0C54.2364 0 51.5592 1.10744 49.5837 3.07921L27.6359 25.024C25.7947 27.0248 24.7982 29.66 24.8548 32.3785C24.9114 35.097 26.0166 37.6885 27.9395 39.611C29.8624 41.5335 32.4541 42.6382 35.1727 42.6943C37.8912 42.7503 40.5262 41.7533 42.5267 39.9117Z" fill="#E62968"/>
<path d="M66.2362 68.6362H1.00405C0.737753 68.6362 0.4824 68.742 0.294102 68.9303C0.105805 69.1186 0 69.374 0 69.6403C0 69.9066 0.105805 70.162 0.294102 70.3503C0.4824 70.5386 0.737753 70.6444 1.00405 70.6444H66.2362C66.5025 70.6444 66.7579 70.5386 66.9462 70.3503C67.1345 70.162 67.2402 69.9066 67.2402 69.6403C67.2402 69.374 67.1345 69.1186 66.9462 68.9303C66.7579 68.742 66.5025 68.6362 66.2362 68.6362Z" fill="#E62968"/>
</svg>
