<svg width="32" height="32" viewBox="0 0 32 33" fill="none" xmlns="http://www.w3.org/2000/svg">
<path d="M27.3045 4.68875C24.2801 1.6644 20.268 0 15.992 0C11.7159 0 7.70377 1.6644 4.67943 4.68875C-1.16628 10.5345 -1.57224 19.8916 3.67131 26.2042C3.15711 27.2394 2.33167 28.4437 1.10705 29.0459C0.518418 29.3368 0.18689 29.966 0.288379 30.6155C0.389867 31.2651 0.890541 31.7725 1.54006 31.874C1.84453 31.9214 2.27754 31.9687 2.80528 31.9687C4.21935 31.9687 6.30324 31.6372 8.43448 30.1013C10.8093 31.3801 13.4074 32.0026 15.9852 32.0026C20.1259 32.0026 24.226 30.399 27.3113 27.3138C30.3356 24.2895 32 20.2773 32 16.0013C32 11.7252 30.3288 7.71309 27.3045 4.68875ZM26.0122 26.0215C21.4452 30.5885 14.3749 31.4951 8.81337 28.2272C8.44802 28.0107 7.9947 28.0783 7.70377 28.3693C7.67671 28.3828 7.64964 28.4031 7.62934 28.4234C5.79579 29.8442 3.99607 30.1419 2.80528 30.1419H2.79852C4.17199 29.1406 5.03802 27.6521 5.54546 26.4951C5.62665 26.2989 5.64018 26.0959 5.59282 25.9065C5.57252 25.7238 5.4981 25.5411 5.36954 25.3923C0.41693 19.7969 0.674033 11.2719 5.96494 5.98103C11.4927 0.453313 20.4845 0.453313 26.0054 5.98103C31.5399 11.5087 31.5399 20.4938 26.0122 26.0215Z" fill="#C4C4C4"/>
<path d="M15.9899 17.1242C16.6102 17.1242 17.113 16.6214 17.113 16.0011C17.113 15.3808 16.6102 14.8779 15.9899 14.8779C15.3696 14.8779 14.8668 15.3808 14.8668 16.0011C14.8668 16.6214 15.3696 17.1242 15.9899 17.1242Z" fill="#C4C4C4"/>
<path d="M21.7818 17.1242C22.4021 17.1242 22.9049 16.6214 22.9049 16.0011C22.9049 15.3808 22.4021 14.8779 21.7818 14.8779C21.1615 14.8779 20.6586 15.3808 20.6586 16.0011C20.6586 16.6214 21.1615 17.1242 21.7818 17.1242Z" fill="#C4C4C4"/>
<path d="M10.1989 17.1242C10.8192 17.1242 11.322 16.6214 11.322 16.0011C11.322 15.3808 10.8192 14.8779 10.1989 14.8779C9.57859 14.8779 9.07574 15.3808 9.07574 16.0011C9.07574 16.6214 9.57859 17.1242 10.1989 17.1242Z" fill="#C4C4C4"/>
</svg>
