<svg width="252" height="298" viewBox="0 0 252 298" fill="none" xmlns="http://www.w3.org/2000/svg">
<path d="M252.244 258.604V6.35938L52.7097 181.739C30.3037 201.432 27.2678 235.233 45.8059 258.604H252.244Z" fill="#F3B604"/>
<mask id="mask0" mask-type="alpha" maskUnits="userSpaceOnUse" x="7" y="9" width="284" height="283">
<path d="M145.214 12.3583C146.377 8.60082 151.696 8.60247 152.857 12.3607L183.323 111.002C183.841 112.678 185.39 113.822 187.145 113.822H286.175C290.001 113.822 291.644 118.678 288.603 121L208.121 182.485C206.789 183.502 206.233 185.242 206.728 186.844L237.364 286.037C238.514 289.759 234.207 292.761 231.113 290.395L151.468 229.5C150.034 228.404 148.044 228.404 146.61 229.499L66.8848 290.405C63.7903 292.769 59.4855 289.766 60.6346 286.046L91.2735 186.844C91.7681 185.242 91.2118 183.502 89.8799 182.485L9.39676 121C6.35633 118.678 7.99892 113.822 11.825 113.822H110.859C112.612 113.822 114.161 112.68 114.68 111.004L145.214 12.3583Z" fill="#FAD344"/>
</mask>
<g mask="url(#mask0)">
<rect x="14.4883" y="4.6665" width="237.684" height="253.884" fill="#FAD344"/>
</g>
</svg>
