<svg width="322" height="284" viewBox="0 0 322 284" fill="none" xmlns="http://www.w3.org/2000/svg">
<path fill-rule="evenodd" clip-rule="evenodd" d="M175.557 14.1284C175.557 21.9313 168.968 28.2568 160.84 28.2568C152.712 28.2568 146.123 21.9313 146.123 14.1284C146.123 6.3255 152.712 0 160.84 0C168.968 0 175.557 6.3255 175.557 14.1284ZM246.109 37.6785C246.956 36.8869 247.588 35.908 247.949 34.8276C248.31 33.7471 248.389 32.5981 248.18 31.4813C247.813 29.6416 246.699 28.0176 245.084 26.966C243.469 25.9145 241.485 25.5216 239.569 25.874C186.594 35.3285 132.258 35.3285 79.2833 25.874C77.3661 25.5278 75.3839 25.9228 73.7688 26.9731C72.1536 28.0234 71.0364 29.6437 70.6602 31.4813C70.3114 33.2221 70.6626 35.0253 71.6437 36.5272C72.6248 38.029 74.1625 39.118 75.9468 39.5746L29.4351 128.947C29.6397 141.657 35.0435 153.781 44.4791 162.7C53.9146 171.619 66.625 176.618 79.8669 176.618C93.1089 176.618 105.82 171.619 115.256 162.7C124.691 153.781 130.094 141.657 130.299 128.947L85.9908 41.3088C107.835 44.7897 129.921 46.6834 152.061 46.9739V224.906C118.476 188.064 54.3155 181.325 0 211.428V256.183C59.5217 223.16 130.867 234.449 160.841 281.08C160.381 281.794 159.931 282.517 159.492 283.249H162.189C161.75 282.517 161.3 281.794 160.841 281.08C190.814 234.45 262.159 223.194 321.68 256.183V211.428C265.78 180.42 199.477 188.481 166.778 228.184V46.9393C190.449 46.6454 214.055 44.5071 237.365 40.5456L191.371 128.912C191.576 141.622 196.979 153.746 206.415 162.666C215.85 171.585 228.561 176.584 241.803 176.584C255.045 176.584 267.756 171.585 277.191 162.666C286.627 153.746 292.03 141.622 292.235 128.912L246.109 37.6785ZM41.3704 121.848L80.5234 46.6158L118.569 121.848H41.3704ZM242.496 46.6158L280.541 121.848H203.342L242.496 46.6158Z" fill="#5C28E2"/>
</svg>
