<svg width="32" height="32" viewBox="0 0 32 32" fill="none" xmlns="http://www.w3.org/2000/svg">
<path d="M27.4548 4.54517C24.5237 1.61401 20.6274 0 16.4819 0C16.4817 0 16.4807 0 16.4805 0C14.4302 0.000244141 12.4321 0.397217 10.5422 1.18018C8.6521 1.96313 6.95874 3.09521 5.50879 4.54517C2.57788 7.47607 0.963871 11.373 0.963871 15.5181C0.963871 17.99 1.56031 20.4465 2.69043 22.6353L0.0820349 30.0869C-0.101803 30.6125 0.028324 31.1838 0.422367 31.5776C0.698002 31.8535 1.06079 32 1.43384 32C1.59375 32 1.75537 31.9731 1.91309 31.918L9.36475 29.3098C11.5535 30.4399 14.01 31.0364 16.4819 31.0364C20.627 31.0364 24.5237 29.4221 27.4548 26.4912C30.3857 23.5603 32 19.6633 32 15.5183C32 11.373 30.386 7.47607 27.4548 4.54517ZM26.1277 25.1641C23.5513 27.7407 20.1255 29.1594 16.4819 29.1594C14.2529 29.1594 12.0386 28.6082 10.0781 27.5647C9.72266 27.3757 9.30249 27.3433 8.9253 27.4753L2.15528 29.8447L4.52491 23.0747C4.65699 22.697 4.62427 22.2769 4.43531 21.9216C3.39209 19.9617 2.84058 17.7473 2.84058 15.5181C2.84058 11.8745 4.25953 8.44873 6.83594 5.87231C9.41211 3.29614 12.8374 1.8772 16.4807 1.87671H16.4819C20.1257 1.87671 23.5513 3.29565 26.1277 5.87231C28.7043 8.44873 30.1233 11.8743 30.1233 15.5181C30.1233 19.1619 28.7043 22.5876 26.1277 25.1641Z" fill="#C4C4C4"/>
<path d="M22.2495 16.9041C21.5356 16.1902 20.374 16.1902 19.6601 16.9041L18.8793 17.6848C16.9406 16.6284 15.3718 15.0596 14.3151 13.1208L15.0959 12.3401C15.81 11.6262 15.81 10.4646 15.0959 9.75073L12.9919 7.64673C12.278 6.93286 11.1164 6.93286 10.4025 7.64673L8.71943 9.32983C7.75532 10.2939 7.70722 11.9514 8.58393 13.9971C9.34516 15.7732 10.7382 17.7253 12.5065 19.4937C14.2748 21.262 16.227 22.655 18.0031 23.4163C18.975 23.8328 19.8591 24.0405 20.623 24.0405C21.467 24.0405 22.1643 23.7869 22.6704 23.2808L24.3535 21.5974V21.5977C24.6994 21.2517 24.8898 20.792 24.8898 20.303C24.8898 19.8137 24.6994 19.354 24.3535 19.0083L22.2495 16.9041ZM21.3432 21.9536C21.0681 22.2288 20.2219 22.3252 18.7426 21.6914C17.1806 21.022 15.4372 19.77 13.8337 18.1665C12.2302 16.563 10.9785 14.8198 10.309 13.2578C9.675 11.7786 9.77143 10.9321 10.0466 10.657L11.6975 9.0061L13.7365 11.0454L12.7592 12.0229C12.3173 12.4648 12.2106 13.135 12.4941 13.6907C13.779 16.2102 15.79 18.2212 18.3095 19.5061C18.8654 19.7896 19.5356 19.6831 19.9775 19.241L20.9548 18.2637L22.9941 20.303L21.3432 21.9536Z" fill="#C4C4C4"/>
</svg>
